<svg width="216" height="80" viewBox="0 0 216 80" fill="none" xmlns="http://www.w3.org/2000/svg">
<path d="M173.201 48.7823C168.594 48.7823 166.077 46.1248 166.077 41.7006V32.6716H162.263V28.5133H166.158L167.537 22.8724H171.09V28.5133H179.896L178.822 32.6716H171.09V40.829C171.09 43.3447 171.861 44.5417 174.195 44.5417H178.822V48.7823H173.201ZM152.921 38.6371C152.921 35.0258 150.14 32.3882 146.731 32.3882C143.403 32.3882 140.765 35.0052 140.765 38.6371C140.765 42.2903 143.403 44.9074 146.731 44.9074C150.14 44.9074 152.921 42.269 152.921 38.6371ZM153.65 28.5133H157.913V48.7823H153.65L153.123 45.8406C151.419 48.031 148.863 49.2896 145.857 49.2896C140.298 49.2896 135.773 45.0087 135.773 38.6371C135.773 32.3676 140.278 27.9853 145.899 27.9853C148.902 27.9853 151.44 29.2432 153.123 31.4343L153.65 28.5133ZM128.786 32.6716C125.762 32.6716 124.099 34.5184 124.099 37.4814V44.6635L131.364 44.9074V48.7823H115.292V44.9074L119.107 44.6635V32.6518L115.292 32.3882V28.5133H123.104L123.491 31.3734C124.383 29.4047 126.434 28.1483 129.132 28.1483H132.662V32.6716H128.786ZM104.855 38.6371C104.855 35.0258 102.074 32.3882 98.6651 32.3882C95.3371 32.3882 92.6981 35.0052 92.6981 38.6371C92.6981 42.2903 95.3371 44.9074 98.6651 44.9074C102.074 44.9074 104.855 42.269 104.855 38.6371ZM105.586 28.5133H109.846V48.7823H105.586L105.057 45.8406C103.353 48.031 100.796 49.2896 97.7931 49.2896C92.2321 49.2896 87.7071 45.0087 87.7071 38.6371C87.7071 32.3676 92.2111 27.9853 97.8331 27.9853C100.836 27.9853 103.374 29.2432 105.057 31.4343L105.586 28.5133ZM67.0209 38.6371C67.0209 42.269 69.8223 44.9074 73.2109 44.9074C76.5382 44.9074 79.1765 42.2903 79.1765 38.6371C79.1765 35.0052 76.5382 32.3882 73.2109 32.3882C69.8223 32.3882 67.0209 35.0258 67.0209 38.6371ZM67.0209 46.1035V53.4282L74.4085 53.6925V57.5888H58.3362V53.6925L62.0292 53.4488V28.5133H66.2901L66.8189 31.4549C68.5229 29.2638 71.0797 27.9853 74.1033 27.9853C79.7248 27.9853 84.1691 32.3676 84.1691 38.6371C84.1691 45.0087 79.5834 49.2896 74.0427 49.2896C71.1613 49.2896 68.7048 48.1332 67.0209 46.1035ZM40.0038 38.6371C40.0038 42.269 42.7845 44.9074 46.1731 44.9074C49.5008 44.9074 52.1595 42.2903 52.1595 38.6371C52.1595 35.0052 49.5008 32.3882 46.1731 32.3882C42.7845 32.3882 40.0038 35.0258 40.0038 38.6371ZM40.0038 46.1248V53.4282L47.39 53.6925V57.5888H31.3184V53.6925L34.9914 53.4488V32.6518L31.1759 32.3882V28.5133H39.2533L39.8004 31.4549C41.505 29.2432 44.0624 27.9853 47.0662 27.9853C52.6876 27.9853 57.1516 32.3676 57.1516 38.6371C57.1516 45.0087 52.5649 49.2896 47.0052 49.2896C44.1232 49.2896 41.6879 48.1332 40.0038 46.1248ZM22.9508 48.7823L21.6721 43.2632H9.82134L8.54344 48.7823H3.02344L7.81274 29.8321H12.9059L10.8363 38.82H20.6571L17.7965 26.4441H3.02344L4.13974 22H21.8756L28.5721 48.7823H22.9508Z" fill="#FFCD00"/>
<mask id="mask0_1534_41087" style="mask-type:luminance" maskUnits="userSpaceOnUse" x="0" y="7" width="216" height="66">
<path d="M216 7.5H0V72.5H216V7.5Z" fill="white"/>
</mask>
<g mask="url(#mask0_1534_41087)">
<path d="M0 72.4998H216V7.49951H0V72.4998Z" fill="white"/>
<path d="M190.201 50.1164C185.594 50.1164 183.077 47.456 183.077 43.027V33.9883H179.263V29.8254H183.158L184.537 24.1785H188.09V29.8254H196.896L195.822 33.9883H188.09V42.1545C188.09 44.6729 188.861 45.8711 191.195 45.8711H195.822V50.1164H190.201ZM169.921 39.9602C169.921 36.345 167.14 33.7046 163.731 33.7046C160.403 33.7046 157.765 36.3244 157.765 39.9602C157.765 43.6174 160.403 46.2372 163.731 46.2372C167.14 46.2372 169.921 43.596 169.921 39.9602ZM170.65 29.8254H174.913V50.1164H170.65L170.123 47.1715C168.419 49.3643 165.863 50.6242 162.857 50.6242C157.298 50.6242 152.773 46.3387 152.773 39.9602C152.773 33.684 157.278 29.2969 162.899 29.2969C165.902 29.2969 168.44 30.5561 170.123 32.7497L170.65 29.8254ZM145.786 33.9883C142.762 33.9883 141.099 35.8371 141.099 38.8033V45.9931L148.364 46.2372V50.1164H132.292V46.2372L136.107 45.9931V33.9685L132.292 33.7046V29.8254H140.104L140.491 32.6886C141.383 30.7179 143.434 29.4601 146.132 29.4601H149.662V33.9883H145.786ZM121.855 39.9602C121.855 36.345 119.074 33.7046 115.665 33.7046C112.337 33.7046 109.698 36.3244 109.698 39.9602C109.698 43.6174 112.337 46.2372 115.665 46.2372C119.074 46.2372 121.855 43.596 121.855 39.9602ZM122.586 29.8254H126.846V50.1164H122.586L122.057 47.1715C120.353 49.3643 117.796 50.6242 114.793 50.6242C109.232 50.6242 104.707 46.3387 104.707 39.9602C104.707 33.684 109.211 29.2969 114.833 29.2969C117.836 29.2969 120.374 30.5561 122.057 32.7497L122.586 29.8254ZM84.0209 39.9602C84.0209 43.596 86.8223 46.2372 90.2109 46.2372C93.5382 46.2372 96.1765 43.6174 96.1765 39.9602C96.1765 36.3244 93.5382 33.7046 90.2109 33.7046C86.8223 33.7046 84.0209 36.345 84.0209 39.9602ZM84.0209 47.4347V54.7672L91.4085 55.0319V58.9324H75.3362V55.0319L79.0292 54.7879V29.8254H83.2901L83.8189 32.7703C85.5229 30.5767 88.0797 29.2969 91.1033 29.2969C96.7248 29.2969 101.169 33.684 101.169 39.9602C101.169 46.3387 96.5834 50.6242 91.0427 50.6242C88.1613 50.6242 85.7048 49.4665 84.0209 47.4347ZM57.0038 39.9602C57.0038 43.596 59.7845 46.2372 63.1731 46.2372C66.5008 46.2372 69.1595 43.6174 69.1595 39.9602C69.1595 36.3244 66.5008 33.7046 63.1731 33.7046C59.7845 33.7046 57.0038 36.345 57.0038 39.9602ZM57.0038 47.456V54.7672L64.39 55.0319V58.9324H48.3184V55.0319L51.9914 54.7879V33.9685L48.1759 33.7046V29.8254H56.2533L56.8004 32.7703C58.505 30.5561 61.0624 29.2969 64.0662 29.2969C69.6876 29.2969 74.1516 33.684 74.1516 39.9602C74.1516 46.3387 69.5649 50.6242 64.0052 50.6242C61.1232 50.6242 58.6879 49.4665 57.0038 47.456ZM39.9508 50.1164L38.6721 44.5913H26.8213L25.5434 50.1164H20.0234L24.8127 31.1457H29.9059L27.8363 40.1432H37.6571L34.7965 27.754H20.0234L21.1397 23.3052H38.8756L45.5721 50.1164H39.9508Z" fill="#C1C1C1"/>
</g>
</svg>
