<svg width="216" height="80" viewBox="0 0 216 80" fill="none" xmlns="http://www.w3.org/2000/svg">
<path d="M112.339 16.087C112.269 15.4625 111.761 15 111.137 15H96.6005C95.9765 15 95.4681 15.4857 95.3988 16.087L91.1465 63.6587C91.0772 64.3525 91.6318 64.9769 92.3482 64.9769H99.3044C99.9284 64.9769 100.46 64.4913 100.506 63.8437L100.945 57.4145C100.968 57.1138 101.199 56.8826 101.5 56.8826H106.214C106.515 56.8826 106.746 57.1138 106.769 57.4145L107.208 63.8437C107.254 64.4682 107.786 64.9769 108.41 64.9769H115.389C116.106 64.9769 116.66 64.3756 116.591 63.6587L112.339 16.087ZM102.239 48.9038C101.916 48.9038 101.661 48.6263 101.685 48.3025L103.418 24.9445C103.441 24.7595 103.58 24.6438 103.741 24.6438H103.973C104.157 24.6438 104.296 24.7826 104.296 24.9445L106.029 48.3025C106.053 48.6263 105.798 48.9038 105.475 48.9038H102.239Z" fill="white"/>
<path d="M207.741 16.087C207.695 15.4625 207.163 15 206.539 15H192.002C191.379 15 190.871 15.4857 190.802 16.087L186.572 63.6587C186.503 64.3525 187.058 64.9769 187.774 64.9769H194.729C195.353 64.9769 195.885 64.4913 195.931 63.8437L196.37 57.4145C196.393 57.1138 196.624 56.8826 196.925 56.8826H201.639C201.94 56.8826 202.171 57.1138 202.194 57.4145L202.633 63.8437C202.679 64.4682 203.211 64.9769 203.835 64.9769H210.791C211.508 64.9769 212.062 64.3756 211.993 63.6587L207.741 16.087ZM197.641 48.9038C197.318 48.9038 197.064 48.6263 197.087 48.3025L198.82 24.9445C198.843 24.7595 198.982 24.6438 199.144 24.6438H199.375C199.56 24.6438 199.698 24.7826 199.698 24.9445L201.431 48.3025C201.455 48.6263 201.2 48.9038 200.877 48.9038H197.641Z" fill="white"/>
<path d="M45.9915 44.3478V54.6855C45.9915 54.9861 46.2457 55.2405 46.546 55.2405H54.4497C55.1199 55.2405 55.6515 55.7725 55.6515 56.4432V63.7512C55.6515 64.4219 55.1199 64.9538 54.4497 64.9538H37.7643C37.094 64.9538 36.5625 64.4219 36.5625 63.7512V16.2026C36.5625 15.5319 37.094 15 37.7643 15H54.4497C55.1199 15 55.6515 15.5319 55.6515 16.2026V23.4644C55.6515 24.1351 55.1199 24.667 54.4497 24.667H46.546C46.2457 24.667 45.9915 24.9214 45.9915 25.222V35.1896C45.9915 35.4903 46.2457 35.7447 46.546 35.7447H52.8552C53.5253 35.7447 54.0568 36.2766 54.0568 36.9473V42.5902C54.0568 43.2609 53.5253 43.7928 52.8552 43.7928H46.546C46.2457 43.7928 45.9915 44.0472 45.9915 44.3478Z" fill="white"/>
<path d="M144.167 15H123.529C122.86 15 122.328 15.5319 122.328 16.2026V23.4644C122.328 24.1351 122.86 24.667 123.529 24.667H128.59C128.891 24.667 129.145 24.9214 129.145 25.222V63.7743C129.145 64.445 129.676 64.9769 130.347 64.9769H137.349C138.019 64.9769 138.551 64.445 138.551 63.7743V25.1989C138.551 24.8982 138.805 24.6438 139.106 24.6438H144.167C144.837 24.6438 145.369 24.1119 145.369 23.4413V16.2026C145.369 15.5319 144.837 15 144.167 15Z" fill="white"/>
<path d="M82.578 55.2405H75.437C75.1366 55.2405 74.8823 54.9861 74.8823 54.6855V16.2026C74.8823 15.5319 74.3508 15 73.6807 15H66.6783C66.0081 15 65.4766 15.5319 65.4766 16.2026V63.7743C65.4766 64.445 66.0081 64.9769 66.6783 64.9769H82.578C83.2482 64.9769 83.7798 64.445 83.7798 63.7743V56.4663C83.7798 55.7956 83.2482 55.2405 82.578 55.2405Z" fill="white"/>
<path d="M172.859 41.3645V41.0638C172.859 40.925 172.951 40.8094 173.067 40.7632C175.586 39.7919 177.366 37.3404 177.366 34.4958V24.0888C177.389 19.0703 173.321 15 168.306 15H155.596C154.926 15 154.395 15.5319 154.395 16.2026V63.7743C154.395 64.445 154.926 64.9769 155.596 64.9769H162.598C163.268 64.9769 163.8 64.445 163.8 63.7743V46.4524C163.8 46.1517 164.054 45.8973 164.354 45.8973H165.995C167.104 45.8973 168.006 46.7993 168.006 47.9093V63.7975C168.006 64.4682 168.537 65 169.208 65H176.21C176.88 65 177.412 64.4682 177.412 63.7975V47.9787C177.412 45.111 175.632 42.6827 173.113 41.7114C172.951 41.6189 172.859 41.5032 172.859 41.3645ZM167.983 35.8141C167.983 36.9242 167.081 37.8261 165.972 37.8261H164.331C164.031 37.8261 163.777 37.5717 163.777 37.271V25.1989C163.777 24.8982 164.031 24.6438 164.331 24.6438H165.972C167.081 24.6438 167.983 25.5458 167.983 26.6559V35.8141Z" fill="white"/>
<path d="M27.0176 24.0888C27.0176 19.0703 22.9502 15 17.9123 15H5.20172C4.53153 15 4 15.5319 4 16.2026V63.7743C4 64.445 4.53153 64.9769 5.20172 64.9769H20.6392C24.152 64.9769 26.9945 62.1323 26.9945 58.617V46.5218C26.9945 43.6541 25.2151 41.2257 22.6961 40.2544C22.5574 40.2082 22.4881 40.0926 22.4881 39.9538V39.6531C22.4881 39.5144 22.5805 39.3987 22.6961 39.3525C25.2151 38.3811 26.9945 35.9297 26.9945 33.0851L27.0176 24.0888ZM17.6118 53.2517C17.6118 54.3617 16.7105 55.2636 15.6013 55.2636H13.9604C13.66 55.2636 13.4058 55.0092 13.4058 54.7086V44.3709C13.4058 44.0703 13.66 43.816 13.9604 43.816H15.6013C16.7105 43.816 17.6118 44.7178 17.6118 45.828V53.2517ZM17.6118 33.7327C17.6118 34.8427 16.7105 35.7447 15.6013 35.7447H13.9604C13.66 35.7447 13.4058 35.4903 13.4058 35.1896V25.1989C13.4058 24.8982 13.66 24.6438 13.9604 24.6438H15.6013C16.7105 24.6438 17.6118 25.5458 17.6118 26.6559V33.7327Z" fill="white"/>
</svg>
