<svg width="200" height="80" viewBox="0 0 200 80" fill="none" xmlns="http://www.w3.org/2000/svg">
<g clip-path="url(#clip0_1534_34971)">
<path d="M23.3611 38.718V41.7065C23.3611 47.5869 20.2013 53.2745 12.2643 53.2745C4.32732 53.2745 0 47.8011 0 40.1319C0 32.4627 4.32732 27 12.2536 27C18.0698 27 21.7223 30.0527 22.6756 34.7013H17.17C16.6131 32.8162 14.9742 31.7129 12.2322 31.7129C7.67992 31.7129 5.41986 35.3012 5.41986 40.1105C5.41986 44.9198 7.69063 48.5723 12.2429 48.5723C16.1632 48.5723 17.9198 46.2694 18.0269 43.0347H12.0501V38.7073H23.3611V38.718Z" fill="white"/>
<path d="M41.9335 45.9592H32.3041L30.2476 52.8143H25.0312L33.0861 27.4609H41.2801L49.3778 52.8143H44.0222L41.9335 45.9592ZM33.6538 41.3426H40.541L37.8847 32.538H36.3423L33.6538 41.3426Z" fill="white"/>
<path d="M52.0781 27.4609H60.2079L64.3639 37.6901H65.285L69.4088 27.4609H77.5708V52.8143H72.6329V33.9198H71.7117L67.4487 44.149H62.1574L57.9371 33.9198H57.016V52.8036H52.0781V27.4609Z" fill="white"/>
<path d="M96.1209 48.0907L95.3496 52.8143H82.5391V27.4609H99.7841L98.8629 32.1846H87.8518V37.508H98.006L97.2027 42.1246H87.8518V48.1014H96.1209V48.0907Z" fill="white"/>
<path d="M117.116 40.068C118.883 41.0856 119.965 42.9707 119.954 45.0059C119.954 50.2972 115.659 52.8143 110.796 52.8143H99.7852L104.23 27.4609H114.277C117.866 27.4609 121.133 29.4532 121.133 33.245C121.197 35.8692 119.665 38.2685 117.266 39.3182L117.116 40.068ZM110.389 50.7042C114.256 50.7042 117.598 49.0654 117.598 44.9202C117.598 41.7925 114.824 40.625 112.092 40.625H104.252L102.474 50.7042H110.389ZM104.659 38.472H112.499C115.948 38.472 118.787 37.1974 118.787 33.4271C118.787 30.7278 116.409 29.5925 114.031 29.5925H106.233L104.659 38.472Z" fill="white"/>
<path d="M133.056 50.6721L131.942 52.8036H122.109L126.555 27.4609H145.213L144.099 29.5925H128.536L126.94 38.547H139.397L138.283 40.6785H126.576L124.798 50.6935L133.056 50.6721Z" fill="white"/>
<path d="M159.029 52.8143H156.576L155.151 44.6095H143.722L139.459 52.8143H136.91L150.192 27.4609H154.487L159.029 52.8143ZM144.836 42.478H154.798L152.666 29.9459H151.317L144.836 42.478Z" fill="white"/>
<path d="M178.75 29.5925H170.353L166.272 52.8036H163.926L168.007 29.5925H159.609L159.963 27.4609H179.136L178.75 29.5925Z" fill="white"/>
<path d="M195.483 52.8036H181.719L186.25 27.4609H200.003L195.483 52.8036Z" fill="url(#paint0_linear_1534_34971)"/>
<path d="M188.238 52.8036H174.484L179.154 27.4609H192.918L188.238 52.8036Z" fill="url(#paint1_linear_1534_34971)"/>
</g>
<defs>
<linearGradient id="paint0_linear_1534_34971" x1="190.863" y1="53.014" x2="190.863" y2="29.4314" gradientUnits="userSpaceOnUse">
<stop offset="0.193" stop-color="#F0F0F0" stop-opacity="0"/>
<stop offset="1" stop-color="#F0F0F0"/>
</linearGradient>
<linearGradient id="paint1_linear_1534_34971" x1="183.698" y1="27.3512" x2="183.698" y2="54.1462" gradientUnits="userSpaceOnUse">
<stop offset="0.193" stop-color="#F0F0F0" stop-opacity="0"/>
<stop offset="1" stop-color="#F0F0F0"/>
</linearGradient>
<clipPath id="clip0_1534_34971">
<rect width="200" height="80" fill="white"/>
</clipPath>
</defs>
</svg>
