<svg width="160" height="80" viewBox="0 0 160 80" fill="none" xmlns="http://www.w3.org/2000/svg">
<path d="M34.6103 76.8012C33.4204 76.8012 32.2847 76.6389 31.2571 76.3685C30.2296 76.0981 29.2561 75.6114 28.4989 74.9624C27.7418 74.3134 27.0928 73.5021 26.6601 72.4746C26.2274 71.5011 25.957 70.3112 25.957 69.0133C25.957 67.7153 26.1734 66.5255 26.6601 65.552C27.0928 64.5785 27.7418 63.7132 28.4989 63.0642C29.2561 62.4152 30.2296 61.9284 31.2571 61.6039C32.2847 61.2794 33.4204 61.1172 34.6103 61.1172C35.8001 61.1172 36.9358 61.2794 37.9634 61.6039C38.991 61.9284 39.9104 62.4152 40.7216 63.0642C41.4788 63.7132 42.1278 64.5244 42.5604 65.552C42.9931 66.5255 43.2635 67.7153 43.2635 69.0133C43.2635 70.3112 43.0472 71.5011 42.5604 72.4746C42.1278 73.448 41.4788 74.3134 40.7216 74.9624C39.9645 75.6114 38.991 76.0981 37.9634 76.3685C36.9358 76.6389 35.8001 76.8012 34.6103 76.8012ZM34.6103 64.0377C33.9613 64.0377 33.3123 64.1458 32.7174 64.3621C32.1225 64.5785 31.5275 64.903 31.0408 65.3356C30.5541 65.7683 30.1755 66.255 29.851 66.904C29.5806 67.4989 29.4183 68.202 29.4183 69.0133C29.4183 69.7704 29.5806 70.4735 29.851 71.1225C30.1214 71.7174 30.5541 72.2582 31.0408 72.6909C31.5275 73.1235 32.0684 73.448 32.7174 73.6644C33.3123 73.8807 33.9613 73.9889 34.6103 73.9889C35.2593 73.9889 35.9082 73.8807 36.5032 73.6644C37.0981 73.448 37.693 73.1235 38.1797 72.6909C38.6665 72.2582 39.045 71.7715 39.3695 71.1225C39.64 70.5276 39.8022 69.8245 39.8022 69.0133C39.8022 68.2561 39.64 67.553 39.3695 66.904C39.0991 66.3091 38.6665 65.7683 38.1797 65.3356C37.693 64.903 37.1522 64.5785 36.5032 64.3621C35.9082 64.1458 35.2593 64.0377 34.6103 64.0377Z" fill="white"/>
<path d="M68.0907 76.8012C66.9009 76.8012 65.7652 76.6389 64.7376 76.3685C63.71 76.0981 62.7365 75.6114 61.9794 74.9624C61.2222 74.3134 60.5732 73.448 60.1406 72.4746C59.7079 71.5011 59.4375 70.3112 59.4375 69.0133C59.4375 67.7153 59.6538 66.5255 60.1406 65.552C60.5732 64.5785 61.2222 63.7132 61.9794 63.0642C62.7365 62.4152 63.71 61.9284 64.7376 61.6039C65.7652 61.2794 66.9009 61.1172 68.0907 61.1172C69.2806 61.1172 70.4163 61.2794 71.4439 61.6039C72.4714 61.9284 73.3908 62.4152 74.2021 63.0642C74.9592 63.7132 75.6082 64.5244 76.0409 65.552C76.4735 66.5255 76.744 67.7153 76.744 69.0133C76.744 70.3112 76.5276 71.5011 76.0409 72.4746C75.6082 73.448 74.9592 74.3134 74.2021 74.9624C73.4449 75.6114 72.4714 76.0981 71.4439 76.3685C70.4163 76.6389 69.2806 76.8012 68.0907 76.8012ZM68.0907 64.0377C67.4417 64.0377 66.7927 64.1458 66.1978 64.3621C65.6029 64.5785 65.008 64.903 64.5213 65.3356C64.0345 65.7683 63.6559 66.255 63.3315 66.904C63.061 67.4989 62.8988 68.202 62.8988 69.0133C62.8988 69.7704 63.061 70.4735 63.3315 71.1225C63.6019 71.7174 64.0345 72.2582 64.5213 72.6909C65.008 73.1235 65.5488 73.448 66.1978 73.6644C66.7927 73.8807 67.4417 73.9889 68.0907 73.9889C68.7397 73.9889 69.3887 73.8807 69.9836 73.6644C70.5785 73.448 71.1734 73.1235 71.6602 72.6909C72.1469 72.2582 72.5255 71.7715 72.85 71.1225C73.1204 70.5276 73.2827 69.8245 73.2827 69.0133C73.2827 68.2561 73.1204 67.553 72.85 66.904C72.5796 66.3091 72.1469 65.7683 71.6602 65.3356C71.1734 64.903 70.6326 64.5785 69.9836 64.3621C69.3887 64.1458 68.7397 64.0377 68.0907 64.0377Z" fill="white"/>
<path d="M20.0626 78.5315L7.73171 64.2536V78.5315H4V58.4668H7.89395L19.7921 72.2038V58.4668H23.5239V78.5315H20.0626Z" fill="white"/>
<path d="M52.9975 76.6909H49.6984L42.9922 61.2773H46.7239L51.3209 71.9857L55.918 61.2773H59.6497L52.9975 76.6909Z" fill="white"/>
<path d="M118.549 76.6929V64.1998H113.141V61.2793H127.418V64.1998H122.01V76.6929H118.549Z" fill="white"/>
<path d="M133.472 61.2793H129.957V76.6929H133.472V61.2793Z" fill="white"/>
<path d="M111.357 76.6909L109.735 72.9592H102.974L101.352 76.6909H97.8906L104.705 61.2773H107.95L114.764 76.6909H111.357ZM108.545 69.9847L106.436 65.0091L104.326 69.9847H108.545Z" fill="white"/>
<path d="M92.6385 61.2773L87.6088 70.4173L82.5791 61.2773H79.1719V76.6909H82.2546V67.1183L87.6088 76.745L92.963 67.1183V76.6909H96.0457V61.2773H92.6385Z" fill="white"/>
<path d="M100.971 5.68124C99.6189 3.57202 96.8607 2.0577 92.5341 1.13829C89.235 0.43522 85.0707 0.0566406 80.5277 0.0566406C75.9848 0.0566406 71.8204 0.43522 68.5213 1.13829C64.2488 2.0577 61.4906 3.57202 60.0844 5.68124C57.813 9.14253 58.3538 14.2263 58.9487 20.1213C59.0569 21.203 59.165 22.3387 59.2732 23.4204C59.4354 25.5837 59.8681 29.8562 60.6794 34.0206C61.8151 40.0238 63.059 42.133 63.9243 43.2146C67.4938 47.7035 77.5532 48.0821 80.5277 48.0821C83.5023 48.0821 93.5616 47.7576 97.1311 43.2146C97.9964 42.133 99.2403 40.0238 100.376 34.0206C101.187 29.9103 101.62 25.6378 101.782 23.4204C101.89 22.3387 101.999 21.203 102.107 20.1213C102.702 14.2804 103.242 9.19662 100.971 5.68124ZM100.43 20.0132C100.322 21.0948 100.214 22.2305 100.106 23.3122C99.9434 25.4755 99.5107 29.6399 98.6995 33.7502C97.6178 39.4288 96.5362 41.2677 95.779 42.2411C92.5882 46.2974 82.4747 46.4596 80.4736 46.4596C78.4726 46.4596 68.3591 46.2433 65.1682 42.2411C64.4111 41.3217 63.3294 39.4288 62.2478 33.7502C61.4906 29.694 61.0579 25.4755 60.8416 23.3122C60.7334 22.2305 60.6253 21.0948 60.5171 20.0132C59.9222 14.4426 59.4355 9.62928 61.3824 6.60065C62.5182 4.87 64.8978 3.6261 68.7918 2.76078C71.9826 2.0577 76.0388 1.67912 80.4736 1.67912C84.9084 1.67912 88.9646 2.0577 92.1555 2.76078C95.9954 3.57202 98.4291 4.87 99.5648 6.60065C101.512 9.5752 101.025 14.3886 100.43 20.0132ZM80.5277 4.05876C89.1269 4.05876 96.0494 5.46491 97.6178 7.84455C99.4567 10.6568 98.3209 16.9304 97.7801 23.0418C97.2393 29.2072 95.9413 38.1309 93.9943 40.6727C92.2636 42.8901 86.0441 44.0259 80.5277 44.0259C75.0113 44.0259 68.7918 42.8901 67.0611 40.6727C65.0601 38.1309 63.7621 29.2072 63.2753 23.0418C62.7345 16.8764 61.6528 10.6568 63.4376 7.84455C64.9519 5.51899 71.9286 4.05876 80.5277 4.05876ZM67.8724 12.6038C67.656 12.712 67.5479 13.1447 67.5479 13.1447L67.2774 14.2263C67.2774 14.2263 67.1693 14.4967 67.3315 14.8212C67.4938 15.1457 68.5754 15.362 68.5754 15.362C68.5754 15.362 70.4683 15.6325 71.2255 16.6059C71.9826 17.5254 71.6581 18.8233 71.6581 18.8233L69.603 28.9368C69.603 28.9368 69.3867 29.9103 68.8999 30.397C68.4132 30.8297 67.5479 30.8838 67.5479 30.8838C67.5479 30.8838 67.0611 30.8838 66.7366 31.046C66.4662 31.1542 66.358 31.5869 66.358 31.5869L66.1958 32.2358C66.1958 32.2358 66.1417 32.5063 66.304 32.7767C66.4662 33.0471 66.8989 33.1012 66.8989 33.1012L77.3368 33.1553C77.3368 33.1553 77.6613 33.1553 77.8236 32.993C77.9858 32.8308 78.0399 32.4522 78.0399 32.4522L78.2021 31.4787C78.2021 31.4787 78.2562 31.2083 78.1481 30.9919C77.9858 30.7756 77.8236 30.7756 77.3368 30.6674C76.8501 30.5593 76.5797 30.397 76.0929 30.0185C75.498 29.5317 75.7143 28.6123 75.7143 28.6123L76.6338 23.5285C76.6338 23.5285 76.7419 23.15 77.0123 23.15C77.3909 23.15 77.4991 23.4745 77.4991 23.4745L82.4747 32.3981C82.4747 32.3981 82.6369 32.7226 82.9073 32.8848C83.1778 33.1012 83.7727 33.1012 83.7727 33.1012L92.2096 33.0471C92.2096 33.0471 92.6422 33.0471 92.8586 32.8848C93.129 32.6685 93.1831 32.2899 93.1831 32.2899L93.3453 31.5328C93.3453 31.5328 93.4535 31.2083 93.2912 30.8297C93.129 30.4511 92.3718 30.343 91.5606 30.1266C90.9657 29.9103 90.1544 29.5317 89.884 29.0991C89.7218 28.8286 89.884 28.2337 89.884 28.2337L92.6963 16.66C92.6963 16.66 92.8045 16.1733 93.2912 15.6865C93.7239 15.2539 94.9137 14.9835 94.9137 14.9835C94.9137 14.9835 95.2382 14.9294 95.4005 14.7671C95.5086 14.659 95.5627 14.3886 95.5627 14.3886L95.8872 13.1447C95.8872 13.1447 95.9954 12.8202 95.779 12.6038C95.6168 12.3875 95.1841 12.3875 95.1841 12.3875H85.5574C85.5574 12.3875 85.2329 12.3875 84.9625 12.6038C84.6921 12.8202 84.638 13.0906 84.638 13.0906L84.4217 14.1181C84.4217 14.1181 84.3676 14.3886 84.4217 14.6049C84.5298 14.8753 84.8002 14.8753 84.8002 14.8753L85.1788 14.9294C85.1788 14.9294 85.936 15.0916 86.3146 15.4702C86.6931 15.8488 86.5309 16.8764 86.5309 16.8764L85.1247 23.5826L80.041 13.8477C80.041 13.8477 79.8787 13.4151 79.3379 12.8202C78.7971 12.2793 77.9317 12.3334 77.9317 12.3334H68.4132C68.4673 12.4957 68.0887 12.4957 67.8724 12.6038Z" fill="white"/>
<path d="M147.428 78.6398C145.968 78.6398 144.508 78.4234 143.156 78.0449C141.804 77.6663 140.56 77.0173 139.532 76.152C138.505 75.2867 137.639 74.2591 137.044 72.9611C136.449 71.7172 136.125 70.2029 136.125 68.5263C136.125 66.8498 136.449 65.3895 137.044 64.0915C137.639 62.7936 138.505 61.7119 139.532 60.9007C140.56 60.0353 141.804 59.3863 143.156 58.9537C144.508 58.521 145.968 58.3047 147.428 58.3047C150.457 58.3047 153.215 59.3323 155.054 60.0894C155.27 60.1976 156.46 60.7384 156.46 60.7384L154.567 63.9293L154.297 63.767C152.404 62.6313 150.295 61.9282 148.348 61.7119C148.023 61.6578 147.699 61.6578 147.428 61.6578H147.266H147.158C146.238 61.6578 145.373 61.8201 144.562 62.0905C143.642 62.415 142.831 62.8476 142.182 63.4425C141.533 64.0375 140.992 64.7405 140.56 65.6059C140.181 66.4712 139.965 67.4447 139.965 68.5263C139.965 69.608 140.181 70.5815 140.56 71.4468C140.938 72.3121 141.479 73.0152 142.182 73.6101C142.831 74.205 143.642 74.6377 144.562 74.9622C145.481 75.2867 146.455 75.3948 147.428 75.3948C150.619 75.3948 153.323 73.9346 155.054 72.6907L155.324 72.4744L157.001 75.3948L156.731 75.5571C154.621 76.9091 151.376 78.5857 148.023 78.7479C147.861 78.6398 147.645 78.6398 147.428 78.6398Z" fill="white"/>
</svg>
