<svg width="216" height="80" viewBox="0 0 216 80" fill="none" xmlns="http://www.w3.org/2000/svg">
<mask id="mask0_1535_13706" style="mask-type:luminance" maskUnits="userSpaceOnUse" x="0" y="13" width="216" height="54">
<path d="M216 13H0V67H216V13Z" fill="white"/>
</mask>
<g mask="url(#mask0_1535_13706)">
<path d="M32.5465 40.0002H51.4994C45.8262 32.7511 38.846 26.6468 30.9258 22.0078V37.0734C32.0063 37.9355 32.5465 38.9793 32.5465 40.0002Z" fill="white"/>
<path d="M32.5494 39.9992C32.5494 41.0202 32.0092 42.0412 30.9062 42.9034V57.969C38.8354 53.3431 45.8178 47.2368 51.4798 39.9766L32.5494 39.9992Z" fill="white"/>
<path d="M14.6777 50.3691L5.15625 67.0003C14.2395 65.6854 22.9883 62.6276 30.9293 57.9927L18.0316 50.4825C16.7035 50.9818 15.5555 50.9363 14.6777 50.3691Z" fill="white"/>
<path d="M13.123 47.6443L3.67788e-05 39.998C-0.00922979 49.2453 1.73265 58.4092 5.13218 66.9981L14.6537 50.367C13.8658 49.8451 13.3256 48.9149 13.123 47.6443Z" fill="white"/>
<path d="M14.6537 29.6311L5.15472 13C1.73722 21.5843 -0.0127026 30.7503 6.94115e-05 40L13.123 32.3538C13.3031 31.0832 13.8658 30.153 14.6537 29.6311Z" fill="white"/>
<path d="M18.0082 29.5176L30.9061 22.0076C22.9664 17.3694 14.2168 14.3115 5.13281 13L14.6543 29.6311C15.5547 29.0638 16.7026 28.9958 18.0082 29.5176Z" fill="white"/>
<path d="M18.9307 29.9724L30.0954 36.5523C30.3954 36.7339 30.6655 36.9153 30.9057 37.0968V22.0312L18.0078 29.5413C18.3277 29.6567 18.6366 29.8009 18.9307 29.9724Z" fill="white"/>
<path d="M13.0554 46.6024V33.3746C13.054 33.0331 13.0766 32.6919 13.123 32.3535L0 39.9998L13.123 47.646C13.0773 47.3 13.0548 46.9513 13.0554 46.6024Z" fill="white"/>
<path d="M30.1189 43.4488L18.9541 50.0286C18.658 50.2027 18.3496 50.3545 18.0312 50.4824L30.9291 57.9925V42.9043C30.6768 43.1114 30.4057 43.2939 30.1189 43.4488Z" fill="white"/>
<path d="M67.4593 42.1559V50.0971H63.7227V29.7903H69.8678C71.052 29.7737 72.2333 29.9188 73.3792 30.2215C74.2542 30.4542 75.0735 30.8633 75.7877 31.424C76.3957 31.9116 76.8749 32.5428 77.1833 33.2617C77.4856 34.0109 77.6385 34.8127 77.6335 35.6214C77.6351 36.2774 77.5284 36.9291 77.3184 37.55C77.1212 38.1483 76.8243 38.7086 76.4405 39.2063C76.0428 39.7123 75.5723 40.1558 75.0449 40.5223C74.4608 40.9144 73.824 41.22 73.1541 41.4298C73.6442 41.7216 74.0665 42.1165 74.3922 42.587L79.4343 50.0744H76.0579C75.776 50.0953 75.4944 50.0336 75.2468 49.8968C74.9992 49.7597 74.7962 49.5535 74.6623 49.303L70.408 42.8139C70.2837 42.597 70.1052 42.4171 69.8903 42.2921C69.6229 42.1675 69.3287 42.113 69.0349 42.1332H67.4593V42.1559ZM67.4593 39.4332H69.8002C70.4262 39.447 71.05 39.355 71.646 39.161C72.13 39.0099 72.5754 38.7543 72.9516 38.4122C73.2829 38.1014 73.5438 37.7221 73.7169 37.3004C73.8936 36.8455 73.9778 36.3593 73.9645 35.871C73.9645 34.8273 73.6268 34.0559 72.9516 33.4886C72.2763 32.9214 71.2408 32.6492 69.8678 32.6492H67.4818L67.4593 39.4332Z" fill="white"/>
<path d="M89.5438 47.0327C90.206 47.0371 90.8631 46.9139 91.4796 46.6698C92.0297 46.4426 92.522 46.0936 92.9202 45.6487C93.3323 45.1836 93.6396 44.634 93.8206 44.0378C94.045 43.3578 94.1517 42.644 94.1357 41.9277V29.7891H97.8723V41.9504C97.8779 43.096 97.6796 44.2334 97.287 45.3084C96.9192 46.2996 96.3522 47.2034 95.6213 47.963C94.879 48.7304 93.9804 49.3262 92.9877 49.71C90.7377 50.5571 88.2598 50.5571 86.0098 49.71C85.0244 49.3123 84.1285 48.7181 83.3762 47.963C82.6453 47.2034 82.0781 46.2996 81.7105 45.3084C81.3141 44.2343 81.1156 43.0965 81.1253 41.9504V29.7891H84.8618V41.9504C84.8571 42.6661 84.9633 43.378 85.177 44.0605C85.3762 44.6488 85.6814 45.195 86.0773 45.6714C86.4771 46.1202 86.9685 46.4762 87.5179 46.7151C88.173 46.9252 88.8563 47.0323 89.5438 47.0327Z" fill="white"/>
<path d="M102.125 50.0748V29.7909H109.058C110.195 29.7718 111.33 29.9015 112.434 30.1765C113.266 30.3767 114.047 30.7475 114.73 31.2657C115.307 31.712 115.764 32.2971 116.058 32.9674C116.357 33.6772 116.503 34.4427 116.486 35.2135C116.492 35.6772 116.416 36.1384 116.261 36.5748C116.115 37.0184 115.895 37.4329 115.608 37.8001C115.288 38.2041 114.909 38.5561 114.483 38.8438C113.98 39.1801 113.435 39.4471 112.862 39.6379C115.631 40.2732 117.004 41.7707 117.004 44.153C117.018 44.9626 116.854 45.7651 116.523 46.503C116.192 47.2406 115.703 47.8949 115.09 48.4185C114.415 48.9842 113.634 49.4085 112.794 49.6665C111.781 49.9794 110.726 50.1325 109.666 50.1202L102.125 50.0748ZM105.884 38.5715H108.855C110.138 38.5715 111.106 38.322 111.759 37.8682C112.412 37.4144 112.749 36.643 112.749 35.6447C112.749 34.5783 112.457 33.8296 111.849 33.3758C111.241 32.922 110.318 32.6951 109.058 32.6951H105.862V38.5715H105.884ZM105.884 41.1807V47.148H109.666C110.26 47.1596 110.853 47.0754 111.421 46.8984C111.848 46.7562 112.239 46.5242 112.569 46.2177C112.853 45.9518 113.063 45.6153 113.177 45.2421C113.314 44.8561 113.382 44.4493 113.38 44.0395C113.392 43.6343 113.315 43.2313 113.155 42.8597C113.005 42.5129 112.783 42.2031 112.502 41.9522C112.163 41.6833 111.772 41.49 111.354 41.3849C110.803 41.2391 110.235 41.1703 109.666 41.1807H105.884Z" fill="white"/>
<path d="M128.868 42.2238V50.0969H125.131V42.2238L117.793 29.7901H121.102C121.385 29.7784 121.664 29.8667 121.89 30.0397C122.095 30.2068 122.264 30.4154 122.385 30.6522L126.054 37.4364C126.279 37.8448 126.459 38.2305 126.617 38.5935C126.774 38.9566 126.932 39.2969 127.067 39.6599C127.202 39.2969 127.337 38.9338 127.495 38.5935C127.652 38.2532 127.832 37.8448 128.035 37.459L131.704 30.6749C131.827 30.4529 131.987 30.2536 132.176 30.085C132.396 29.8987 132.677 29.8016 132.964 29.8128H136.273L128.868 42.2238Z" fill="white"/>
<path d="M148.089 42.9265V50.0735H144.352V29.7896H150.902C152.083 29.7649 153.26 29.9257 154.391 30.2661C155.286 30.5343 156.115 30.9905 156.822 31.6047C157.46 32.1567 157.955 32.8578 158.263 33.6467C158.901 35.3595 158.893 37.2488 158.24 38.956C157.918 39.7621 157.417 40.4836 156.777 41.066C156.061 41.6904 155.226 42.1613 154.324 42.4501C153.218 42.8052 152.062 42.9737 150.902 42.9492H148.089V42.9265ZM148.089 39.977H150.88C151.491 39.9895 152.1 39.8973 152.68 39.7047C153.155 39.5484 153.593 39.2934 153.964 38.956C154.302 38.6243 154.563 38.2215 154.729 37.7761C154.907 37.2821 154.991 36.7587 154.976 36.2332C154.98 35.7309 154.897 35.2316 154.729 34.7584C154.562 34.3267 154.3 33.9388 153.964 33.624C153.6 33.298 153.17 33.0577 152.703 32.9207C152.111 32.7475 151.496 32.6633 150.88 32.6711H148.089V39.977Z" fill="white"/>
<path d="M165.622 46.9647H173.523L172.173 50.0731H161.863V29.7891H165.6L165.622 46.9647Z" fill="white"/>
<path d="M193.74 50.0742H190.836C190.553 50.086 190.274 49.9978 190.048 49.8246C189.843 49.6627 189.681 49.4523 189.575 49.2121L188.067 45.0827H179.716L178.208 49.2121C178.115 49.4408 177.968 49.6434 177.78 49.802C177.559 49.9851 177.279 50.0818 176.993 50.0742H174.066L181.99 29.7676H185.794L193.74 50.0742ZM180.707 42.4281H187.122L184.691 35.6668C184.545 35.3181 184.418 34.9622 184.308 34.6004C184.173 34.192 184.038 33.7382 183.903 33.2618C183.768 33.7382 183.633 34.192 183.52 34.6004C183.408 35.0088 183.273 35.3718 183.138 35.6894L180.707 42.4281Z" fill="white"/>
<path d="M201.505 42.2238V50.0969H197.768V42.2238L190.43 29.7901H193.739C194.022 29.7784 194.301 29.8667 194.527 30.0397C194.733 30.2068 194.901 30.4154 195.022 30.6522L198.691 37.4364C198.916 37.8448 199.096 38.2305 199.254 38.5935C199.411 38.9566 199.569 39.2969 199.704 39.6599C199.839 39.2969 199.974 38.9338 200.132 38.5935C200.289 38.2532 200.469 37.8448 200.672 37.459L204.341 30.6749C204.465 30.4529 204.624 30.2536 204.814 30.085C205.034 29.8987 205.315 29.8016 205.602 29.8128H208.91L201.505 42.2238Z" fill="white"/>
<path d="M215.887 31.8318C215.819 31.5751 215.713 31.3303 215.572 31.1058C215.44 30.8829 215.281 30.6772 215.099 30.4932C214.912 30.3151 214.708 30.1556 214.491 30.0168C214.266 29.8787 214.024 29.7718 213.771 29.6991C213.242 29.5404 212.679 29.5404 212.15 29.6991C211.895 29.7675 211.653 29.8745 211.43 30.0168C211.209 30.1499 211.005 30.31 210.822 30.4932C210.646 30.6816 210.487 30.8869 210.35 31.1058C210.212 31.3325 210.106 31.5767 210.034 31.8318C209.964 32.0984 209.926 32.3728 209.922 32.6487C209.923 32.9248 209.961 33.1995 210.034 33.4655C210.102 33.7222 210.208 33.967 210.35 34.1915C210.482 34.4144 210.64 34.6202 210.822 34.8042C211.009 34.9822 211.213 35.1418 211.43 35.2807C211.655 35.4186 211.897 35.5255 212.15 35.5983C212.415 35.6693 212.687 35.7074 212.961 35.7117C213.235 35.7106 213.507 35.6725 213.771 35.5983C214.026 35.5299 214.268 35.4228 214.491 35.2807C214.712 35.1474 214.916 34.9874 215.099 34.8042C215.275 34.6157 215.434 34.4106 215.572 34.1915C215.709 33.9649 215.815 33.7207 215.887 33.4655C215.957 33.1989 215.995 32.9246 215.999 32.6487C216.009 32.3719 215.971 32.0954 215.887 31.8318ZM210.665 31.968C210.72 31.7607 210.803 31.5622 210.912 31.378C211.014 31.1932 211.143 31.0249 211.295 30.8789C211.438 30.7244 211.606 30.5941 211.79 30.4932C211.968 30.3737 212.166 30.289 212.375 30.2437C212.587 30.1786 212.807 30.148 213.028 30.1528C213.248 30.1592 213.467 30.1896 213.681 30.2437C213.885 30.3033 214.081 30.3871 214.266 30.4932C214.441 30.609 214.606 30.738 214.761 30.8789C214.908 31.0295 215.036 31.197 215.144 31.378C215.249 31.5642 215.332 31.7623 215.392 31.968C215.456 32.1811 215.486 32.4033 215.482 32.626C215.481 32.9595 215.42 33.29 215.302 33.6017C215.177 33.8953 215.002 34.1642 214.784 34.3957C214.568 34.6224 214.307 34.8002 214.019 34.9176C213.721 35.0522 213.399 35.1218 213.073 35.1218C212.747 35.1218 212.425 35.0522 212.128 34.9176C211.848 34.7838 211.59 34.6078 211.362 34.3957C211.135 34.1623 210.956 33.8856 210.837 33.5817C210.717 33.2778 210.658 32.9529 210.665 32.626C210.608 32.4103 210.608 32.1836 210.665 31.968Z" fill="white"/>
<path d="M213.792 33.0103C213.751 32.9531 213.697 32.9065 213.634 32.8742C213.858 32.8098 214.056 32.6745 214.197 32.4884C214.324 32.3104 214.387 32.0946 214.377 31.8759C214.386 31.7294 214.36 31.5831 214.301 31.4489C214.242 31.3147 214.153 31.1966 214.04 31.1044C213.719 30.8961 213.339 30.8005 212.959 30.8321H211.699V34.3943H212.554V33.1011H212.779C212.835 33.1024 212.889 33.118 212.937 33.1464C212.977 33.1643 213.009 33.1966 213.027 33.2372L213.589 34.2808C213.613 34.3253 213.649 34.3618 213.693 34.3859C213.737 34.41 213.787 34.4208 213.837 34.417H214.647L213.927 33.1918C213.873 33.1386 213.828 33.0774 213.792 33.0103ZM213.522 32.2162C213.498 32.2842 213.46 32.3462 213.409 32.3977C213.353 32.4532 213.283 32.4925 213.207 32.5111C213.097 32.5404 212.983 32.5557 212.869 32.5565H212.509V31.5355H212.937C213.036 31.5339 213.135 31.5492 213.229 31.5808C213.297 31.5921 213.36 31.6237 213.409 31.6717C213.452 31.716 213.483 31.7706 213.499 31.8304C213.519 31.9043 213.527 31.981 213.522 32.0573C213.544 32.0573 213.544 32.1481 213.522 32.2162Z" fill="white"/>
</g>
</svg>
