<svg width="20" height="20" fill="none" xmlns="http://www.w3.org/2000/svg"><path d="M19.601 9.23c-1.286-.462-2.078-1.771-1.978-2.805 0-.17-.102-.328-.23-.44a.64.64 0 00-.496-.132c-1.96.288-3.756-1.146-3.934-3.162a.585.585 0 00-.785-.499c-1.59.582-3.09-.47-3.69-1.841a.586.586 0 00-.664-.337C3.314 1.02 0 5.377 0 10c0 5.493 4.507 10 10 10 5.492 0 10-4.507 10-10-.016-.349-.019-.634-.399-.77zm-15.49 1.4a.586.586 0 110-1.172.586.586 0 010 1.172zm2.373 4.643a1.76 1.76 0 01-1.757-1.757c0-.97.788-1.758 1.757-1.758.97 0 1.758.788 1.758 1.758a1.76 1.76 0 01-1.758 1.757zm.586-7.03A1.173 1.173 0 015.898 7.07c0-.646.526-1.172 1.172-1.172.646 0 1.172.526 1.172 1.172 0 .646-.526 1.172-1.172 1.172zm4.688 8.202a1.173 1.173 0 01-1.172-1.172c0-.646.526-1.171 1.172-1.171.646 0 1.172.525 1.172 1.171s-.526 1.172-1.172 1.172zm.586-4.687A1.76 1.76 0 0110.586 10c0-.97.788-1.758 1.758-1.758.969 0 1.758.789 1.758 1.758a1.76 1.76 0 01-1.758 1.758zm3.486 1.216a.586.586 0 110-1.172.586.586 0 010 1.172z" fill="#FFC736"/></svg>