<svg width="40" height="40" fill="none" xmlns="http://www.w3.org/2000/svg"><path d="M28.09 36.25c-.482 0-.965-.115-1.413-.35l-6.48-3.392a.421.421 0 00-.394 0l-6.475 3.389a3.024 3.024 0 01-3.201-.237 3.018 3.018 0 01-1.205-2.965l1.235-7.168a.415.415 0 00-.119-.367l-5.401-5.243a2.895 2.895 0 01-.742-2.989 2.901 2.901 0 012.358-1.988l7.47-1.08a.415.415 0 00.314-.227l3.238-6.53a3.021 3.021 0 012.723-1.688c1.164 0 2.207.647 2.724 1.688l3.236 6.529a.42.42 0 00.315.228l7.47 1.08c1.11.16 2.014.922 2.359 1.988a2.895 2.895 0 01-.742 2.989l-5.4 5.241a.412.412 0 00-.12.369l1.235 7.171a3.008 3.008 0 01-1.203 2.962c-.53.392-1.155.59-1.782.59zM20 29.96c.465 0 .932.11 1.355.332l6.48 3.391a.517.517 0 00.568-.041.507.507 0 00.21-.517l-1.235-7.173a2.912 2.912 0 01.845-2.587l5.399-5.24a.394.394 0 00.105-.423.404.404 0 00-.339-.285l-7.47-1.08a2.914 2.914 0 01-2.198-1.594l-3.235-6.526a.517.517 0 00-.483-.299.517.517 0 00-.483.299l-3.237 6.528a2.91 2.91 0 01-2.197 1.592l-7.47 1.08a.399.399 0 00-.338.285.396.396 0 00.105.423l5.4 5.242a2.91 2.91 0 01.843 2.585L11.39 33.12a.513.513 0 00.212.52.524.524 0 00.571.042l6.475-3.389A2.9 2.9 0 0120 29.96z" fill="#0BDEDE"/></svg>