<svg width="40" height="40" fill="none" xmlns="http://www.w3.org/2000/svg"><path d="M27.16 18.908a18.094 18.094 0 011.553-9.263 17.455 17.455 0 012.896-4.36c.025-.036.048-.074.068-.113a1.11 1.11 0 00.139-.233c.026-.073.044-.147.055-.224.017-.051.03-.104.038-.158.001-.018-.008-.034-.008-.053a1.136 1.136 0 00-.037-.24 1.152 1.152 0 00-.05-.204 1.15 1.15 0 00-.105-.174 1.145 1.145 0 00-.147-.2c-.013-.013-.018-.03-.031-.043a1.08 1.08 0 00-.133-.08 1.108 1.108 0 00-.207-.124 1.112 1.112 0 00-.238-.06 1.092 1.092 0 00-.148-.036c-.944-.04-9.172-.21-14.415 6.105-.023-.037-.035-.078-.059-.114a6.466 6.466 0 00-3.604-2.34 12.02 12.02 0 00-8.804.892 1.161 1.161 0 00-.47 1.526 12.05 12.05 0 006.763 5.726 8.55 8.55 0 002.519.428c.176 0 .337-.027.505-.043-.303 1.11-.5 2.247-.585 3.395a8.86 8.86 0 00-3.9 1.475 8.897 8.897 0 00-2.798 3.097 8.932 8.932 0 002.425 11.365 8.862 8.862 0 007.977 1.418 8.87 8.87 0 003.584-2.132 8.844 8.844 0 0011.572.688 8.9 8.9 0 002.626-3.252 8.932 8.932 0 00-.248-8.133 8.894 8.894 0 00-2.82-3.084 8.856 8.856 0 00-3.912-1.452zm1.117-13.13a19.666 19.666 0 00-1.664 2.885 20.383 20.383 0 00-1.774 10.28 8.743 8.743 0 00-4.898 2.423 8.84 8.84 0 00-4.962-2.43 14.527 14.527 0 012.794-7.53 15.196 15.196 0 014.68-3.89 15.146 15.146 0 015.824-1.738zM10.9 12.918a9.494 9.494 0 01-4.705-3.493 9.407 9.407 0 015.847-.21c.92.205 1.748.701 2.364 1.415a1.546 1.546 0 01.146 1.394 1.541 1.541 0 01-.905 1.066 4.37 4.37 0 01-2.747-.172zm2.86 21.424a6.55 6.55 0 01-3.647-1.11 6.583 6.583 0 01-2.418-2.957 6.609 6.609 0 011.423-7.179 6.544 6.544 0 017.155-1.428 6.57 6.57 0 012.946 2.426 6.605 6.605 0 011.107 3.66A6.606 6.606 0 0118.4 32.41a6.56 6.56 0 01-4.64 1.932zm12.358 0a6.534 6.534 0 01-4.733-2.038 8.851 8.851 0 00-.006-9.109 6.506 6.506 0 014.74-2.028c1.74 0 3.41.694 4.642 1.93a6.599 6.599 0 011.922 4.657 6.6 6.6 0 01-1.922 4.658 6.554 6.554 0 01-4.643 1.93z" fill="#0BDEDE"/></svg>