<svg width="40" height="40" fill="none" xmlns="http://www.w3.org/2000/svg"><path fill-rule="evenodd" clip-rule="evenodd" d="M11.649 3.185a1.25 1.25 0 00-1.109 1.827l2.118 4.066-.08.099c-.374.457-.885 1.09-1.437 1.794-1.085 1.384-2.39 3.117-3.075 4.306-2.259 3.917-3.328 8.025-2.646 11.687.43 2.31 1.592 4.88 3.941 6.87 2.359 1.999 5.803 3.318 10.621 3.318 4.851 0 8.31-1.47 10.662-3.527 2.333-2.04 3.499-4.591 3.899-6.652.787-4.057-.383-7.802-2.647-11.7-.688-1.184-1.99-2.915-3.075-4.3a124.832 124.832 0 00-1.434-1.795l-.081-.099 2.118-4.067a1.25 1.25 0 00-1.108-1.827H11.648zm13.408 4.8h-10.15l-1.198-2.3h12.546l-1.198 2.3zm-10.32 2.5h10.489a115.225 115.225 0 011.627 2.03c1.096 1.4 2.293 3.002 2.882 4.015 2.107 3.626 2.98 6.738 2.353 9.967-.307 1.582-1.224 3.614-3.09 5.246-1.846 1.615-4.7 2.909-9.016 2.909-4.348 0-7.183-1.181-9.005-2.725-1.832-1.552-2.754-3.565-3.1-5.42-.535-2.88.276-6.375 2.355-9.981.584-1.013 1.779-2.613 2.877-4.012a118.616 118.616 0 011.628-2.03zm4.617 10.122l2.109.531a3.741 3.741 0 012.803 3.635 3.74 3.74 0 01-2.917 3.655v.322a1.25 1.25 0 01-2.5 0v-.325a3.728 3.728 0 01-2.895-3.242 1.25 1.25 0 012.485-.275c.07.634.585 1.11 1.2 1.11h.919c.316 0 .616-.126.845-.36.235-.238.363-.553.363-.886 0-.573-.378-1.072-.922-1.212l-2.108-.531a3.72 3.72 0 01-2.03-1.342 3.769 3.769 0 01-.773-2.292 3.741 3.741 0 012.916-3.657v-.321a1.25 1.25 0 012.5 0v.325a3.728 3.728 0 012.895 3.241 1.25 1.25 0 01-2.485.276c-.07-.634-.585-1.11-1.2-1.11h-.918c-.667 0-1.208.558-1.208 1.246 0 .282.09.555.255.767.173.225.4.375.666.445z" fill="#0BDEDE"/></svg>