<svg width="40" height="40" fill="none" xmlns="http://www.w3.org/2000/svg"><path d="M21.25 13.333v6.149l2.967 2.966a1.25 1.25 0 01-1.767 1.769l-3.333-3.334A1.25 1.25 0 0118.75 20v-6.667a1.25 1.25 0 012.5 0zM20.043 3.75A16.133 16.133 0 007.917 9.24V5a1.25 1.25 0 00-2.5 0v6.667c0 .69.56 1.25 1.25 1.25h6.667a1.25 1.25 0 000-2.5h-3.079c2.554-2.632 6.055-4.167 9.79-4.167 7.557 0 13.707 6.168 13.707 13.75s-6.148 13.75-13.707 13.75c-5.25 0-9.946-2.925-12.255-7.634a1.251 1.251 0 00-2.247 1.1c2.734 5.572 8.289 9.034 14.5 9.034 8.935 0 16.207-7.29 16.207-16.25S28.98 3.75 20.043 3.75z" fill="#1DF0F0"/></svg>