<svg width="40" height="40" fill="none" xmlns="http://www.w3.org/2000/svg"><path d="M27.917 13.84v-2.173c0-4.365-3.552-7.917-7.917-7.917s-7.917 3.552-7.917 7.917v2.173c-3.23.428-5 2.57-5 6.16v10c0 4.03 2.22 6.25 6.25 6.25h13.334c4.03 0 6.25-2.22 6.25-6.25V20c0-3.588-1.77-5.73-5-6.16zM20 6.25a5.423 5.423 0 015.417 5.417v2.083H14.583v-2.083A5.423 5.423 0 0120 6.25zM30.417 30c0 2.628-1.122 3.75-3.75 3.75H13.333c-2.628 0-3.75-1.122-3.75-3.75V20c0-2.628 1.122-3.75 3.75-3.75h13.334c2.628 0 3.75 1.122 3.75 3.75v10zm-8.3-6.667c0 .687-.354 1.267-.867 1.645v3.355a1.25 1.25 0 01-2.5 0v-3.396c-.48-.382-.809-.945-.809-1.604 0-1.15.926-2.083 2.076-2.083h.016c1.15 0 2.084.933 2.084 2.083z" fill="#0BDEDE"/></svg>