<svg width="138" height="56" fill="none" xmlns="http://www.w3.org/2000/svg"><rect width="138" height="56" rx="8" fill="#fff" fill-opacity=".8"/><g clip-path="url(#clip0_16111_8268)"><path d="M46.86 40V17h1.172v23H46.86zm12.32-20.01v-.115h4.693v11.5c0 3.176-2.627 5.75-5.867 5.75s-5.867-2.574-5.867-5.75h4.694c0 .635.525 1.15 1.173 1.15s1.173-.515 1.173-1.15V19.99zm16.946 6.059c.52.55.92 1.22 1.19 1.99.267.76.402 1.619.402 2.554 0 .224-.009.428-.026.606-.024.248-.047.357-.093.45l-.13.255h-8.117c.04.182.099.355.177.514.142.295.339.561.58.785.24.222.52.397.827.517.31.123.648.185 1.009.185.71 0 1.25-.152 1.606-.452l.19-.16 3.441.939-.366.53c-.325.469-.732.885-1.21 1.236a5.783 5.783 0 01-1.635.827c-.609.2-1.29.3-2.026.3a6.712 6.712 0 01-2.4-.434 5.895 5.895 0 01-2.013-1.274 6.223 6.223 0 01-1.382-2.035c-.343-.796-.517-1.711-.517-2.72 0-.946.166-1.818.493-2.591a6.224 6.224 0 011.331-1.998 6.075 6.075 0 011.932-1.296 5.823 5.823 0 012.274-.463c.933 0 1.786.15 2.535.448a5.31 5.31 0 011.928 1.287zm-6.665 2.98h4.502a2.514 2.514 0 00-.098-.306 1.805 1.805 0 00-.421-.634 2.156 2.156 0 00-.715-.451c-.286-.115-.636-.173-1.042-.173-.355 0-.674.06-.949.18a2.24 2.24 0 00-.709.474 2.446 2.446 0 00-.568.91zm29.077-2.887a6.14 6.14 0 011.345 2.025 6.63 6.63 0 01.48 2.541c0 .913-.161 1.771-.48 2.551a6.108 6.108 0 01-1.344 2.038 6.278 6.278 0 01-2.029 1.343 6.621 6.621 0 01-2.553.485 6.648 6.648 0 01-2.54-.484 6.104 6.104 0 01-2.033-1.346 6.187 6.187 0 01-1.33-2.036 6.718 6.718 0 01-.48-2.551c0-.914.161-1.77.48-2.541a6.222 6.222 0 011.33-2.023 6.104 6.104 0 012.033-1.346 6.644 6.644 0 012.54-.484c.92 0 1.778.163 2.553.485a6.269 6.269 0 012.028 1.343zm-2.087 5.944c.151-.39.228-.854.228-1.378 0-.523-.077-.982-.227-1.364a2.777 2.777 0 00-.602-.949 2.407 2.407 0 00-.854-.559 2.92 2.92 0 00-1.04-.187c-.361 0-.71.063-1.038.187-.318.121-.604.31-.838.555a3.01 3.01 0 00-.61.96c-.156.38-.235.836-.235 1.357 0 .522.08.983.236 1.371.157.388.361.714.609.969.237.247.526.441.845.569.328.13.678.197 1.032.196.359 0 .706-.066 1.031-.196a2.54 2.54 0 00.862-.573c.25-.253.453-.575.601-.958zm16.422-4.713c.185.58.279 1.206.279 1.863v7.544h-3.66v-7.084c0-.589-.149-1.091-.441-1.492-.261-.358-.731-.532-1.437-.532-.633 0-1.09.193-1.398.589-.338.436-.503.957-.503 1.596v6.923h-3.66V24.659h3.59v.669c.249-.21.525-.386.822-.522a4.98 4.98 0 012.088-.469c.768 0 1.449.13 2.025.386.58.259 1.067.623 1.449 1.083.371.45.656.977.846 1.567zM85.31 33.598c.236-.029.303-.043.319-.047l.584-.144v3.11l-.295.115a5.218 5.218 0 01-.57.167c-.31.08-.725.12-1.27.12-1.186 0-2.142-.339-2.84-1.006-.7-.67-1.056-1.608-1.056-2.79v-5.175h-1.408v-3.289h1.407v-3.427h3.638v3.427h2.37v3.289h-2.37v4.738c0 .354.072.61.209.738.14.134.41.205.777.205.167 0 .337-.01.505-.031zm-58.95-9.055a.117.117 0 01-.148-.103.115.115 0 01.015-.065 8.744 8.744 0 015.448-4.204 8.927 8.927 0 016.863.971.116.116 0 01.056.115.114.114 0 01-.086.095l-12.149 3.19zm14.894-.855a8.52 8.52 0 011.477 5.402.116.116 0 01-.087.104l-15.865 4.165a.12.12 0 01-.129-.046 8.534 8.534 0 01-1.197-2.581 8.444 8.444 0 01-.28-2.822.116.116 0 01.087-.104l15.866-4.165a.12.12 0 01.128.047zm.291 8.77a.117.117 0 01.122.04.116.116 0 01.01.128 8.743 8.743 0 01-5.447 4.204 8.927 8.927 0 01-6.863-.972.116.116 0 01-.056-.115.114.114 0 01.085-.095l12.15-3.19z" fill="#FF6300"/></g><defs><clipPath id="clip0_16111_8268"><path fill="#fff" transform="translate(25.152 17)" d="M0 0h88v23H0z"/></clipPath></defs></svg>