<svg width="138" height="56" fill="none" xmlns="http://www.w3.org/2000/svg"><rect width="138" height="56" rx="8" fill="#fff" fill-opacity=".8"/><path fill-rule="evenodd" clip-rule="evenodd" d="M27.035 34.194h8.18V20.819h-8.18v13.375z" fill="#FF5F00"/><path fill-rule="evenodd" clip-rule="evenodd" d="M27.555 27.506c0-2.713 1.396-5.13 3.57-6.687-1.646-1.181-3.681-1.822-5.777-1.819C20.185 19 16 22.808 16 27.506s4.185 8.506 9.348 8.506c2.096.003 4.132-.638 5.777-1.819-2.174-1.557-3.57-3.974-3.57-6.687z" fill="#EB001B"/><path fill-rule="evenodd" clip-rule="evenodd" d="M45.96 32.778v-.331h-.095l-.11.227-.108-.227h-.095v.33h.066v-.25l.103.216h.07l.102-.216v.25h.067zm-.601 0v-.275h.121v-.056h-.31v.056h.122v.275h.067z" fill="#231F20"/><path fill-rule="evenodd" clip-rule="evenodd" d="M46.25 27.506c0 4.698-4.185 8.506-9.348 8.506-2.096.003-4.131-.638-5.777-1.819 2.174-1.557 3.57-3.974 3.57-6.687s-1.396-5.13-3.57-6.687c1.646-1.181 3.681-1.822 5.778-1.819 5.162 0 9.348 3.808 9.348 8.506z" fill="#F79E1B"/><path fill-rule="evenodd" clip-rule="evenodd" d="M65.27 27.746c0-.994.716-1.81 1.886-1.81 1.119 0 1.873.78 1.873 1.81s-.754 1.81-1.873 1.81c-1.17 0-1.886-.816-1.886-1.81zm5.034 0v-2.828H68.95v.686c-.43-.509-1.08-.828-1.964-.828-1.743 0-3.109 1.242-3.109 2.97 0 1.728 1.366 2.97 3.109 2.97.884 0 1.535-.32 1.964-.828v.687h1.353v-2.829zm45.68 0c0-.994.715-1.81 1.886-1.81 1.118 0 1.873.78 1.873 1.81s-.755 1.81-1.873 1.81c-1.171 0-1.886-.816-1.886-1.81zm6.547 2.56v.089h.09a.096.096 0 00.049-.011.038.038 0 00.018-.034.031.031 0 00-.004-.019.037.037 0 00-.014-.014.095.095 0 00-.049-.011h-.09zm.091-.063a.18.18 0 01.109.03.093.093 0 01.038.077.08.08 0 01-.008.037.089.089 0 01-.023.031.154.154 0 01-.086.033l.12.126h-.094l-.111-.125h-.036v.125h-.079v-.334h.17zm-.023.448a.32.32 0 00.215-.081.28.28 0 00.066-.091.25.25 0 00.023-.107.27.27 0 00-.089-.198.326.326 0 00-.215-.081.327.327 0 00-.171.045.28.28 0 00-.114.124.26.26 0 00-.024.11.27.27 0 00.089.198.319.319 0 00.22.081zm0-.639c.055 0 .107.01.156.029a.383.383 0 01.214.191.331.331 0 010 .279.392.392 0 01-.214.19.442.442 0 01-.312.002.413.413 0 01-.132-.079.363.363 0 01-.085-.113.322.322 0 010-.279.38.38 0 01.213-.191.45.45 0 01.16-.029zm-1.581-2.306v-5.1h-1.353v2.958c-.429-.509-1.08-.828-1.964-.828-1.743 0-3.109 1.242-3.109 2.97 0 1.728 1.366 2.97 3.109 2.97.884 0 1.535-.32 1.964-.828v.687h1.353v-2.829zm-33.936-1.87c.872 0 1.431.497 1.574 1.373h-3.225c.143-.817.69-1.373 1.652-1.373zm.027-1.1c-1.821 0-3.096 1.207-3.096 2.97 0 1.8 1.327 2.97 3.187 2.97.936 0 1.794-.213 2.55-.792l-.664-.912a3.15 3.15 0 01-1.808.592c-.872 0-1.665-.367-1.86-1.385h4.617c.013-.154.026-.307.026-.473-.013-1.763-1.21-2.97-2.952-2.97zm16.323 2.97c0-.994.716-1.81 1.886-1.81 1.119 0 1.873.78 1.873 1.81s-.754 1.81-1.873 1.81c-1.17 0-1.886-.816-1.886-1.81zm5.034 0v-2.828h-1.353v.686c-.429-.509-1.079-.828-1.964-.828-1.743 0-3.108 1.242-3.108 2.97 0 1.728 1.365 2.97 3.108 2.97.885 0 1.535-.32 1.964-.828v.687h1.353v-2.829zm-12.669 0c0 1.716 1.314 2.97 3.317 2.97.936 0 1.561-.189 2.237-.674l-.65-.994c-.507.332-1.04.509-1.626.509-1.08-.012-1.873-.722-1.873-1.81 0-1.09.794-1.8 1.873-1.811.585 0 1.119.177 1.626.508l.65-.994c-.676-.485-1.301-.674-2.237-.674-2.003 0-3.317 1.254-3.317 2.97zm17.429-2.97c-.78 0-1.287.331-1.638.828v-.686h-1.34v5.657h1.353v-3.172c0-.935.442-1.456 1.326-1.456.273 0 .56.036.846.142l.416-1.16a3.139 3.139 0 00-.963-.153zm-36.237.591c-.65-.39-1.547-.591-2.536-.591-1.574 0-2.588.686-2.588 1.81 0 .924.754 1.492 2.146 1.669l.637.083c.741.095 1.092.272 1.092.591 0 .438-.494.687-1.417.687-.937 0-1.613-.272-2.068-.592l-.638.959c.742.497 1.678.734 2.693.734 1.795 0 2.835-.77 2.835-1.847 0-.994-.82-1.515-2.172-1.692l-.637-.083c-.586-.07-1.054-.177-1.054-.556 0-.414.442-.663 1.184-.663.793 0 1.56.273 1.938.485l.585-.994zm17.442-.591c-.78 0-1.287.331-1.638.828v-.686h-1.34v5.657h1.353v-3.172c0-.935.442-1.456 1.327-1.456.272 0 .559.036.845.142l.416-1.16c-.3-.106-.69-.153-.963-.153zm-11.537.142h-2.21v-1.716h-1.366v1.716h-1.262v1.124h1.262v2.58c0 1.313.559 2.095 2.159 2.095.585 0 1.261-.166 1.69-.438l-.39-1.054c-.403.213-.845.32-1.196.32-.677 0-.898-.379-.898-.947v-2.556h2.211v-1.124zm-20.212 5.657v-3.55c0-1.338-.937-2.237-2.446-2.25-.793-.011-1.612.214-2.185 1.007-.429-.628-1.105-1.006-2.055-1.006-.663 0-1.314.177-1.82.84v-.698h-1.354v5.657h1.366v-3.137c0-.982.598-1.502 1.522-1.502.897 0 1.353.532 1.353 1.49v3.149h1.366v-3.137c0-.982.624-1.502 1.521-1.502.924 0 1.366.532 1.366 1.49v3.149h1.366z" fill="#000"/></svg>