<svg width="118" height="48" viewBox="0 0 118 48" fill="none" xmlns="http://www.w3.org/2000/svg">
<rect width="118" height="48" rx="6.86486" fill="white" fill-opacity="0.8"/>
<g clip-path="url(#clip0_16691_47853)">
<mask id="mask0_16691_47853" style="mask-type:luminance" maskUnits="userSpaceOnUse" x="12" y="12" width="95" height="24">
<path d="M106.796 12H12.4106V36H106.796V12Z" fill="white"/>
</mask>
<g mask="url(#mask0_16691_47853)">
<path fill-rule="evenodd" clip-rule="evenodd" d="M29.5845 23.0325C29.5845 22.7239 29.4275 22.5697 29.1137 22.5697H27.5443C27.0735 22.5697 26.9166 22.8783 26.9166 23.1868V25.9638C26.9166 26.4266 27.2304 26.5809 27.5443 26.5809H29.1137C29.2706 26.5809 29.2706 26.5809 29.4275 26.4266C29.5845 26.4266 29.5845 26.2723 29.5845 26.1181V23.0325ZM24.8765 22.7239C24.8765 21.9526 25.0334 21.4897 25.3473 21.0269C25.5042 20.8726 25.8181 20.8726 25.975 20.7183C26.2889 20.5641 26.4458 20.5641 26.7597 20.5641H29.7414C30.9969 20.5641 31.6246 21.1812 31.6246 22.5697V26.8895C31.6246 27.3523 31.4676 27.8151 30.9969 28.1237C30.683 28.4322 30.2122 28.7408 29.7414 28.7408H26.9166V31.8263H24.8765V22.7239ZM35.391 26.2723C35.391 26.2723 35.391 26.4266 35.5479 26.4266C35.5479 26.5809 35.7048 26.5809 35.8618 26.5809H37.4311C37.745 26.5809 37.9019 26.4266 38.0588 26.2723V25.6553C38.0588 25.3467 37.745 25.1924 37.4311 25.1924H35.391V26.2723ZM38.0588 23.0325C38.0588 22.7239 37.745 22.5697 37.4311 22.5697H33.3509V20.5641H37.9019C39.3143 20.5641 39.9421 21.1812 40.099 22.4154V26.7352C39.9421 27.3523 39.7851 27.8151 39.4712 28.1237C39.1574 28.5865 38.6866 28.7408 38.2157 28.7408H35.391C33.9786 28.7408 33.3509 28.1237 33.3509 26.8895V25.1924C33.3509 23.9582 33.9786 23.3411 35.234 23.1868H38.0588V23.0325ZM45.7486 29.6665C45.9055 29.6665 46.0624 29.6665 46.2193 29.5122C46.3762 29.3579 46.3762 29.3579 46.3762 29.2036V28.7408H43.7084C43.3945 28.7408 43.0807 28.5865 42.9238 28.5865C42.7669 28.4322 42.4529 28.2779 42.296 28.1237C42.1391 27.9694 41.9821 27.6609 41.8252 27.5065C41.6683 27.198 41.6683 26.8895 41.6683 26.5809V20.5641H43.7084V25.9638C43.7084 26.4266 43.8653 26.5809 44.3362 26.5809H45.7486C45.9055 26.5809 46.0624 26.5809 46.2193 26.4266C46.2193 26.4266 46.3762 26.2723 46.3762 26.1181V20.5641H48.4164V29.5122C48.4164 30.1293 48.2595 30.7464 47.9456 31.2092C47.4748 31.5178 47.004 31.8263 46.5332 31.8263H41.6683V29.6665H45.7486ZM49.9857 26.5809H53.5952C53.9091 26.5809 54.2229 26.4266 54.2229 26.2723V26.1181C54.2229 25.9638 54.2229 25.9638 54.066 25.8095C54.066 25.6553 53.9091 25.6553 53.7521 25.6553H52.0259C51.3981 25.6553 51.0843 25.5009 50.6134 25.0381C50.2996 24.7296 49.9857 24.421 49.9857 23.9582V22.4154C49.9857 21.1812 50.7704 20.5641 52.0259 20.5641H56.2631V22.5697H52.6536C52.1828 22.5697 52.0259 22.7239 52.0259 23.0325V23.1868C52.0259 23.4953 52.1828 23.4953 52.6536 23.4953H54.5367C55.0076 23.6496 55.3215 23.8039 55.7922 24.1125C56.1061 24.421 56.2631 24.8839 56.2631 25.3467V26.8895C56.2631 27.3523 56.1061 27.6609 55.6353 28.1237C55.4784 28.4322 55.3215 28.4322 55.1645 28.5865C54.8507 28.7408 54.6937 28.7408 54.2229 28.7408H49.9857V26.5809ZM59.7156 26.2723L59.8725 26.4266C60.0294 26.5809 60.1864 26.5809 60.3433 26.5809H61.9126C62.2265 26.5809 62.3834 26.4266 62.3834 26.2723V25.6553C62.3834 25.3467 62.2265 25.1924 61.9126 25.1924H59.8725C59.8725 25.3467 59.7156 25.5009 59.7156 25.6553V26.2723ZM62.3834 23.0325C62.3834 22.7239 62.2265 22.5697 61.9126 22.5697H57.6755V20.5641H62.3834C63.7958 20.5641 64.4236 21.1812 64.4236 22.4154V26.7352C64.4236 27.3523 64.2666 27.8151 63.9527 28.1237C63.6389 28.5865 63.1681 28.7408 62.5403 28.7408H59.7156C58.4601 28.7408 57.6755 28.1237 57.6755 26.8895V25.1924C57.6755 23.9582 58.4601 23.3411 59.7156 23.1868H62.3834V23.0325ZM66.1498 19.3299C66.1498 18.867 66.3067 18.4042 66.7775 17.9413C67.0914 17.6328 67.7191 17.4785 68.3469 17.4785H69.6023V19.4841H68.8177C68.3468 19.4841 68.1899 19.6384 68.1899 20.1013V20.5641H69.6023V22.5697H68.1899V28.7408H66.1498V19.3299ZM75.4089 23.0325V22.8783C75.4089 22.8783 75.4089 22.7239 75.2519 22.7239C75.2519 22.5697 75.0949 22.5697 74.938 22.5697H73.5256C73.3687 22.5697 73.2118 22.5697 73.0549 22.7239C72.8979 22.8783 72.8979 23.0325 72.8979 23.1868V23.9582L75.4089 23.0325ZM72.8979 25.9638V26.1181C72.8979 26.2723 72.8979 26.4266 73.0549 26.4266C73.0549 26.5809 73.2118 26.5809 73.3687 26.5809H77.449V28.7408H73.0549C72.5841 28.7408 72.2702 28.5865 72.1132 28.5865C71.7994 28.4322 71.6425 28.4322 71.4855 28.1237C71.1717 27.9694 71.0147 27.8151 71.0147 27.5065C70.8578 27.3523 70.8578 27.0437 70.8578 26.5809V22.4154C70.8578 21.1812 71.4855 20.5641 72.8979 20.5641H75.5658C76.8213 20.5641 77.449 21.1812 77.6059 22.5697V24.1125L72.8979 25.9638ZM81.8433 28.7408C81.5293 28.7408 81.2153 28.7408 81.0583 28.5865C80.7444 28.5865 80.4304 28.4322 80.2741 28.2779C79.9601 27.9694 79.8031 27.8151 79.6461 27.5065C79.4891 27.198 79.4891 26.8895 79.4891 26.4266V21.7983C79.6461 21.4897 79.8031 21.3355 79.9601 21.0269C80.2741 20.8726 80.4304 20.7183 80.7443 20.5641C81.0583 20.5641 81.3723 20.4098 81.6863 20.4098H84.8246V21.0269H81.6863C81.2153 21.0269 80.7444 21.0269 80.4304 21.3355C80.1171 21.4897 79.9601 21.9526 79.9601 22.5697V26.4266C79.9601 26.5809 79.9601 26.8895 80.1171 27.198C80.1171 27.3523 80.2741 27.6609 80.4304 27.8151C80.7444 27.9694 80.9013 28.1237 81.2153 28.1237C81.3723 28.1237 81.6863 28.2779 81.8433 28.2779H84.8246V28.7408H81.8433ZM92.8282 23.6496H88.7479C88.2776 23.6496 87.8067 23.8039 87.6497 24.1125C87.3357 24.421 87.1787 24.8839 87.1787 25.3467V27.198C87.3357 27.5065 87.3357 27.6609 87.6497 27.8151C87.9637 28.1237 88.2776 28.2779 88.7479 28.2779H91.259C92.3573 28.2779 92.8282 27.6609 92.8282 26.5809V23.6496ZM93.2992 26.4266V27.3523C93.1422 27.5065 93.1422 27.8151 92.8282 28.1237C92.3573 28.4322 91.887 28.7408 91.259 28.7408H88.7479C88.1207 28.7408 87.6497 28.5865 87.3357 28.1237C86.8648 27.8151 86.7078 27.198 86.7078 26.5809V25.3467C86.7078 23.9582 87.3357 23.1868 88.7479 23.1868H92.8282V22.7239C92.8282 22.2611 92.6712 21.7983 92.5142 21.4897C92.3573 21.3355 92.044 21.1812 91.887 21.0269H86.7078V20.4098H90.9451C91.259 20.4098 91.573 20.5641 91.887 20.5641C92.044 20.5641 92.2009 20.7183 92.3573 20.7183C92.5142 20.8726 92.6712 20.8726 92.8282 21.1812C93.1422 21.644 93.2992 22.1069 93.2992 22.7239V26.4266ZM98.0074 21.0269C96.7515 21.0269 96.2812 21.644 96.2812 22.7239V28.7408H95.8103V22.7239C95.8103 21.1812 96.4375 20.4098 98.0074 20.4098H98.6347V21.0269H98.0074ZM106.168 21.0269H101.617C101.303 21.0269 101.146 21.1812 100.989 21.4897C100.675 21.644 100.518 21.9526 100.518 22.1069C100.518 22.2611 100.361 22.5697 100.361 22.8783V26.5809C100.361 27.198 100.675 27.6609 100.989 27.8151C101.146 27.9694 101.46 28.1237 101.617 28.1237C101.774 28.1237 102.088 28.2779 102.401 28.2779H104.128C104.755 28.2779 105.226 28.1237 105.54 27.8151C106.011 27.5065 106.168 27.0437 106.168 26.4266V21.0269ZM106.795 26.4266C106.638 27.9694 105.854 28.7408 104.128 28.7408H102.401C101.931 28.7408 101.617 28.7408 101.303 28.5865C100.989 28.5865 100.675 28.2779 100.518 28.1237C100.205 27.8151 100.048 27.5065 100.048 27.198C99.8906 27.0437 99.8906 26.7352 99.8906 26.2723V22.8783C99.8906 21.1812 100.832 20.4098 102.401 20.4098H106.168V17.7871H106.795V26.4266Z" fill="#288FCC"/>
<path fill-rule="evenodd" clip-rule="evenodd" d="M13.3647 20.3255C13.5237 20.1717 13.6827 20.1717 13.8417 20.1717C14.1597 18.7878 15.4317 17.7115 16.8628 17.7115C18.4528 17.7115 19.7249 18.7878 19.8839 20.1717C20.3609 20.1717 20.8378 20.3255 21.1558 20.633V19.8642C20.8378 17.8652 19.0888 16.1738 16.8628 16.1738C14.6367 16.1738 12.7287 17.8652 12.5696 20.1717V20.633C12.8877 20.4793 13.0467 20.3255 13.3647 20.3255ZM19.4068 20.633H14.3187C14.0007 20.633 13.8417 20.633 13.5237 20.7867C13.2057 20.9405 13.0467 20.9405 12.8877 21.0943C12.5696 21.5556 12.4106 22.0169 12.4106 22.7857V26.6298C12.4106 27.2449 12.5696 27.8599 12.8877 28.1675C13.0467 28.3212 13.2057 28.475 13.5237 28.6287C13.8417 28.6287 14.0007 28.7825 14.3187 28.7825H19.4068C20.6788 28.7825 21.3149 28.0137 21.3149 26.6298V22.6319C21.3149 21.2481 20.6788 20.633 19.4068 20.633Z" fill="#C32728"/>
</g>
</g>
<defs>
<clipPath id="clip0_16691_47853">
<rect width="95" height="24" fill="white" transform="translate(12 12)"/>
</clipPath>
</defs>
</svg>
