<svg width="24" height="24" fill="none" xmlns="http://www.w3.org/2000/svg"><path d="M12 24c6.627 0 12-5.373 12-12S18.627 0 12 0 0 5.373 0 12s5.373 12 12 12z" fill="url(#paint0_linear_17287_247362)"/><mask id="a" style="mask-type:alpha" maskUnits="userSpaceOnUse" x="0" y="0" width="24" height="24"><path d="M12 24c6.627 0 12-5.373 12-12S18.627 0 12 0 0 5.373 0 12s5.373 12 12 12z" fill="url(#paint1_linear_17287_247362)"/></mask><g mask="url(#a)"><path d="M7.713 10.34H3.532a.531.531 0 01-.379-.901l4.234-4.281A.532.532 0 017.766 5h2.09a.532.532 0 01.476.767l-2.144 4.28a.532.532 0 01-.475.294z" fill="url(#paint2_linear_17287_247362)"/><path d="M20.468 10.34h-4.18a.532.532 0 01-.476-.293l-2.144-4.28A.529.529 0 0114.143 5h2.091c.142 0 .279.057.378.158l4.235 4.28a.529.529 0 01-.379.903z" fill="url(#paint3_linear_17287_247362)"/><path d="M7.119 9.797L9.857 5h4.287l2.73 4.797H7.119z" fill="url(#paint4_linear_17287_247362)"/><path d="M15.712 9.797l-4.198 9.459A.53.53 0 0012 20a.532.532 0 00.4-.181l8.469-9.66a.53.53 0 00.13-.362h-5.287z" fill="url(#paint5_linear_17287_247362)"/><path d="M8.288 9.797H3c-.003.13.042.26.131.363l8.469 9.659a.532.532 0 00.886-.563L8.288 9.797z" fill="url(#paint6_linear_17287_247362)"/><path d="M7.118 9.797l4.396 9.887a.531.531 0 00.972 0l4.388-9.887H7.118z" fill="url(#paint7_linear_17287_247362)"/><path d="M11.996 9.797h4.877L14.143 5h-2.147v4.797z" fill="url(#paint8_linear_17287_247362)"/><path opacity=".6" d="M12 20c.21 0 .4-.124.486-.316l4.387-9.887H12V20z" fill="url(#paint9_linear_17287_247362)"/></g><defs><linearGradient id="paint0_linear_17287_247362" x1="12" y1="0" x2="12" y2="24" gradientUnits="userSpaceOnUse"><stop stop-color="#00FFC2"/><stop offset=".455" stop-color="#2882ED"/><stop offset="1" stop-color="#8000FF"/></linearGradient><linearGradient id="paint1_linear_17287_247362" x1="12" y1="0" x2="12" y2="24" gradientUnits="userSpaceOnUse"><stop stop-color="#00E0FF"/><stop offset="1" stop-color="#8000FF"/></linearGradient><linearGradient id="paint2_linear_17287_247362" x1="6.694" y1="5" x2="4.719" y2="10.344" gradientUnits="userSpaceOnUse"><stop stop-color="#9FFFEE"/><stop offset="1" stop-color="#7EF7F0"/></linearGradient><linearGradient id="paint3_linear_17287_247362" x1="17.306" y1="5" x2="17.306" y2="10.341" gradientUnits="userSpaceOnUse"><stop stop-color="#3FFCBB"/><stop offset="1" stop-color="#32F8F8"/></linearGradient><linearGradient id="paint4_linear_17287_247362" x1="11.996" y1="5" x2="11.996" y2="9.797" gradientUnits="userSpaceOnUse"><stop stop-color="#38FCD9"/><stop offset="1" stop-color="#B4FFED"/></linearGradient><linearGradient id="paint5_linear_17287_247362" x1="18.298" y1="9.797" x2="12.452" y2="19.167" gradientUnits="userSpaceOnUse"><stop offset=".008" stop-color="#42CFE2"/><stop offset="1" stop-color="#3A4BE8"/></linearGradient><linearGradient id="paint6_linear_17287_247362" x1="5.794" y1="9.797" x2="11.793" y2="20.015" gradientUnits="userSpaceOnUse"><stop stop-color="#4FF2E8"/><stop offset="1" stop-color="#184FB9"/></linearGradient><linearGradient id="paint7_linear_17287_247362" x1="11.996" y1="12.823" x2="11.996" y2="20.379" gradientUnits="userSpaceOnUse"><stop offset=".008" stop-color="#1CECEC"/><stop offset="1" stop-color="#4C3ADE"/></linearGradient><linearGradient id="paint8_linear_17287_247362" x1="15.293" y1="6.635" x2="12.002" y2="8.815" gradientUnits="userSpaceOnUse"><stop stop-color="#5FFFE2"/><stop offset="1" stop-color="#BCFFEF"/></linearGradient><linearGradient id="paint9_linear_17287_247362" x1="14.436" y1="12.823" x2="14.436" y2="20.379" gradientUnits="userSpaceOnUse"><stop offset=".008" stop-color="#0BDEDE"/><stop offset="1" stop-color="#19099D"/></linearGradient></defs></svg>