<svg width="138" height="56" fill="none" xmlns="http://www.w3.org/2000/svg"><rect width="138" height="56" rx="8" fill="#fff" fill-opacity=".8"/><path fill-rule="evenodd" clip-rule="evenodd" d="M33.23 25.046c0 6.797 8.607 6.457 9.94 6.91 1.697.567 1.576 3.399-2.303 3.399-2.06 0-3.758-.226-5.697-.793-.485-.113-.97-.34-1.455-.453v5.098c1.455.68 6.425.793 8.485.793 5.333 0 10.182-3.399 8.849-8.497-1.334-5.551-9.091-4.985-10.182-5.551-1.334-.567-1.334-2.153.121-2.72 1.94-.792 5.818 0 7.758.567.606.227 1.212.454 1.697.567v-4.872c-.849-.226-1.334-.453-3.03-.793-2.425-.453-3.395-.453-5.819-.453-4.364 0-8.364 2.719-8.364 6.797z" fill="#852164"/><path fill-rule="evenodd" clip-rule="evenodd" d="M52.746 19.381v20.392h6.303v-6.117c.121.226 0 .113.121.34l.606 1.02c.243.452.485.906.727 1.472.243.566.97 2.606.97 3.285h7.636c-.12-.226-.242-.68-.363-1.02l-1.455-3.058c-3.03-5.778-2.424-2.72.243-7.59.485-.68 1.818-3.286 1.94-4.192h-7.152c-.243 1.133-2.546 4.871-3.273 5.438V18.248c-1.212 0-5.334 1.133-6.303 1.133z" fill="#852065"/><path fill-rule="evenodd" clip-rule="evenodd" d="M90.442 19.268v20.505h6.06V18.248c-.969 0-4.727.906-6.06 1.02z" fill="#862064"/><path fill-rule="evenodd" clip-rule="evenodd" d="M99.17 19.268v20.505h6.061V18.248c-.728 0-5.334 1.02-6.061 1.02z" fill="#852164"/><path fill-rule="evenodd" clip-rule="evenodd" d="M70.2 30.708v9.064h6.06v-6.798c0-3.172.486-4.418 3.88-4.418v-4.759c-1.091 0-.122-.113-1.94 0-1.818.227-3.151.227-5.09 1.36-1.698 1.02-2.91 2.945-2.91 5.551z" fill="#862164"/><path fill-rule="evenodd" clip-rule="evenodd" d="M81.958 39.773h6.06V24.025h-6.06v15.748z" fill="#852164"/><path fill-rule="evenodd" clip-rule="evenodd" d="M82.079 19.606c0 .907.12 1.473.848 2.153 2.667 2.492 6.91-1.246 4.121-3.965-1.818-1.813-4.97-.227-4.97 1.812z" fill="#862165"/></svg>