<svg width="25" height="24" fill="none" xmlns="http://www.w3.org/2000/svg"><path d="M8.834 12a3.667 3.667 0 117.333 0 3.667 3.667 0 01-7.333 0zm-1.982 0a5.648 5.648 0 1011.297 0 5.648 5.648 0 00-11.297 0zm10.2-5.872a1.32 1.32 0 101.321-1.32 1.32 1.32 0 00-1.32 1.32zM8.057 20.954c-1.072-.05-1.655-.228-2.043-.379-.513-.2-.88-.438-1.265-.822a3.394 3.394 0 01-.823-1.265c-.15-.387-.33-.97-.378-2.043-.053-1.16-.064-1.507-.064-4.445 0-2.937.011-3.285.064-4.445.049-1.073.229-1.655.378-2.043.2-.514.438-.88.823-1.265a3.39 3.39 0 011.265-.823c.388-.151.97-.33 2.043-.378 1.16-.054 1.508-.064 4.444-.064 2.937 0 3.285.011 4.446.064 1.072.048 1.654.228 2.043.378.513.199.88.438 1.265.823.385.385.623.751.823 1.265.15.387.33.97.378 2.043.054 1.16.064 1.508.064 4.445 0 2.938-.01 3.285-.064 4.445-.048 1.073-.228 1.656-.378 2.043-.2.514-.438.88-.823 1.265a3.419 3.419 0 01-1.265.822c-.387.151-.97.33-2.043.379-1.16.053-1.508.064-4.446.064-2.937 0-3.285-.01-4.444-.064zm-.09-19.887c-1.172.053-1.972.239-2.67.51a5.396 5.396 0 00-1.95 1.27 5.375 5.375 0 00-1.268 1.948c-.272.7-.458 1.499-.511 2.67C1.512 8.638 1.5 9.013 1.5 12s.012 3.362.067 4.535c.053 1.171.239 1.97.51 2.67.281.723.657 1.338 1.27 1.949a5.409 5.409 0 001.948 1.268c.7.272 1.5.458 2.67.511C9.14 22.987 9.513 23 12.5 23c2.988 0 3.363-.012 4.536-.067 1.17-.053 1.97-.239 2.67-.51a5.411 5.411 0 001.948-1.27 5.39 5.39 0 001.27-1.948c.271-.7.458-1.499.51-2.67.054-1.174.066-1.548.066-4.535s-.012-3.362-.066-4.535c-.053-1.171-.239-1.971-.51-2.67a5.409 5.409 0 00-1.27-1.949 5.383 5.383 0 00-1.947-1.268c-.7-.272-1.5-.459-2.67-.511C15.864 1.013 15.489 1 12.5 1c-2.987 0-3.362.012-4.536.067z" fill="#fff"/></svg>