<svg width="142" height="33" fill="none" xmlns="http://www.w3.org/2000/svg"><g clip-path="url(#clip0_13711_1355)"><path fill-rule="evenodd" clip-rule="evenodd" d="M82.39 12.017l-5.23-1.023 2.97-4.485-5.23 1.067 1.054-5.29L71.52 5.29 70.487 0 67.54 4.507 64.612 0 63.6 5.29l-4.434-3.004 1.055 5.29-5.23-1.067 2.97 4.485-5.23 1.023L57.186 15l-4.455 2.983 5.23 1.023-2.97 4.485 5.23-1.067-1.055 5.29L63.6 24.71 64.612 30l2.948-4.506L70.51 30l1.033-5.29 4.434 3.004-1.055-5.29 5.23 1.067-2.992-4.485 5.23-1.023L77.934 15l4.455-2.983zM75.695 15c0 4.55-3.638 8.23-8.136 8.23a8.226 8.226 0 01-3.508-.806l1.098-4.659h2.668l.267-.012c.83-.035 1.63-.07 2.467-.423 1.55-.675 2.669-2.134 2.669-4.137 0-.827-.194-1.654-.667-2.307-.969-1.263-2.454-1.35-3.358-1.372h-5.23l-2.432 10.994c-1.291-1.459-2.11-3.374-2.11-5.508 0-4.55 3.638-8.23 8.136-8.23 4.498 0 8.136 3.68 8.136 8.23zm-7.555-3.31H66.55l-.861 3.833h2.152l.078-.004c.45-.02.919-.04 1.407-.41.581-.414.882-1.154.882-1.807 0-1.502-1.27-1.611-2.066-1.611zM23.977 9.47l1.119 11.234h-2.239l-.215-2.656H19.07l-1.291 2.656h-2.41l5.79-11.234h2.819zm-19.091.044c1.226 0 2.152.26 2.776.805.624.544.947 1.372.926 2.46 0 1.22-.43 2.2-1.292 2.896-.84.696-2.023 1.045-3.53 1.045h-.645l-.818 3.984H0l2.346-11.19h2.54zm-.087 1.937h-.56l-.71 3.31h.431c.732 0 1.291-.175 1.7-.523.41-.348.625-.827.625-1.415 0-.915-.495-1.372-1.486-1.372zm9.75 9.253l.41-1.96h-3.875l1.937-9.23h-2.324L8.35 20.704h6.198zm5.489-4.66l1.42-2.938c.323-.675.603-1.328.818-1.938v.283c0 .632.022 1.263.086 1.938l.194 2.678-2.518-.022zm13.667-4.55h-2.67l-1.915 9.21h-2.303l1.916-9.21h-2.669l.409-1.98h7.64l-.408 1.98zm1.722 9.21l2.367-11.19h-2.303l-2.367 11.19h2.303zm11.665-11.19h2.066l-2.346 11.168H44.23l-2.69-8.469h-.044l-.022.24a49.27 49.27 0 01-.494 2.96l-1.098 5.269h-2.088l2.346-11.19h2.69l2.583 8.25h.022c.037-.224.088-.499.15-.828l.151-.826c.13-.718.581-2.895 1.356-6.574zM92.72 11.45c.345.087.797.305 1.335.588l.882-1.916c-.56-.304-1.076-.522-1.57-.631a7.811 7.811 0 00-1.68-.174c-1.14 0-2.152.283-3.034.87-.883.588-1.572 1.438-2.11 2.57-.538 1.132-.796 2.35-.796 3.7 0 1.394.366 2.483 1.076 3.244.71.762 1.7 1.154 2.992 1.154a8.347 8.347 0 003.035-.588v-1.98c-.969.391-1.83.587-2.562.587-.753 0-1.313-.196-1.657-.61-.344-.413-.516-1.044-.516-1.893 0-.915.172-1.786.473-2.591.301-.806.753-1.415 1.291-1.829a2.865 2.865 0 011.787-.61 3.48 3.48 0 011.054.11zm10.374 9.253L101.975 9.47h-2.82l-5.79 11.234h2.412l1.29-2.656h3.574l.215 2.656h2.238zm-3.616-7.598l-1.42 2.939 2.518.022-.194-2.678a20.227 20.227 0 01-.086-1.938v-.283c-.215.61-.495 1.263-.818 1.938zm10.956 2.569c-.302-.5-.754-.936-1.378-1.35-.581-.392-.947-.696-1.119-.914-.172-.24-.258-.5-.258-.806 0-.37.129-.675.409-.914.258-.24.602-.348 1.033-.348.667 0 1.399.196 2.174.566l.817-1.786a6.14 6.14 0 00-3.013-.762c-.753 0-1.42.153-2.001.436a3.047 3.047 0 00-1.335 1.219c-.323.523-.473 1.11-.473 1.764 0 .566.15 1.11.43 1.589.28.5.775 1.001 1.464 1.502.495.37.818.631.947.784.129.152.215.304.301.457.065.174.108.348.108.588 0 .37-.151.675-.474.892-.323.218-.753.327-1.334.327-.84 0-1.744-.283-2.712-.828v2.09c.689.458 1.571.697 2.69.697 1.27 0 2.282-.305 3.035-.936.753-.61 1.119-1.459 1.119-2.525.022-.675-.129-1.263-.43-1.742zm6.263-6.161l-2.368 11.19h-2.303l2.368-11.19h2.303zm11.084 0h-2.088c-.775 3.68-1.227 5.856-1.356 6.575-.055.306-.106.58-.152.826-.061.329-.112.604-.149.828h-.022l-2.582-8.25h-2.712l-2.346 11.19h2.087l1.098-5.27c.172-.87.344-1.85.495-2.96l.022-.24h.043l2.69 8.47h2.583l2.389-11.17zm6.069-.196c1.292 0 2.282.37 2.992 1.11.71.74 1.076 1.764 1.033 3.07 0 1.437-.258 2.743-.753 3.875-.495 1.154-1.184 2.003-2.045 2.59-.861.588-1.872.872-2.992.872-1.291 0-2.281-.37-3.013-1.133-.71-.762-1.076-1.807-1.076-3.135 0-1.35.258-2.59.753-3.722.495-1.132 1.184-2.003 2.067-2.613.86-.61 1.894-.914 3.034-.914zm1.206 2.59c.323.393.495.959.495 1.677a8.512 8.512 0 01-.431 2.743c-.279.806-.667 1.437-1.183 1.872-.495.436-1.055.675-1.679.675-.603 0-1.076-.196-1.421-.566-.344-.392-.495-.958-.495-1.698 0-.958.151-1.829.431-2.656.28-.805.688-1.459 1.205-1.916.517-.457 1.076-.696 1.679-.696.602-.022 1.076.174 1.399.566zm4.046-.522h-.387l.323-1.546h-.431l.065-.326h1.27l-.065.326h-.452l-.323 1.546zm2.411-1.872l-.689 1.393-.086-1.393h-.517l-.387 1.872h.344c.072-.36.13-.634.171-.83.034-.158.057-.265.066-.324l.013-.078c.017-.096.03-.175.03-.227l.086 1.437h.366l.71-1.437c-.043.175-.086.349-.129.566l-.172.893h.344l.388-1.872h-.538z" fill="#fff"/></g><defs><clipPath id="clip0_13711_1355"><path fill="#fff" d="M0 0h142v33H0z"/></clipPath></defs></svg>