<svg width="160" height="80" viewBox="0 0 160 80" fill="none" xmlns="http://www.w3.org/2000/svg">
<path d="M39.6924 53.0756H47.538V62.3511C46.4045 63.1702 45.2043 63.7789 43.9263 64.1442C42.6484 64.5205 41.3149 64.6976 39.9258 64.6976C38.1144 64.6976 36.4586 64.4098 34.9696 63.8453C33.4805 63.2809 32.2026 62.495 31.1469 61.4988C30.0911 60.5026 29.2688 59.3183 28.691 57.9457C28.1131 56.5733 27.8242 55.079 27.8242 53.4741C27.8242 51.8359 28.102 50.3306 28.6466 48.9581C29.1911 47.5855 29.9689 46.4012 30.9802 45.405C31.9914 44.4089 33.2249 43.6341 34.6584 43.0807C36.092 42.5272 37.7033 42.2505 39.4813 42.2505C40.4036 42.2505 41.2593 42.328 42.0705 42.4719C42.8818 42.6268 43.6263 42.826 44.3042 43.0917C44.982 43.3573 45.6043 43.6673 46.1711 44.0214C46.7378 44.3868 47.2379 44.7741 47.6824 45.1947L46.2044 47.4417C45.9711 47.7958 45.671 48.0061 45.3043 48.0947C44.9376 48.1722 44.5376 48.0837 44.1153 47.818C43.7152 47.5745 43.3262 47.3642 42.9707 47.1871C42.615 47.01 42.2484 46.8661 41.8705 46.7555C41.4927 46.6448 41.1038 46.5673 40.6926 46.5119C40.2814 46.4566 39.8147 46.4345 39.3035 46.4345C38.3479 46.4345 37.481 46.6004 36.7143 46.9435C35.9475 47.2756 35.2918 47.7516 34.7584 48.3715C34.2139 48.9802 33.8028 49.7218 33.5138 50.5851C33.2249 51.4485 33.0804 52.4004 33.0804 53.452C33.0804 54.6141 33.2472 55.6546 33.5694 56.5622C33.8917 57.4698 34.3473 58.2336 34.9363 58.8534C35.5252 59.4732 36.2364 59.9492 37.0587 60.2813C37.8811 60.6022 38.7923 60.7683 39.7924 60.7683C40.4036 60.7683 40.9704 60.7129 41.4704 60.5912C41.9705 60.4694 42.4595 60.3144 42.9262 60.1041V56.7725H40.7482C40.4258 56.7725 40.1703 56.684 39.9925 56.5179C39.8147 56.3519 39.7147 56.1305 39.7147 55.8649V53.0756H39.6924Z" fill="white"/>
<path d="M70.4195 64.4543H66.4525C66.0075 64.4543 65.6525 64.3546 65.3741 64.1443C65.0965 63.934 64.8963 63.6795 64.7524 63.3474L63.452 59.5176H55.062L53.7729 63.3585C53.6618 63.6351 53.4618 63.8898 53.1729 64.1222C52.8839 64.3436 52.5283 64.4653 52.1061 64.4653H48.1055L56.64 42.4941H61.8848L70.4195 64.4543ZM62.2962 56.0642L60.2513 50.054C60.0956 49.6777 59.94 49.2239 59.7625 48.7036C59.596 48.1834 59.4185 47.63 59.2511 47.0212C59.0955 47.63 58.9407 48.2055 58.7624 48.7258C58.5958 49.246 58.4292 49.6998 58.2736 50.0872L56.2624 56.0642H62.2962Z" fill="white"/>
<path d="M96.9555 42.4941V64.4653H92.4443V51.825C92.4443 51.5372 92.4552 51.2162 92.4661 50.8731C92.4771 50.53 92.5107 50.1869 92.5444 49.8326L86.688 61.1226C86.5097 61.4768 86.2657 61.7425 85.9545 61.9195C85.6433 62.0966 85.2984 62.1963 84.8988 62.1963H84.1981C83.8095 62.1963 83.4537 62.1077 83.1424 61.9195C82.8312 61.7425 82.5872 61.4768 82.4089 61.1226L76.5526 49.7994C76.5862 50.1647 76.6089 50.5189 76.6308 50.862C76.6527 51.2051 76.6645 51.5261 76.6645 51.8139V64.4432H72.1523V42.4941H76.0529C76.275 42.4941 76.4643 42.4941 76.6308 42.5052C76.7974 42.5163 76.942 42.5495 77.075 42.5937C77.2087 42.6381 77.3197 42.7266 77.4308 42.8262C77.5418 42.9369 77.6419 43.0808 77.742 43.269L83.4427 54.415C83.6429 54.8024 83.8431 55.1898 84.0206 55.6104C84.2099 56.02 84.3874 56.4406 84.5539 56.8723C84.7205 56.4296 84.9098 55.9979 85.0872 55.5773C85.2765 55.1567 85.4767 54.7582 85.6879 54.3707L91.344 43.269C91.4441 43.0808 91.5442 42.9258 91.6552 42.8262C91.7663 42.7155 91.8773 42.6381 92.0102 42.5937C92.1439 42.5384 92.2886 42.5163 92.4552 42.5052C92.6217 42.4941 92.811 42.4941 93.0331 42.4941H96.9555Z" fill="white"/>
<path d="M106.367 46.4125V51.5372H113.302V55.3116H106.367V60.5471H115.424V64.4653H101.223V42.4941H115.424V46.4125H106.367Z" fill="white"/>
<path d="M130.761 46.9549C130.605 47.1984 130.45 47.3755 130.283 47.4973C130.116 47.619 129.905 47.6744 129.639 47.6744C129.405 47.6744 129.161 47.5969 128.894 47.453C128.628 47.3091 128.327 47.1431 127.982 46.966C127.649 46.7889 127.261 46.6229 126.827 46.479C126.393 46.3351 125.894 46.2576 125.338 46.2576C124.382 46.2576 123.66 46.4569 123.193 46.8664C122.727 47.2759 122.493 47.8183 122.493 48.5156C122.493 48.9584 122.637 49.3236 122.915 49.6114C123.193 49.8992 123.571 50.1538 124.026 50.3641C124.482 50.5744 125.016 50.7737 125.604 50.9396C126.193 51.1168 126.794 51.316 127.416 51.5263C128.027 51.7477 128.638 51.9912 129.227 52.29C129.816 52.5778 130.339 52.9541 130.805 53.4079C131.261 53.8617 131.639 54.4151 131.917 55.0571C132.194 55.7102 132.339 56.485 132.339 57.4037C132.339 58.422 132.161 59.3739 131.806 60.2483C131.45 61.1339 130.938 61.9086 130.272 62.5617C129.605 63.2147 128.771 63.735 127.794 64.1113C126.805 64.4876 125.694 64.6757 124.438 64.6757C123.749 64.6757 123.049 64.6094 122.337 64.4655C121.626 64.3216 120.937 64.1223 120.27 63.8678C119.604 63.6132 118.982 63.3033 118.393 62.9602C117.803 62.6059 117.293 62.2186 116.859 61.7869L118.37 59.4072C118.492 59.2411 118.648 59.0972 118.848 58.9755C119.048 58.8648 119.259 58.7984 119.492 58.7984C119.793 58.7984 120.104 58.898 120.404 59.0862C120.715 59.2743 121.059 59.4846 121.449 59.717C121.838 59.9495 122.282 60.1598 122.793 60.3479C123.293 60.5361 123.893 60.6357 124.582 60.6357C125.516 60.6357 126.227 60.4365 126.749 60.0269C127.261 59.6175 127.516 58.9755 127.516 58.0899C127.516 57.5808 127.372 57.1602 127.094 56.8392C126.816 56.5182 126.438 56.2525 125.982 56.0422C125.527 55.832 125.005 55.6438 124.416 55.4888C123.827 55.3228 123.226 55.1457 122.616 54.9575C122.004 54.7583 121.404 54.5258 120.815 54.2381C120.226 53.9503 119.703 53.574 119.248 53.1091C118.792 52.6442 118.415 52.0576 118.137 51.3602C117.859 50.663 117.715 49.7996 117.715 48.7702C117.715 47.9511 117.881 47.1431 118.215 46.3573C118.548 45.5713 119.037 44.8741 119.682 44.2652C120.326 43.6565 121.115 43.1584 122.06 42.7932C122.993 42.4279 124.071 42.2397 125.282 42.2397C125.96 42.2397 126.615 42.2951 127.261 42.3947C127.905 42.4943 128.505 42.6603 129.083 42.8595C129.661 43.0698 130.194 43.3134 130.694 43.6011C131.194 43.889 131.639 44.21 132.039 44.5752L130.761 46.9549Z" fill="white"/>
<path d="M13.1122 15.2329C14.6346 15.2329 15.9348 15.3768 17.0016 15.6535C18.0684 15.9302 18.9463 16.3286 19.6242 16.8489C20.3021 17.3691 20.791 17.989 21.1021 18.7195C21.4133 19.45 21.5689 20.2691 21.5689 21.1767C21.5689 21.6748 21.5022 22.1397 21.3578 22.6046C21.2133 23.0584 20.991 23.4901 20.691 23.8885C20.3909 24.287 20.002 24.6522 19.5242 24.9843C19.0464 25.3164 18.4796 25.6041 17.8128 25.8477C19.2686 26.2019 20.3354 26.7664 21.0355 27.5522C21.7355 28.3381 22.0801 29.3564 22.0801 30.5961C22.0801 31.5259 21.9023 32.4003 21.5355 33.2083C21.1688 34.0163 20.6354 34.7137 19.9353 35.3113C19.2352 35.9091 18.3684 36.3739 17.335 36.717C16.3015 37.0491 15.1347 37.2262 13.8123 37.2262H5V15.2329H13.1122ZM10.1118 19.0516V24.4752H12.7789C13.3456 24.4752 13.8568 24.4309 14.3123 24.3534C14.768 24.2759 15.1569 24.1321 15.468 23.9328C15.7903 23.7336 16.0237 23.4568 16.1904 23.1027C16.3571 22.7485 16.4349 22.3058 16.4349 21.7744C16.4349 21.2542 16.3682 20.8225 16.2349 20.4684C16.1015 20.1252 15.9014 19.8374 15.6348 19.6271C15.3569 19.4168 15.0125 19.2619 14.6013 19.1733C14.179 19.0848 13.69 19.0405 13.1122 19.0405H10.1118V19.0516ZM13.7122 33.3632C14.3902 33.3632 14.9458 33.2747 15.368 33.1087C15.8014 32.9426 16.1348 32.7213 16.3793 32.4446C16.6237 32.1678 16.7905 31.869 16.8794 31.5259C16.9683 31.1827 17.0127 30.8396 17.0127 30.4854C17.0127 30.087 16.9572 29.7217 16.8572 29.4007C16.7461 29.0797 16.5682 28.803 16.3126 28.5816C16.057 28.3603 15.7126 28.1942 15.2903 28.0725C14.868 27.9507 14.3345 27.8954 13.69 27.8954H10.1118V33.3632H13.7122Z" fill="white"/>
<path d="M99.3696 15.2329V37.2041H94.8583V24.5748C94.8583 24.287 94.8692 23.966 94.8802 23.6229C94.892 23.2798 94.9248 22.9367 94.9584 22.5824L89.1021 33.8724C88.9238 34.2266 88.6798 34.4923 88.3686 34.6693C88.0573 34.8465 87.7124 34.9461 87.3129 34.9461H86.613C86.2235 34.9461 85.8677 34.8575 85.5573 34.6693C85.2461 34.4923 85.0013 34.2266 84.8238 33.8724L78.9675 22.5492C79.0003 22.9145 79.023 23.2687 79.0449 23.6118C79.0676 23.9549 79.0785 24.2759 79.0785 24.5638V37.193H74.5664V15.2329H78.467C78.6891 15.2329 78.8783 15.2329 79.0449 15.2439C79.2114 15.255 79.3561 15.2883 79.4899 15.3325C79.6228 15.3879 79.7338 15.4653 79.8449 15.5649C79.9559 15.6756 80.056 15.8196 80.1561 16.0077L85.8349 27.1538C86.0351 27.5412 86.2345 27.9286 86.4128 28.3492C86.6012 28.7587 86.7796 29.1793 86.9461 29.611C87.1127 29.1682 87.3019 28.7366 87.4794 28.3159C87.6687 27.8954 87.8681 27.4969 88.0792 27.1095L93.7362 16.0077C93.8363 15.8196 93.9355 15.6645 94.0474 15.5649C94.1584 15.4542 94.2695 15.3768 94.4024 15.3325C94.5361 15.2772 94.6808 15.255 94.8474 15.2439C95.0139 15.2329 95.2024 15.2329 95.4253 15.2329H99.3696Z" fill="white"/>
<path d="M108.793 37.2036H103.648V15.2324H108.793V37.2036Z" fill="white"/>
<path d="M132.308 15.2324V37.2036H129.641C129.252 37.2036 128.919 37.1371 128.652 37.0154C128.386 36.8937 128.118 36.6723 127.851 36.3624L117.45 23.2572C117.495 23.6445 117.517 24.032 117.528 24.3972C117.539 24.7625 117.55 25.1056 117.55 25.4266V37.2036H113.039V15.2324H115.728C115.95 15.2324 116.139 15.2434 116.284 15.2656C116.439 15.2878 116.573 15.3209 116.695 15.3763C116.817 15.4316 116.928 15.5091 117.039 15.6088C117.151 15.7084 117.273 15.8412 117.417 16.0183L127.907 29.2121C127.851 28.7914 127.819 28.3819 127.796 27.9834C127.774 27.585 127.763 27.2086 127.763 26.8655V15.2434H132.308V15.2324Z" fill="white"/>
<path d="M147.173 25.8251H155.019V35.1006C153.885 35.9197 152.685 36.5284 151.407 36.8937C150.129 37.27 148.796 37.4471 147.407 37.4471C145.595 37.4471 143.939 37.1593 142.451 36.5948C140.961 36.0304 139.683 35.2445 138.627 34.2483C137.572 33.2521 136.75 32.0678 136.172 30.6953C135.594 29.3228 135.305 27.8285 135.305 26.2236C135.305 24.5854 135.582 23.0801 136.127 21.7076C136.672 20.335 137.45 19.1507 138.461 18.1545C139.472 17.1584 140.706 16.3836 142.139 15.8302C143.573 15.2768 145.184 15 146.962 15C147.885 15 148.74 15.0775 149.551 15.2214C150.363 15.3763 151.107 15.5755 151.785 15.8412C152.462 16.1068 153.085 16.4168 153.652 16.7709C154.219 17.1363 154.718 17.5236 155.163 17.9442L153.685 20.2022C153.452 20.5564 153.152 20.7667 152.785 20.8553C152.419 20.9328 152.018 20.8442 151.596 20.5786C151.196 20.335 150.807 20.1248 150.451 19.9477C150.096 19.7705 149.729 19.6267 149.351 19.516C148.973 19.4053 148.584 19.3278 148.173 19.2725C147.762 19.2171 147.295 19.195 146.784 19.195C145.829 19.195 144.961 19.361 144.195 19.7042C143.428 20.0362 142.773 20.5122 142.239 21.132C141.694 21.7408 141.284 22.4823 140.994 23.3457C140.706 24.209 140.561 25.161 140.561 26.2125C140.561 27.3747 140.728 28.4151 141.05 29.3228C141.372 30.2304 141.828 30.9941 142.417 31.614C143.006 32.2338 143.717 32.7098 144.539 33.0418C145.362 33.3628 146.273 33.5289 147.273 33.5289C147.885 33.5289 148.451 33.4735 148.951 33.3517C149.451 33.23 149.94 33.075 150.406 32.8648V29.5331H148.229C147.906 29.5331 147.651 29.4445 147.473 29.2785C147.295 29.1125 147.196 28.8911 147.196 28.6254V25.8251H147.173Z" fill="white"/>
<path d="M67.0883 27.3086C66.4667 30.6624 63.5326 33.0864 60.1098 33.0864C60.0543 33.0864 59.9988 33.0864 59.9542 33.0864C59.4545 33.0753 58.9204 33.0864 57.5871 32.5219C56.2648 31.9574 55.9762 31.6253 55.0089 30.8727C54.4535 30.441 53.6534 29.6108 52.8644 28.9135C52.0865 29.7548 50.3196 31.7028 50.1641 31.8578C50.842 32.5883 52.4977 34.0272 53.1645 34.5364L53.0645 34.4478C54.5313 35.6653 56.3203 36.5176 58.287 36.8386C58.8985 36.9382 59.4318 36.9826 59.9433 36.9826C60.4984 36.9826 60.9544 36.9604 61.4431 36.9051C65.8332 36.3738 69.5109 33.2635 70.7113 29.0021L67.0883 27.3086Z" fill="white"/>
<path d="M54.7504 21.3755C56.0509 19.8812 57.962 18.9403 60.0953 18.9403C61.7625 18.9403 63.3288 19.516 64.5737 20.5232L62.8847 21.7296L70.6749 25.2937L69.8749 16.793L67.8628 18.2099C65.8296 16.1843 63.0621 15.0332 60.1062 15.0332C56.6952 15.0332 53.6501 16.5827 51.6277 19.0179C51.6277 19.0179 51.6277 19.0179 51.6277 19.0289C51.5499 19.1285 45.4491 26.5556 42.9376 29.0128C42.8042 29.1456 42.6598 29.2674 42.5154 29.3891C42.4931 29.4112 42.4598 29.4335 42.4375 29.4556C42.2597 29.6105 42.0819 29.7655 41.9041 29.9094C41.8708 29.9425 41.8263 29.9758 41.793 29.9979C41.6263 30.1307 41.4596 30.2635 41.304 30.3853C41.2596 30.4185 41.2151 30.4517 41.1818 30.4849C41.0707 30.5735 40.9596 30.651 40.8596 30.7285C40.8151 30.7617 40.7707 30.7948 40.7373 30.8281C40.6928 30.8613 40.6484 30.8945 40.6039 30.9166C40.4595 31.0162 40.3151 31.1158 40.1817 31.2154C40.1372 31.2486 40.1039 31.2708 40.0594 31.293C39.9261 31.3815 39.7928 31.47 39.6594 31.5586C39.626 31.5807 39.5927 31.6029 39.5482 31.625C39.426 31.7025 39.3149 31.7689 39.2038 31.8353C39.1593 31.8574 39.1149 31.8906 39.0704 31.9128C38.9593 31.9792 38.8593 32.0346 38.7593 32.0899C38.0259 32.4884 37.4147 32.7429 36.9035 32.8979C36.3923 33.0528 35.9922 33.1303 35.181 33.1303C31.2472 32.9422 28.1356 29.5552 28.4357 25.5372C28.6912 22.0617 31.5472 19.2503 35.0365 19.0179C37.2701 18.874 39.2371 19.8259 40.7039 21.2537C40.9485 21.4862 42.9376 23.6224 43.3599 24.1426C44.1155 23.3346 45.9269 21.2094 45.9936 21.132C45.638 20.667 44.1377 19.0954 44.0377 18.9847C41.9041 16.6049 38.8259 15.0553 35.3699 15.0996C29.6247 15.177 24.8241 19.7484 24.5129 25.4598C24.1795 31.5475 28.8469 36.639 34.781 37.0375C34.9921 37.0486 35.9367 37.0818 36.4367 37.0265C36.9479 36.9711 37.4036 36.8604 37.7924 36.7719C38.4147 36.628 39.0482 36.2959 39.0593 36.2959C39.0927 36.2849 39.126 36.2628 39.1593 36.2517C39.2816 36.1963 39.4149 36.141 39.5482 36.0746C39.6038 36.0524 39.6705 36.0193 39.7261 35.986C39.8594 35.9196 40.0039 35.8532 40.1483 35.7757C40.2039 35.7536 40.2484 35.7204 40.3039 35.6983C40.6928 35.488 41.1151 35.2555 41.5374 34.9898C41.593 34.9567 41.6596 34.9123 41.7152 34.8792C41.8708 34.7795 42.0264 34.6799 42.1931 34.5692C42.2597 34.525 42.3375 34.4696 42.4153 34.4254C42.5709 34.3147 42.7376 34.204 42.9042 34.0823C42.9709 34.0269 43.0376 33.9826 43.1154 33.9272C43.2821 33.8055 43.4488 33.6727 43.6155 33.551C43.66 33.5177 43.7044 33.4845 43.7377 33.4513C43.7711 33.4292 43.7933 33.407 43.8266 33.3849C44.0711 33.1967 44.3156 32.9864 44.5711 32.7762C44.6267 32.7318 44.6934 32.6765 44.749 32.6212C44.9379 32.4552 45.1379 32.2891 45.3379 32.112C45.4269 32.0346 45.5046 31.9571 45.5935 31.8906C45.6268 31.8574 45.6713 31.8243 45.7046 31.791C45.8491 31.6582 45.9936 31.5254 46.1491 31.3815C46.238 31.304 48.4606 29.1346 49.9608 27.3193C51.4609 25.504 53.0834 23.3346 54.7504 21.3755Z" fill="white"/>
</svg>
