<svg width="160" height="80" viewBox="0 0 160 80" fill="none" xmlns="http://www.w3.org/2000/svg">
<path d="M74.5166 40.9409C72.2152 39.7109 70.3284 37.8226 69.0948 35.5148C67.8612 33.207 67.3362 30.5834 67.5861 27.9757C67.836 25.368 68.8497 22.8934 70.4989 20.8647C72.1481 18.8361 74.3588 17.3445 76.8515 16.5786C79.3441 15.8128 82.0067 15.807 84.5026 16.5621C86.9985 17.3172 89.2156 18.7992 90.8735 20.8207C92.5313 22.8422 93.5556 25.3125 93.8167 27.9191C94.0777 30.5256 93.5639 33.1515 92.3402 35.4646C90.6959 38.5631 87.8961 40.8797 84.5548 41.9063C81.2135 42.9329 77.6035 42.5857 74.5166 40.9409ZM85.8408 19.5349C83.929 18.5156 81.7595 18.0889 79.6065 18.3088C77.4534 18.5287 75.4136 19.3853 73.7449 20.7703C72.0763 22.1553 70.8536 24.0065 70.2317 26.0898C69.6097 28.1731 69.6163 30.3951 70.2506 32.4746C70.8849 34.5542 72.1185 36.398 73.7954 37.773C75.4723 39.148 77.5171 39.9923 79.6714 40.1993C81.8257 40.4063 83.9927 39.9666 85.8983 38.9358C87.804 37.9051 89.3628 36.3295 90.3776 34.4084C91.7363 31.831 92.0216 28.8169 91.171 26.0282C90.3203 23.2395 88.4033 20.9041 85.8408 19.5349ZM6.38665 51.7729C6.37682 51.6437 6.33614 51.5188 6.26806 51.4089C6.19998 51.2989 6.10651 51.207 5.99559 51.1411C5.76675 50.96 5.49451 50.8428 5.20625 50.8011C4.22018 50.666 3.22932 50.5165 2.22645 50.3501C2.11159 50.3217 1.99925 50.2838 1.89056 50.2368C1.81285 50.2012 1.73267 50.1714 1.65065 50.1476C1.54565 50.1525 1.44336 50.1827 1.35235 50.2355C1.26135 50.2884 1.18428 50.3624 1.12762 50.4514C0.988721 50.6173 0.893079 50.8154 0.849315 51.0277C1.00369 51.1551 1.18932 51.2384 1.38673 51.2689L1.88097 51.3364L1.43232 51.5775C1.28433 51.6545 1.1543 51.7621 1.05085 51.8934C0.976472 52.2985 0.92369 52.5783 0.8925 52.7278C0.788535 53.2245 0.687769 53.7872 0.590202 54.4157C0.494234 55.0475 0.422258 55.5202 0.376673 55.8385C0.277883 55.9109 0.197793 56.006 0.14311 56.116C0.0884276 56.2259 0.0607445 56.3474 0.062379 56.4703C0.062379 56.4992 0.153548 56.5981 0.333488 56.762L0 61.4522C0 62.1451 0.00719758 62.6724 0.0215927 63.0341C0.093708 63.0819 0.175794 63.1124 0.261512 63.1233C0.440746 63.0863 0.609556 63.0097 0.755746 62.899C0.995666 62.7471 1.11323 62.6338 1.11323 62.559V61.3533C1.11323 61.0222 1.1852 59.8333 1.32915 57.7869C1.41872 56.7355 1.4931 56.0515 1.55228 55.7348C3.15174 54.8152 4.1578 54.1979 4.57046 53.8828C5.78286 52.9874 6.38825 52.2841 6.38665 51.7729ZM4.41692 53.3017C4.00525 53.6431 3.56267 53.9451 3.09496 54.2035C2.64711 54.4752 2.16167 54.7389 1.63865 54.9945C1.68146 54.2053 1.78656 53.4207 1.95294 52.6482C2.01766 52.3107 2.10749 51.9786 2.22165 51.6547C2.18728 51.5606 2.16472 51.4626 2.15448 51.3629C2.93182 51.469 3.37087 51.5197 3.47643 51.5197C3.81186 51.5338 4.14372 51.5947 4.4625 51.7005C5.01432 51.8613 5.29022 52.0566 5.29022 52.2865C5.29022 52.5164 4.99912 52.8548 4.41692 53.3017ZM9.34966 49.5954C9.01489 49.5951 8.68523 49.6779 8.38998 49.8365C8.06552 49.9819 7.80284 50.2383 7.64863 50.5599C7.53107 50.9072 7.55266 51.1652 7.71581 51.3316C7.94245 51.2537 8.14112 51.1103 8.28682 50.9192C8.37474 50.8093 8.48378 50.7183 8.60743 50.6516C8.73109 50.5849 8.86683 50.5439 9.00657 50.531C9.11396 50.5325 9.21998 50.5555 9.31847 50.5985C10.1406 50.8252 10.5517 51.3919 10.5517 52.2985C10.5448 52.3803 10.5296 52.4611 10.5061 52.5397C10.0726 51.9947 9.66156 51.7222 9.27289 51.7222C8.48115 51.7222 7.61504 52.3283 6.67456 53.5404C5.73407 54.7525 5.26303 55.7726 5.26143 56.6005C5.26034 56.7297 5.27566 56.8586 5.30702 56.9839C5.35909 57.2058 5.49504 57.3987 5.68609 57.5216C5.84457 57.6536 6.0399 57.7328 6.2451 57.7483C6.82731 57.7483 7.60465 57.3343 8.57712 56.5064C9.13133 55.9807 9.5368 55.5805 9.8103 55.3007C9.8247 55.3899 9.84389 55.4768 9.86549 55.5588C9.87356 55.597 9.8954 55.631 9.92683 55.6541C9.95825 55.6773 9.99706 55.688 10.0358 55.6841C10.3781 55.6841 10.714 55.0065 11.0435 53.6513C11.1981 53.0839 11.2883 52.5006 11.3122 51.9127C11.3379 51.3908 11.2003 50.8738 10.9187 50.4345C10.7454 50.1764 10.5117 49.9649 10.2381 49.8186C9.96458 49.6723 9.65952 49.5957 9.34966 49.5954ZM9.73353 54.6786C9.59928 54.7991 9.47192 54.9271 9.35206 55.062C8.55233 55.8288 7.81018 56.3023 7.12561 56.4823C6.5402 56.4357 6.2475 56.1729 6.2475 55.6938C6.2475 55.1368 6.56659 54.5411 7.20718 53.9021C7.84776 53.2631 8.42597 52.9376 8.94899 52.9376C9.10692 52.9399 9.26039 52.9905 9.38897 53.0827C9.51756 53.1749 9.61515 53.3043 9.66875 53.4536C9.80529 53.7187 9.87453 54.0136 9.87028 54.3121C9.87335 54.4474 9.82436 54.5787 9.73353 54.6786ZM17.2022 53.4174C16.8067 53.104 16.3569 52.8669 15.8755 52.7181C15.0957 52.4456 14.6303 52.2744 14.4815 52.1997C13.805 51.8669 13.4691 51.5438 13.4691 51.2351C13.4691 51.0687 13.709 50.9048 14.208 50.7384C14.4661 50.6268 14.7381 50.5513 15.0166 50.5141C15.0605 50.5544 15.1021 50.597 15.1413 50.6419C15.1646 50.6693 15.1937 50.6911 15.2265 50.7057C15.2593 50.7204 15.295 50.7274 15.3309 50.7263C15.4391 50.6991 15.5444 50.6612 15.6451 50.613C15.756 50.5751 15.8616 50.5233 15.9594 50.4586C16.3169 50.0873 16.4969 49.8413 16.4969 49.7352C16.4969 49.6291 16.3937 49.5423 16.1826 49.5568C16.0194 49.5833 15.8611 49.6026 15.7027 49.6147C15.3324 49.6648 14.9702 49.7638 14.6255 49.9088C14.5055 49.9691 14.1912 50.1114 13.6826 50.3381C12.9628 50.6684 12.483 50.994 12.2695 51.3026C12.1751 51.4521 12.1751 51.7005 12.2695 52.0478C12.3447 52.3693 12.8317 52.6852 13.7306 52.9954C14.0612 53.1195 14.3984 53.2249 14.7406 53.3113C15.7435 53.5669 16.2449 53.8997 16.2449 54.3048C16.2449 54.6062 16.005 54.886 15.5492 55.1416C15.2293 55.2766 14.9222 55.4117 14.6279 55.5467C14.3931 55.626 14.1524 55.6865 13.9081 55.7275C14.1624 55.4864 14.4168 55.2621 14.6711 55.0524C14.6916 55.0097 14.6991 54.9619 14.6927 54.9149C13.5235 55.3039 12.6166 55.8055 11.972 56.4196C12.032 56.5691 12.0847 56.6463 12.1303 56.6463C12.5419 56.6149 12.949 56.5389 13.3443 56.4196C13.3875 56.4196 13.7474 56.3135 14.4216 56.1037C16.4465 55.5009 17.4581 54.8016 17.4565 54.0058C17.462 53.8947 17.4419 53.7838 17.3978 53.6817C17.3537 53.5797 17.2868 53.4892 17.2022 53.4174Z" fill="white"/>
<path d="M20.9723 52.7184C20.1926 52.4483 19.7296 52.2747 19.5784 52.2C18.9034 51.8672 18.5659 51.5457 18.5659 51.2354C18.5659 51.069 18.8059 50.905 19.3073 50.7387C19.5651 50.6265 19.8372 50.551 20.1158 50.5144C20.1446 50.5409 20.1854 50.5843 20.2382 50.6422C20.262 50.669 20.2912 50.6904 20.3239 50.7049C20.3566 50.7195 20.392 50.7269 20.4277 50.7266C20.5359 50.7003 20.6412 50.6632 20.742 50.6157C20.8529 50.577 20.9585 50.5243 21.0563 50.4589C21.4162 50.0876 21.5961 49.8416 21.5961 49.7355C21.5961 49.6294 21.4906 49.5426 21.2818 49.5571C21.1163 49.5836 20.9603 49.6029 20.802 49.6149C20.4317 49.6654 20.0696 49.7643 19.7248 49.9091C19.6072 49.9694 19.2929 50.1117 18.7843 50.3384C18.0501 50.6687 17.5847 50.9943 17.3687 51.3029C17.2744 51.4524 17.2744 51.7008 17.3687 52.048C17.4455 52.3639 17.9302 52.6798 18.8299 52.9957C19.1616 53.1154 19.4996 53.2169 19.8423 53.2996C20.8476 53.5552 21.349 53.8879 21.349 54.2931C21.349 54.5953 21.1163 54.8742 20.6508 55.1298C20.331 55.2648 20.0239 55.3999 19.7296 55.5349C19.4948 55.6143 19.2541 55.6747 19.0098 55.7158C19.2641 55.4746 19.5184 55.2504 19.7727 55.0406C19.7895 55.0237 19.7967 54.9803 19.7967 54.9055C18.7837 55.2016 17.8482 55.7187 17.0569 56.4199C17.1192 56.5718 17.1696 56.6466 17.2152 56.6466C17.6268 56.6154 18.0339 56.5394 18.4292 56.4199C18.4748 56.4199 18.8347 56.3138 19.5088 56.104C21.5321 55.5012 22.5438 54.8019 22.5438 54.0061C22.551 53.8961 22.5332 53.786 22.4916 53.684C22.45 53.582 22.3858 53.4909 22.3039 53.4177C21.9064 53.1047 21.455 52.8677 20.9723 52.7184ZM26.1834 50.0273C26.1834 49.7862 26.0922 49.6897 25.9147 49.7355C25.6912 49.8008 25.4891 49.9248 25.3293 50.0948C25.1506 50.4165 24.9904 50.7482 24.8494 51.0883C24.1745 52.4548 23.681 53.56 23.3691 54.404C23.2071 54.7862 23.1153 55.1946 23.098 55.6097C23.098 56.0293 23.2852 56.2391 23.6594 56.2391C23.7271 56.2378 23.7933 56.2187 23.8514 56.1836C23.9453 56.1186 24.0266 56.0369 24.0913 55.9425C24.1699 55.8355 24.2557 55.734 24.348 55.6386C24.267 55.3682 24.2289 55.0866 24.2352 54.8043C24.2352 54.457 24.408 53.8952 24.7535 53.1163C24.9766 52.6509 25.2021 52.1855 25.4252 51.7177C25.9307 50.5313 26.1834 49.9678 26.1834 50.0273ZM27.1695 47.0106C27.1235 47.1867 27.1089 47.3696 27.1263 47.5508C27.1263 47.7919 27.2678 47.8377 27.5509 47.6882C27.9396 47.4616 28.1339 47.2349 28.1339 47.0106C28.1315 46.9809 28.1315 46.9511 28.1339 46.9214C28.1425 46.9121 28.1491 46.901 28.1533 46.889C28.1574 46.877 28.159 46.8642 28.1579 46.8515C28.1579 46.5814 28.0452 46.4464 27.8196 46.4464C27.6109 46.4464 27.395 46.6345 27.1695 47.0106ZM30.5907 50.0586C30.3749 49.9206 30.1406 49.8142 29.8949 49.7428C29.9693 49.5619 30.0221 49.4341 30.0509 49.3593C29.9542 49.2828 29.8375 49.2359 29.715 49.2243C29.551 49.2225 29.3882 49.252 29.2352 49.3111C29.057 49.3941 28.8846 49.4891 28.7193 49.5957C27.9058 50.0677 27.2375 50.756 26.788 51.5851C26.296 52.4906 26.03 53.5026 26.013 54.5342C26.013 55.0623 26.0946 55.4216 26.253 55.6193C26.4252 55.8437 26.6461 56.0255 26.899 56.1508C27.1518 56.2762 27.4298 56.3419 27.7117 56.3427C28.3575 56.309 28.9767 56.0729 29.4823 55.6675C29.8751 55.3779 30.2427 55.0553 30.5811 54.703C30.9584 54.3477 31.2307 53.8946 31.368 53.3936C31.4679 52.9401 31.5353 52.4799 31.5696 52.0167C31.5768 51.2836 31.2481 50.6277 30.5907 50.0586ZM30.3844 53.9772C30.1091 54.5378 29.6717 55.0017 29.1296 55.3083C28.9196 55.4089 28.6904 55.4624 28.4578 55.465C28.1333 55.4572 27.8165 55.3641 27.5389 55.1949C27.3444 55.0757 27.1855 54.9059 27.0791 54.7034C26.9727 54.501 26.9227 54.2734 26.9343 54.0447C26.9486 53.3962 27.077 52.7553 27.3134 52.1517C27.6333 51.3479 28.022 50.7917 28.4794 50.483C28.6745 50.3245 28.9051 50.2161 29.1512 50.1672C29.2112 50.1672 29.3071 50.2299 29.4439 50.348C29.5397 50.3897 29.6299 50.4431 29.7126 50.5072C30.4595 50.7451 30.833 51.3761 30.833 52.4001C30.82 52.9557 30.6655 53.4986 30.3844 53.9772ZM37.6515 57.4279C37.1413 57.0372 36.7734 56.0148 36.5479 54.3606C36.429 53.6 36.3617 52.8322 36.3464 52.0625C36.3464 50.2877 36.2768 49.3328 36.1448 49.1978C35.793 49.2837 35.4783 49.4817 35.2475 49.762C34.8871 50.3377 34.5871 50.9494 34.3526 51.5875C33.904 52.7739 33.6593 53.4129 33.6137 53.5021C33.6126 52.9194 33.6616 52.3377 33.76 51.7635C33.8534 51.2117 33.9095 50.6542 33.928 50.0948C33.9036 49.9607 33.8583 49.8313 33.7936 49.7114C33.6137 49.8006 33.4385 49.8898 33.2658 49.9815C33.0908 50.0743 32.9584 50.2316 32.8963 50.4204C32.764 51.0256 32.6838 51.6412 32.6564 52.2602C32.5652 53.2851 32.5221 54.0881 32.5221 54.6716C32.5221 54.8959 32.5221 55.1226 32.4885 55.3492C32.4549 55.5759 32.4549 55.7182 32.4549 55.7785C32.4606 55.9788 32.5221 56.1734 32.6324 56.3403C32.7256 56.3657 32.8242 56.3622 32.9153 56.3304C33.0065 56.2986 33.086 56.2398 33.1434 56.1619C33.7386 55.4236 34.1778 54.5711 34.4342 53.6564C34.7749 52.7224 35.0484 52.0376 35.2547 51.6019C35.3315 55.4023 35.8681 57.6256 36.8646 58.2719C37.1469 58.3087 37.4333 58.2492 37.6779 58.1031C37.8979 57.8936 38.055 57.6262 38.1314 57.3314C37.9671 57.3358 37.8048 57.3684 37.6515 57.4279ZM47.5626 50.1696C47.5611 50.1173 47.5428 50.0669 47.5103 50.026C47.4779 49.9851 47.4331 49.956 47.3827 49.9429C47.04 49.9743 46.7104 50.0903 46.423 50.2805C46.0666 50.5335 45.7298 50.8132 45.4153 51.1172C45.054 51.4288 44.6716 51.7148 44.2709 51.9733C44.2709 51.7032 44.4484 51.1462 44.8083 50.3046C45.2651 49.2003 45.8276 48.1431 46.4878 47.1481C47.2507 46.0372 47.9313 45.3387 48.5295 45.0526C48.7224 44.9446 48.9375 44.8828 49.1581 44.8717C49.3018 44.8751 49.4416 44.9194 49.5611 44.9995C49.6336 45.0551 49.7146 45.0983 49.8011 45.1273C49.921 45.1273 50.1082 44.9537 50.3625 44.6065C50.2862 44.425 50.1956 44.25 50.0914 44.0832C49.9038 43.9661 49.6818 43.9175 49.4628 43.9458C48.5639 43.9458 47.5514 44.6901 46.4254 46.1787C45.7742 47.0326 45.1918 47.9374 44.6836 48.8843C44.0219 50.1366 43.4828 51.4506 43.0737 52.8076C42.294 53.3502 41.8909 53.7915 41.8597 54.1387C41.8453 54.363 41.9581 54.4908 42.2028 54.5221C42.3851 54.5511 42.6155 54.334 42.889 53.8686C42.8434 54.1845 42.8194 54.3509 42.8194 54.4088V55.1973C42.8252 55.3897 42.8633 55.5796 42.9322 55.7592C43.0089 56.0293 43.1049 56.1884 43.2273 56.2415C43.4364 56.1918 43.6206 56.0676 43.7455 55.8918C43.8848 55.74 43.9693 55.5455 43.9854 55.3396C43.9694 55.1861 43.9364 55.0348 43.887 54.8887C43.8339 54.7278 43.8009 54.561 43.7887 54.3919C43.7828 53.9431 43.8361 53.4956 43.947 53.0608L46.399 51.1317C46.5432 51.0786 46.6967 51.0556 46.85 51.0642C47.0156 50.9147 47.1715 50.7652 47.3299 50.6133C47.3965 50.559 47.4515 50.4917 47.4916 50.4154C47.5316 50.3392 47.5557 50.2555 47.5626 50.1696ZM51.6628 50.0586C51.4479 49.9207 51.2144 49.8143 50.9695 49.7428C51.0438 49.5619 51.0966 49.4341 51.1254 49.3593C51.0288 49.285 50.9131 49.2398 50.7919 49.2291C50.628 49.2276 50.4652 49.2571 50.3121 49.3159C50.1338 49.3997 49.9615 49.4955 49.7963 49.6029C48.9871 50.0755 48.323 50.763 47.8769 51.5899C47.3801 52.4924 47.1092 53.5029 47.0876 54.5342C47.0876 55.0615 47.1675 55.4232 47.3275 55.6193C47.4996 55.8438 47.7205 56.0257 47.9734 56.1511C48.2262 56.2765 48.5042 56.342 48.7862 56.3427C49.4331 56.3085 50.0531 56.0715 50.5592 55.6651C50.9515 55.3749 51.3191 55.0523 51.658 54.7006C52.0338 54.3445 52.3052 53.8916 52.4426 53.3912C52.5422 52.9384 52.6096 52.4791 52.6441 52.0167C52.6473 51.2836 52.3202 50.631 51.6628 50.0586ZM51.4565 53.9772C51.1819 54.5383 50.7444 55.0024 50.2017 55.3083C49.9919 55.4093 49.7626 55.4628 49.5299 55.465C49.2053 55.4578 48.8884 55.3646 48.6111 55.1949C48.4165 55.0757 48.2576 54.9059 48.1512 54.7034C48.0448 54.501 47.9948 54.2734 48.0065 54.0447C48.0219 53.3961 48.151 52.7553 48.3879 52.1517C48.7022 51.3415 49.0885 50.7845 49.5539 50.4855C49.7481 50.3255 49.9791 50.2169 50.2257 50.1696C50.2857 50.1696 50.3817 50.2299 50.516 50.3504C50.6127 50.3893 50.7032 50.4421 50.7847 50.5072C51.5333 50.7483 51.9067 51.3793 51.9051 52.4001C51.8933 52.9559 51.7387 53.4991 51.4565 53.9772ZM58.7788 50.0394C58.8183 49.924 58.833 49.8015 58.822 49.6801C58.8532 49.6801 58.822 49.6801 58.7333 49.6559H58.3062C57.4089 49.8826 56.7323 50.2041 56.2765 50.6205C55.8182 51.0401 55.5015 51.3439 55.3168 51.5417C55.392 50.508 55.4296 49.9606 55.4296 49.8995C55.4296 49.5402 55.2952 49.3593 55.0241 49.3593C54.8513 49.3569 54.6826 49.412 54.5443 49.5161L54.0644 49.9453C54.1155 50.2349 54.1308 50.5297 54.11 50.8231C54.104 51.0418 54.0856 51.26 54.0548 51.4765C54.0164 51.7611 53.9972 51.9106 53.9972 51.9275L53.1671 56.0269C53.1671 56.1764 53.2799 56.2511 53.5054 56.2511C53.8078 56.2304 54.0932 56.1032 54.3115 55.8918C54.3594 55.8413 54.4125 55.796 54.4699 55.7568C54.8122 54.8549 55.1185 54.0511 55.3888 53.3454C55.7487 52.6678 56.0174 52.1976 56.1973 51.9275C56.3895 51.5975 56.6278 51.297 56.9051 51.0353C57.1431 50.7717 57.4278 50.555 57.7448 50.3962C58.1934 50.2347 58.5389 50.1141 58.7788 50.0394ZM77.7709 49.5981C77.4363 49.5994 77.107 49.6822 76.8112 49.8392C76.4885 49.9865 76.2272 50.2423 76.0722 50.5626C75.9523 50.9099 75.9739 51.1679 76.1394 51.3319C76.3661 51.2555 76.565 51.1127 76.7104 50.9219C76.7983 50.812 76.9074 50.721 77.031 50.6543C77.1547 50.5876 77.2904 50.5466 77.4302 50.5337C77.5383 50.5352 77.6451 50.5582 77.7445 50.6012C78.565 50.8279 78.9753 51.3946 78.9753 52.3012C78.9683 52.3828 78.9538 52.4635 78.9321 52.5424C78.4986 51.9974 78.0876 51.7249 77.6989 51.7249C76.9072 51.7249 76.0402 52.331 75.0982 53.5431C74.1561 54.7552 73.6858 55.7745 73.6874 56.6008C73.6866 56.7306 73.7011 56.8601 73.7306 56.9866C73.7894 57.201 73.9254 57.3857 74.1121 57.505C74.2712 57.6374 74.4675 57.7167 74.6735 57.7317C75.2573 57.7317 76.0346 57.3177 77.0055 56.4898C77.5573 55.9642 77.9652 55.5639 78.2387 55.2841C78.2531 55.3734 78.2723 55.4602 78.2939 55.5422C78.3014 55.5803 78.3228 55.6142 78.3538 55.6374C78.3849 55.6605 78.4233 55.6713 78.4618 55.6675C78.8057 55.6675 79.1424 54.9899 79.4719 53.6347C79.6251 53.067 79.7152 52.4839 79.7406 51.8961C79.7614 51.3793 79.6222 50.8688 79.3423 50.4348C79.168 50.1772 78.9337 49.9664 78.6599 49.8205C78.386 49.6747 78.0808 49.5983 77.7709 49.5981ZM78.1547 54.6813C78.0203 54.8024 77.8922 54.9303 77.7709 55.0647C76.9711 55.8315 76.229 56.305 75.5444 56.485C74.9606 56.44 74.6687 56.1772 74.6687 55.6965C74.6687 55.1386 74.9886 54.5414 75.6284 53.9048C76.2682 53.2682 76.8496 52.9467 77.3726 52.9403C77.5306 52.9435 77.684 52.9947 77.8125 53.0872C77.941 53.1798 78.0386 53.3093 78.0923 53.4587C78.2289 53.7238 78.2981 54.0187 78.2939 54.3172C78.294 54.4517 78.2444 54.5815 78.1547 54.6813ZM87.1949 55.5422C86.9911 55.1108 86.8822 54.6403 86.8758 54.1628C86.849 53.0224 86.9107 51.8815 87.0605 50.7507C87.0749 50.6157 87.1277 50.336 87.2189 49.914C87.2957 49.5378 87.334 49.3425 87.334 49.3256C87.334 49.2677 87.2813 49.2074 87.1781 49.1447L86.7175 49.3159C86.5565 49.3817 86.414 49.486 86.3024 49.6198C86.159 50.0508 85.9826 50.4701 85.7746 50.8737C85.5411 51.3351 85.3131 51.7764 85.0908 52.1976C84.6853 52.8438 84.3567 53.3502 84.1023 53.7119C83.8048 53.2296 83.6681 52.5231 83.6993 51.5899C83.7281 50.4903 83.6993 49.7765 83.6081 49.4437C83.5793 49.34 83.4593 49.2798 83.2506 49.2629C82.8595 49.5209 82.5452 49.9863 82.3077 50.6856C82.1286 51.274 81.9566 51.8535 81.7919 52.4242C81.7519 52.2012 81.7287 51.9755 81.7223 51.749C81.7029 51.392 81.6217 51.0411 81.4824 50.7121C81.3826 50.6703 81.2762 50.6466 81.1681 50.6422C80.8682 50.7941 80.6883 50.9653 80.6523 51.1607C80.645 51.299 80.6679 51.4373 80.7195 51.5658C80.7843 51.7252 80.8294 51.892 80.8538 52.0625C80.9141 52.3803 80.9295 52.705 80.8994 53.0271L80.7291 55.7544C80.7381 55.9444 80.8099 56.1259 80.933 56.2704C81.0828 56.2558 81.2318 56.2333 81.3792 56.2029C81.4735 56.0173 81.5776 55.837 81.6911 55.6627C81.891 55.0516 82.0512 54.4282 82.171 53.7963C82.2515 53.2676 82.3784 52.7472 82.5501 52.241C82.6556 51.9419 82.73 51.7153 82.7756 51.5658C82.726 53.5061 82.9971 54.6564 83.5889 55.0165C83.9608 54.8959 84.3566 54.5342 84.7717 53.9579C85.2339 53.22 85.5698 52.6629 85.7794 52.2868V53.9748C85.7839 54.5681 85.8531 55.1592 85.9857 55.7375C86.1368 56.4754 86.5303 56.8202 87.1685 56.7768C87.3652 56.6393 87.5692 56.4826 87.7827 56.2945V56.1354C87.5389 55.9922 87.3364 55.7878 87.1949 55.5422ZM95.297 49.7114C94.8043 49.7114 94.1094 49.9453 93.2121 50.4131C92.5243 50.7656 91.8706 51.1813 91.2591 51.655C89.3126 53.2047 88.3401 54.4313 88.3417 55.3348C88.3417 55.9987 88.7608 56.3299 89.5989 56.3283C90.1363 56.3283 91.1312 55.9971 92.5835 55.3348C94.1094 54.6564 94.9091 54.1138 94.9827 53.7071C94.7891 53.7071 93.9894 54.0117 92.5835 54.621C91.555 55.0631 90.8353 55.2841 90.4242 55.2841C89.81 55.2841 89.5053 55.0743 89.5053 54.6499C89.5053 54.3943 89.6925 54.1677 90.0643 53.9482L90.9616 53.5407C93.1129 52.499 94.4948 51.7209 95.1074 51.2065C95.5705 50.8158 95.8032 50.4975 95.8032 50.2564C95.8152 49.8995 95.6425 49.7114 95.297 49.7114ZM92.9865 51.8334C92.4234 52.1323 91.8286 52.3668 91.2135 52.5327C91.816 51.9124 92.5431 51.4282 93.3464 51.1124C93.7373 50.962 94.1437 50.856 94.558 50.7965C94.4573 51.057 93.9294 51.3994 92.9865 51.8383V51.8334ZM100.916 53.4201C100.52 53.1078 100.07 52.8709 99.5891 52.7208C98.8094 52.4507 98.3415 52.2771 98.1928 52.2024C97.5194 51.8696 97.1819 51.5481 97.1803 51.2378C97.1803 51.0714 97.4203 50.9075 97.9217 50.7411C98.1789 50.6296 98.4502 50.5541 98.7278 50.5168C98.759 50.5433 98.7998 50.5867 98.8526 50.6422C98.8756 50.6701 98.9047 50.6923 98.9375 50.7074C98.9703 50.7224 99.0061 50.7298 99.0421 50.729C99.1507 50.704 99.2561 50.6668 99.3564 50.6181C99.4677 50.5785 99.574 50.5259 99.6731 50.4613C100.031 50.09 100.211 49.844 100.211 49.7259C100.211 49.6077 100.105 49.533 99.8962 49.5474C99.7307 49.574 99.5747 49.5932 99.4164 49.6077C99.0459 49.6559 98.6836 49.754 98.3391 49.8995C98.2216 49.9598 97.9073 50.102 97.3987 50.3287C96.6645 50.6615 96.1991 50.9846 95.9831 51.2933C95.8904 51.4428 95.8904 51.6912 95.9831 52.0384C96.0599 52.3599 96.547 52.6758 97.4442 52.9861C97.775 53.1098 98.1121 53.2152 98.4543 53.302C99.4668 53.5696 99.9754 53.8904 99.9754 54.2931C99.9754 54.5953 99.7427 54.8742 99.2772 55.1298C98.9573 55.2648 98.6502 55.3999 98.3559 55.5349C98.1212 55.6143 97.8805 55.6747 97.6362 55.7158C97.8905 55.4746 98.1448 55.2504 98.3991 55.0406C98.4159 55.0237 98.4207 54.9803 98.4207 54.9055C97.4087 55.2022 96.474 55.7192 95.6832 56.4199C95.7432 56.5694 95.796 56.6466 95.8416 56.6466C96.2534 56.6166 96.6606 56.5406 97.0556 56.4199C97.1012 56.4199 97.461 56.3138 98.1352 56.104C100.159 55.5012 101.17 54.8019 101.17 54.0061C101.175 53.8954 101.155 53.7849 101.111 53.6833C101.067 53.5817 101 53.4917 100.916 53.4201ZM72.9413 52.9234H72.9197C72.8501 52.9234 72.4015 52.9885 71.6673 53.1525H71.6193H71.6433C70.8422 52.6912 69.9263 52.4703 69.0042 52.5159C68.1492 52.5254 67.2957 52.5907 66.4491 52.7112C66.574 52.586 66.6872 52.4496 66.7873 52.3037C66.977 52.0876 67.101 51.8215 67.1448 51.5368C67.1296 51.4885 67.107 51.443 67.0776 51.4018C67.0177 51.2065 66.9745 51.1076 66.9433 51.1076C66.9084 51.0974 66.8712 51.0987 66.8371 51.1113C66.803 51.1239 66.7738 51.1471 66.7538 51.1775C66.7353 51.2077 66.7245 51.242 66.7224 51.2773C66.7203 51.3126 66.727 51.3479 66.7418 51.3801C66.58 51.7362 66.3425 52.0523 66.046 52.3061C65.9716 52.3808 65.7245 52.5906 65.3046 52.9378C64.4537 53.6741 63.6988 54.0423 63.0398 54.0423C62.6343 54.0423 62.4328 53.8566 62.4328 53.4804C62.4439 53.242 62.4891 53.0065 62.5672 52.7811C62.7485 52.375 63.0261 52.0198 63.3757 51.7466C63.6863 51.4607 64.0332 51.2175 64.4073 51.0232C64.8011 50.7773 65.2479 50.6301 65.7101 50.594C65.8673 50.5885 66.0228 50.6278 66.1588 50.7073C65.9666 50.9253 65.8277 51.1854 65.7533 51.4669C65.8294 51.5256 65.9096 51.5788 65.9932 51.6261L67.0489 50.5626C67.4519 50.1575 66.9145 49.8392 66.9145 49.8392C66.6864 49.7158 66.4322 49.6488 66.1732 49.6439C65.3638 49.6439 64.5033 49.9968 63.5916 50.7025C62.7495 51.3147 62.1154 52.1726 61.7754 53.1597C61.6698 53.4568 61.6091 53.7681 61.5955 54.0833C61.7107 55.4529 63.2077 55.1877 64.3114 54.7126C65.511 54.1918 67.1904 53.2827 68.1693 53.2827C68.8202 53.2728 69.4683 53.3689 70.0886 53.5672L69.9903 53.5986L69.7647 53.6661L69.6424 53.7047C65.2474 55.1069 61.2607 57.5691 58.0303 60.8762C55.6671 63.2707 57.6368 63.8301 58.1047 63.8904C64.8224 64.785 69.9855 59.9598 70.926 58.9085C71.4927 58.3258 71.9895 57.6783 72.4063 56.9794C72.7537 56.396 72.9401 55.7301 72.9461 55.0502C72.9313 54.6493 72.7854 54.2645 72.531 53.9555C72.4086 53.7911 72.2713 53.6385 72.1208 53.4997H72.1423L72.5286 53.4105L72.9941 53.314C73.5843 53.2079 73.3659 52.8197 72.9413 52.9234ZM70.8324 57.9656C69.8988 59.1764 68.7215 60.1756 67.3775 60.8979C65.6664 61.8672 63.8317 62.5974 61.9242 63.0681C60.1416 63.3696 59.0787 63.3237 58.5053 63.1863C57.8863 63.0729 56.7155 62.6534 59.0715 60.553C59.3642 60.2902 59.6593 60.0394 59.9544 59.7934L60.1776 59.6126C60.4047 59.4261 60.6326 59.2453 60.8613 59.07L61.0653 58.9157C61.31 58.7276 61.5547 58.5468 61.7994 58.3731L61.9194 58.2863C62.2937 58.0227 62.6631 57.7727 63.0278 57.5364L63.1454 57.4616C63.4741 57.2518 63.8004 57.0493 64.1194 56.8588L64.2154 56.8033C64.5417 56.6128 64.8632 56.4296 65.1751 56.2583L65.2399 56.2246C65.5614 56.051 65.8757 55.887 66.1804 55.7423L66.2379 55.7134C66.5378 55.5639 66.8305 55.424 67.1136 55.2938L67.2096 55.2504C67.4735 55.1298 67.7278 55.0092 67.9725 54.9128L68.1765 54.8308C68.3804 54.7464 68.5795 54.662 68.7667 54.5897C69.0306 54.486 69.2801 54.3943 69.508 54.3123L69.7479 54.2279L70.115 54.1026L70.2758 54.0495L70.3837 54.0157L70.5853 53.9506L70.7844 53.8904C70.8926 53.9475 70.9968 54.012 71.0963 54.0833C71.2983 54.2376 71.4678 54.4307 71.595 54.6513C71.7223 54.8719 71.8047 55.1157 71.8377 55.3685C71.9464 56.0325 71.6113 56.8982 70.8324 57.9656ZM159.95 19.6654H141.966V24.8861H147.969L147.919 38.9783H154.094L154.092 24.9102H159.998L159.95 19.6654ZM139.339 22.5567C139.116 21.8978 138.723 21.3103 138.199 20.8542C137.762 20.4312 137.238 20.1102 136.664 19.9138C136.04 19.7383 135.393 19.657 134.745 19.6726H126.832C124.753 19.6726 123.322 20.0858 122.54 20.9121C122.14 21.3205 121.812 21.7932 121.568 22.3107C121.333 22.8251 121.212 23.3845 121.213 23.9505V38.9542H127.115V31.4017H133.437V38.9807H139.593V24.903C139.624 24.1125 139.538 23.3219 139.339 22.5567ZM133.427 27.2709H127.173V24.9898H133.427V27.2709ZM107.874 32.0093L105.09 19.663H96.7989V38.9759H102.751V27.5917L105.448 38.9276H110.122L112.804 27.4856L112.792 38.9759H118.821V19.7402H110.841L107.874 32.0093ZM48.0664 27.5917L50.7511 38.9276H55.4296L58.0783 27.4928L58.1047 38.9759H64.1314V19.7402H56.1565L53.1887 32.0093L50.4056 19.663H42.1164V38.9759H48.0664V27.5917ZM39.4533 22.5808C39.2317 21.9217 38.8392 21.334 38.3161 20.8783C37.8795 20.455 37.3551 20.1338 36.7806 19.9379C36.1563 19.7624 35.5094 19.6811 34.8613 19.6968H26.9463C24.867 19.6968 23.4363 20.1099 22.6542 20.9362C22.2522 21.3458 21.9213 21.8202 21.6753 22.3396C21.4339 22.8534 21.3062 23.4137 21.301 23.9818L21.349 38.9855H27.251V31.4258H33.5801V39.0048H39.7364V24.9343C39.7595 24.14 39.6641 23.3467 39.4533 22.5808ZM33.5393 27.2854H27.2798V25.0139H33.5321L33.5393 27.2854ZM0.917474 36.8755C1.47199 37.6922 2.29239 38.2891 3.23749 38.5635C4.41362 38.8953 5.63174 39.052 6.85308 39.0289H13.758C14.5041 39.0429 15.249 38.9619 15.9748 38.7878C16.6101 38.603 17.1881 38.2586 17.6543 37.787C18.1684 37.3166 18.5415 36.7111 18.7315 36.0388C18.9124 35.2174 18.993 34.3768 18.9714 33.5358V27.4373H13.0022V33.7962H6.11893V25.0115H18.7579V19.663H6.2125C4.22596 19.663 2.74806 20.0882 1.77878 20.9386C1.17868 21.444 0.738411 22.1145 0.51201 22.8677C0.271632 23.7505 0.156136 24.663 0.168925 25.5781V33.2006C0.162044 33.9185 0.209364 34.636 0.310478 35.3467C0.396396 35.8956 0.60383 36.418 0.917474 36.8755ZM89.4837 33.936C88.562 35.6826 87.1456 37.115 85.4137 38.0522C83.6818 38.9894 81.7122 39.3892 79.7541 39.201C77.7961 39.0128 75.9376 38.2451 74.4138 36.995C72.8899 35.7449 71.7693 34.0686 71.1936 32.1782C70.6179 30.2878 70.6131 28.2682 71.1797 26.375C71.7463 24.4818 72.8589 22.8001 74.3768 21.5426C75.8946 20.2852 77.7494 19.5085 79.7065 19.3108C81.6636 19.1132 83.6351 19.5034 85.3715 20.4322C87.6966 21.6767 89.4355 23.7975 90.2065 26.3293C90.9775 28.861 90.7175 31.5968 89.4837 33.936ZM86.1249 22.4819C85.2098 21.729 84.147 21.1785 83.0059 20.8663C81.8502 20.5423 80.6397 20.4659 79.4527 20.642C78.2594 20.8184 77.1156 21.2421 76.0938 21.8863C75.0685 22.5279 74.185 23.374 73.4979 24.3725C72.8149 25.3643 72.3458 26.4888 72.1208 27.6737C72.0728 27.9678 72.0392 28.2644 71.9984 28.5586C71.9576 28.8528 71.9696 29.1542 71.9648 29.4484L72.0296 30.3334C72.08 30.6252 72.1232 30.917 72.1807 31.2015C72.4423 32.3343 72.9485 33.3955 73.6634 34.3098C72.6848 32.3163 72.4605 30.0332 73.0324 27.8859C73.3183 26.8587 73.79 25.8933 74.424 25.038C75.0515 24.1888 75.8329 23.4664 76.7272 22.9087C78.5376 21.7748 80.7076 21.3708 82.802 21.7778C84.968 22.2146 86.9031 23.426 88.2481 25.1875C87.7492 24.1403 87.0267 23.2165 86.132 22.4819H86.1249ZM105.805 57.5726C105.62 57.5573 105.443 57.4849 105.299 57.3652C105.131 57.2583 105.008 57.0925 104.954 56.8998C104.926 56.7836 104.913 56.6647 104.913 56.5453C104.913 55.764 105.366 54.785 106.264 53.6347C107.161 52.4845 107.984 51.9058 108.728 51.9058C109.08 51.9058 109.467 52.1614 109.87 52.6654L109.946 52.7618L109.975 52.6437C109.999 52.565 110.014 52.4842 110.021 52.4025C110.021 51.5055 109.606 50.9364 108.785 50.7145C108.685 50.6705 108.576 50.6475 108.466 50.647C108.322 50.6579 108.182 50.6979 108.054 50.7646C107.925 50.8314 107.812 50.9234 107.72 51.0353C107.593 51.1961 107.428 51.3228 107.24 51.4042C107.178 51.3071 107.143 51.1953 107.138 51.0802C107.133 50.965 107.158 50.8505 107.211 50.7483C107.355 50.4537 107.597 50.2191 107.895 50.0852C108.173 49.9319 108.483 49.8491 108.8 49.844C109.089 49.845 109.373 49.9167 109.629 50.0528C109.884 50.1889 110.103 50.3854 110.266 50.6253C110.534 51.0403 110.666 51.5296 110.642 52.0239C110.619 52.5856 110.533 53.1429 110.385 53.6854C110.002 55.2648 109.666 55.5976 109.469 55.5976C109.446 55.6011 109.422 55.5953 109.402 55.5813C109.383 55.5673 109.37 55.5464 109.366 55.5229C109.343 55.4437 109.326 55.3632 109.313 55.2817L109.294 55.166L109.21 55.2504C108.953 55.5084 108.553 55.8966 108.022 56.4006C107.094 57.1867 106.35 57.5726 105.805 57.5726ZM108.401 52.9378C107.883 52.9378 107.305 53.2562 106.681 53.8807C106.057 54.5053 105.745 55.1009 105.745 55.6531C105.745 56.1522 106.048 56.4271 106.645 56.473C107.334 56.2969 108.063 55.8291 108.833 55.0864C108.948 54.9563 109.071 54.8331 109.2 54.7175C109.297 54.6099 109.35 54.4696 109.349 54.3244C109.353 54.0275 109.283 53.7343 109.148 53.4708C109.091 53.3166 108.99 53.1831 108.857 53.088C108.724 52.9928 108.565 52.9405 108.401 52.9378Z" fill="white"/>
<path d="M108.79 49.8985C109.07 49.8977 109.345 49.9662 109.592 50.0979C109.839 50.2295 110.05 50.4203 110.206 50.6533C110.468 51.0579 110.597 51.5356 110.573 52.0181C110.55 52.575 110.465 53.1275 110.318 53.6651C109.908 55.3531 109.582 55.5315 109.459 55.5315C109.421 55.5315 109.419 55.5315 109.414 55.5002C109.392 55.4208 109.375 55.3403 109.361 55.259L109.325 55.0179L109.16 55.1843C108.9 55.4447 108.5 55.8305 107.977 56.3297C107.065 57.1062 106.333 57.4992 105.803 57.4992C105.627 57.4844 105.46 57.4162 105.323 57.3039C105.168 57.2036 105.054 57.0503 105.002 56.8723C104.975 56.7609 104.962 56.6467 104.963 56.5322C104.963 55.7654 105.412 54.7985 106.3 53.6579C107.187 52.5173 107.994 51.953 108.718 51.953C109.052 51.953 109.421 52.1941 109.815 52.6909L109.966 52.879L110.023 52.6378C110.05 52.5509 110.066 52.461 110.071 52.3702C110.071 51.4442 109.642 50.8582 108.8 50.6243C108.691 50.5771 108.575 50.5525 108.457 50.552C108.305 50.563 108.157 50.6045 108.021 50.6741C107.885 50.7437 107.765 50.8399 107.667 50.9571C107.55 51.0975 107.407 51.2131 107.245 51.2971C107.203 51.2104 107.181 51.1152 107.181 51.0186C107.181 50.922 107.203 50.8268 107.245 50.7401C107.385 50.4578 107.618 50.2334 107.905 50.1059C108.173 49.9585 108.474 49.8806 108.781 49.8792M106.648 56.5154H106.667C107.348 56.3369 108.087 55.8643 108.869 55.1071C108.981 54.9802 109.101 54.8602 109.227 54.7478C109.33 54.6302 109.387 54.4781 109.385 54.321C109.389 54.0158 109.318 53.7143 109.179 53.4432C109.118 53.2781 109.009 53.1353 108.866 53.0337C108.723 52.9321 108.553 52.8764 108.377 52.8742C107.842 52.8742 107.25 53.1973 106.616 53.8387C105.983 54.4802 105.657 55.0878 105.657 55.6545C105.657 56.0234 105.822 56.4744 106.616 56.5347H106.636M108.769 49.7828C108.443 49.7851 108.124 49.8679 107.838 50.0239C107.523 50.1623 107.267 50.4095 107.118 50.7208C107.003 51.0536 107.024 51.3019 107.183 51.4611C107.402 51.3887 107.594 51.2517 107.734 51.068C107.821 50.962 107.928 50.8747 108.048 50.8113C108.169 50.7479 108.302 50.7097 108.437 50.6991C108.542 50.7 108.646 50.7222 108.742 50.7642C109.534 50.9812 109.942 51.5262 109.942 52.3967C109.936 52.4783 109.921 52.5591 109.899 52.6378C109.479 52.1154 109.08 51.8541 108.699 51.8541C107.934 51.8541 107.097 52.4377 106.187 53.6048C105.277 54.7719 104.823 55.755 104.824 56.5539C104.824 56.6782 104.838 56.8022 104.867 56.9229C104.924 57.1294 105.055 57.3073 105.235 57.4221C105.388 57.5501 105.578 57.6268 105.777 57.6415C106.338 57.6415 107.088 57.2396 108.027 56.4358C108.56 55.9294 108.958 55.546 109.227 55.2831C109.241 55.3644 109.26 55.4449 109.282 55.5243C109.289 55.5607 109.31 55.593 109.34 55.6152C109.369 55.6374 109.406 55.648 109.443 55.6449C109.775 55.6449 110.1 54.9922 110.417 53.6868C110.566 53.1358 110.653 52.5695 110.676 51.9988C110.7 51.4914 110.564 50.9892 110.287 50.564C110.119 50.3157 109.894 50.1125 109.63 49.9721C109.366 49.8317 109.072 49.7584 108.773 49.7586L108.769 49.7828ZM106.624 56.4165C106.062 56.3731 105.782 56.1199 105.782 55.6569C105.782 55.1192 106.086 54.5428 106.7 53.9279C107.315 53.313 107.874 53.002 108.38 53.002C108.533 53.0045 108.681 53.0539 108.805 53.1436C108.929 53.2332 109.022 53.3588 109.073 53.5035C109.205 53.758 109.272 54.0414 109.268 54.3282C109.269 54.4569 109.223 54.5814 109.138 54.6779C109.009 54.7935 108.886 54.9167 108.771 55.0468C108.006 55.7863 107.291 56.2429 106.626 56.4165H106.624ZM115.767 58.0924C114.838 57.4727 114.327 55.3266 114.26 51.7119V51.4587L114.15 51.6878C113.948 52.1097 113.682 52.7777 113.353 53.6723C113.108 54.5475 112.688 55.3631 112.118 56.0693C112.081 56.121 112.032 56.1631 111.976 56.1921C111.92 56.221 111.857 56.236 111.794 56.2356H111.708C111.617 56.0907 111.566 55.9244 111.559 55.7534C111.559 55.7148 111.559 55.6111 111.59 55.3458C111.613 55.1272 111.624 54.9074 111.624 54.6875C111.624 54.1257 111.667 53.3444 111.753 52.3654C111.784 51.7737 111.864 51.1856 111.993 50.6074C112.048 50.4392 112.166 50.299 112.322 50.2168C112.468 50.1372 112.619 50.0601 112.773 49.9757C112.822 50.065 112.855 50.162 112.871 50.2626C112.854 50.7994 112.8 51.3343 112.71 51.8638C112.615 52.4213 112.568 52.9861 112.569 53.5518V53.7929L112.674 53.5831C112.718 53.4915 112.953 52.8862 113.394 51.7287C113.62 51.1166 113.908 50.5299 114.255 49.9781C114.46 49.7295 114.737 49.5522 115.047 49.4717C115.114 49.6067 115.206 50.1541 115.206 52.1628C115.22 52.9091 115.285 53.6535 115.4 54.3909C115.621 56.0162 115.976 56.9976 116.484 57.3883L116.508 57.4076H116.537C116.653 57.3739 116.771 57.3465 116.89 57.3256C116.818 57.5697 116.684 57.7908 116.501 57.967C116.31 58.084 116.086 58.1372 115.863 58.1189L115.767 58.0924Z" fill="white"/>
<path d="M115.009 49.5353C115.065 49.7113 115.144 50.2876 115.144 52.1492C115.158 52.8979 115.223 53.6447 115.338 54.3846C115.561 56.0292 115.923 57.0227 116.447 57.4229L116.492 57.4591L116.55 57.4446C116.655 57.4133 116.734 57.394 116.79 57.382C116.724 57.5779 116.611 57.7545 116.461 57.8956C116.28 58.0048 116.069 58.0537 115.859 58.0354H115.787C114.885 57.4133 114.39 55.2865 114.321 51.7128V51.204L114.103 51.6621C113.899 52.0865 113.623 52.7569 113.301 53.6588C113.057 54.5253 112.641 55.3333 112.078 56.034C112.045 56.0779 112.004 56.1136 111.955 56.1383C111.907 56.163 111.853 56.176 111.799 56.1763H111.751C111.673 56.0448 111.629 55.8954 111.624 55.7422C111.624 55.7036 111.624 55.6048 111.655 55.3395C111.678 55.1192 111.69 54.8979 111.689 54.6764C111.689 54.1169 111.732 53.3356 111.818 52.359C111.924 51.1533 112.003 50.7434 112.058 50.618C112.108 50.4637 112.216 50.335 112.358 50.2587L112.754 50.0537C112.787 50.1183 112.809 50.1874 112.821 50.2587C112.804 50.793 112.75 51.3256 112.661 51.8526C112.566 52.4102 112.519 52.9749 112.519 53.5406L112.536 54.0229L112.747 53.6009C112.764 53.5671 112.814 53.4634 113.467 51.7417C113.692 51.1345 113.978 50.552 114.321 50.0031C114.508 49.7783 114.759 49.6166 115.041 49.5401M115.101 49.393C114.761 49.4755 114.458 49.6657 114.234 49.9356C113.885 50.4909 113.595 51.0818 113.368 51.6983C112.935 52.8445 112.695 53.461 112.649 53.5478C112.648 52.9861 112.695 52.4254 112.79 51.8719C112.88 51.3392 112.933 50.8011 112.951 50.2611C112.928 50.1319 112.884 50.0073 112.821 49.8922L112.313 50.1526C112.145 50.2437 112.017 50.3953 111.955 50.577C111.825 51.1606 111.745 51.7544 111.715 52.3518C111.629 53.338 111.586 54.1121 111.586 54.6788C111.586 54.8958 111.586 55.1128 111.555 55.3299C111.523 55.5469 111.492 55.6819 111.492 55.7398C111.498 55.9333 111.558 56.1213 111.665 56.2824C111.705 56.2917 111.746 56.2965 111.787 56.2968C111.86 56.2966 111.931 56.2795 111.995 56.2469C112.06 56.2143 112.116 56.167 112.159 56.1087C112.732 55.398 113.156 54.5776 113.404 53.6973C113.734 52.7971 113.999 52.1372 114.198 51.7176C114.27 55.3877 114.786 57.5339 115.746 58.156H115.856C116.093 58.1741 116.33 58.1167 116.533 57.992C116.743 57.7848 116.893 57.5251 116.97 57.2397H116.938C116.794 57.2543 116.652 57.2842 116.514 57.3289C116.023 56.9527 115.669 55.9665 115.453 54.3701C115.339 53.6359 115.274 52.8947 115.259 52.1516C115.259 50.4428 115.194 49.5224 115.065 49.3906L115.101 49.393ZM118.16 57.1866C118.026 57.1894 117.894 57.1528 117.781 57.0812C117.667 57.0097 117.577 56.9063 117.521 56.7839C117.398 56.5632 117.334 56.3137 117.337 56.0605C117.337 55.1779 117.946 53.8589 119.15 52.1372C119.554 51.6158 120.018 51.1447 120.532 50.7337C121.226 50.1502 121.758 49.856 122.118 49.856H122.176L122.205 49.8005C122.262 49.2917 122.293 48.3247 122.293 46.9213C122.293 46.603 122.512 46.3257 122.941 46.0918C122.982 46.1126 123.017 46.1422 123.044 46.1786C123.116 46.2606 123.123 46.2992 123.123 46.3136C123.048 46.4939 122.997 46.6838 122.972 46.8779V48.5104C122.98 49.4092 122.851 50.3038 122.588 51.163C122.315 52.0287 122.109 52.6098 121.986 52.9185C121.745 53.5195 121.428 54.0868 121.043 54.6064C120.775 54.9752 120.488 55.3301 120.184 55.6699C119.352 56.6754 118.671 57.1866 118.16 57.1866ZM121.713 50.6759C121.534 50.6987 121.362 50.7605 121.209 50.8567C120.541 51.2355 119.976 51.7728 119.563 52.4217C118.783 53.6563 118.335 54.592 118.234 55.1852C118.192 55.3128 118.179 55.4481 118.195 55.5815C118.211 55.7148 118.257 55.843 118.327 55.9568C118.388 56.023 118.462 56.0746 118.546 56.1076C118.629 56.1406 118.718 56.1542 118.807 56.1473C118.963 56.1533 119.116 56.1018 119.237 56.0026C120.119 55.2153 120.818 54.2432 121.286 53.1548C121.625 52.4136 121.874 51.6338 122.027 50.8326V50.794L121.993 50.7723C121.911 50.7134 121.814 50.6798 121.713 50.6759Z" fill="white"/>
<path d="M122.941 46.169C122.962 46.186 122.981 46.2045 122.999 46.2244C123.023 46.2508 123.044 46.2799 123.061 46.3112C122.989 46.4908 122.939 46.6787 122.912 46.8707V48.5177C122.921 49.4125 122.792 50.3033 122.529 51.1582C122.257 52.0214 122.049 52.605 121.926 52.9137C121.686 53.5069 121.372 54.0676 120.993 54.5823C120.728 54.9467 120.445 55.2969 120.144 55.6313C119.323 56.6127 118.656 57.1095 118.164 57.1095C118.041 57.1115 117.92 57.0771 117.816 57.0107C117.712 56.9443 117.63 56.8487 117.579 56.7357C117.463 56.5282 117.401 56.294 117.401 56.0557C117.401 55.1876 118.008 53.8854 119.203 52.1685C119.604 51.6504 120.064 51.1825 120.576 50.7747C121.257 50.2008 121.775 49.9115 122.123 49.9115H122.257V49.8005C122.315 49.2893 122.346 48.3199 122.346 46.9069C122.346 46.6151 122.538 46.3667 122.934 46.1473M118.805 56.1859C118.975 56.1922 119.142 56.1355 119.273 56.0268C120.162 55.2338 120.867 54.2542 121.339 53.1572C121.68 52.4123 121.929 51.6284 122.082 50.823L122.097 50.7434L122.032 50.7C121.936 50.6333 121.822 50.5964 121.706 50.5939C121.515 50.6159 121.331 50.681 121.168 50.7844C120.494 51.1691 119.924 51.7128 119.506 52.3687C118.709 53.6274 118.272 54.5389 118.169 55.1514C118.095 55.5276 118.128 55.7977 118.275 55.9737C118.341 56.0477 118.423 56.1054 118.515 56.1422C118.607 56.179 118.706 56.194 118.805 56.1859ZM122.924 46.0146C122.457 46.2558 122.226 46.5596 122.226 46.9069C122.226 48.3151 122.197 49.2724 122.138 49.7788H122.111C121.737 49.7788 121.195 50.0762 120.487 50.6711C119.968 51.0839 119.501 51.5584 119.095 52.0841C117.877 53.8252 117.268 55.145 117.27 56.0436C117.269 56.3032 117.336 56.5584 117.464 56.7839C117.524 56.9156 117.622 57.0268 117.744 57.1039C117.866 57.1809 118.008 57.2206 118.152 57.218C118.685 57.218 119.375 56.7108 120.223 55.6964C120.741 55.0863 121.027 54.7318 121.084 54.6306C121.474 54.1111 121.797 53.5439 122.044 52.9426C122.173 52.6388 122.374 52.0512 122.646 51.1799C122.913 50.3142 123.045 49.4119 123.035 48.5056V46.8731C123.061 46.6794 123.112 46.4898 123.186 46.3088C123.174 46.2417 123.141 46.18 123.092 46.1328C123.028 46.0605 122.976 46.0243 122.934 46.0243L122.924 46.0146ZM118.805 56.0653C118.344 56.0653 118.169 55.7687 118.287 55.1731C118.404 54.5775 118.827 53.666 119.606 52.4338C120.014 51.7926 120.571 51.2618 121.231 50.8881C121.376 50.7963 121.54 50.7371 121.71 50.7145C121.804 50.7167 121.894 50.7469 121.97 50.8013C121.818 51.5966 121.572 52.3707 121.235 53.1066C120.771 54.1875 120.077 55.153 119.201 55.9351C119.09 56.0245 118.952 56.0708 118.81 56.0653H118.805ZM126.778 62.7497C126.714 62.7426 126.652 62.7211 126.598 62.687C126.583 62.3398 126.578 61.8406 126.578 61.1992L126.905 56.6706L126.883 56.6513C126.67 56.456 126.643 56.4102 126.643 56.4102C126.644 56.3032 126.67 56.1979 126.719 56.1029C126.767 56.0078 126.838 55.9255 126.924 55.8628L126.943 55.8459V55.8218C126.986 55.518 127.054 55.0614 127.147 54.4521C127.241 53.8469 127.339 53.2995 127.44 52.8244C127.469 52.6797 127.516 52.4169 127.588 52.0311C127.684 51.9176 127.801 51.8235 127.932 51.7538L128.524 51.4258V51.4933C128.533 51.587 128.554 51.6793 128.584 51.7682C128.476 52.0764 128.391 52.3924 128.33 52.7135C128.168 53.4621 128.066 54.2225 128.025 54.9875V55.0839L128.111 55.0429C128.618 54.8018 129.093 54.5389 129.522 54.2785C129.976 54.0278 130.406 53.7347 130.806 53.4032C131.389 52.9378 131.674 52.6026 131.674 52.3783C131.674 52.1541 131.398 51.925 130.83 51.7538C130.519 51.651 130.197 51.5918 129.87 51.5777C129.772 51.5777 129.345 51.5271 128.601 51.4258H128.541L128.567 51.4114H128.327L127.848 51.3462C127.679 51.3183 127.521 51.2478 127.387 51.1413C127.431 50.9648 127.513 50.8002 127.627 50.659C127.674 50.5824 127.738 50.5179 127.814 50.4706C127.891 50.4233 127.977 50.3945 128.066 50.3865L128.282 50.4709C128.39 50.5181 128.503 50.5552 128.618 50.5818C129.577 50.741 130.537 50.8881 131.497 51.0183C131.768 51.0537 132.024 51.1629 132.238 51.3342C132.337 51.3922 132.421 51.4733 132.483 51.5706C132.545 51.6679 132.583 51.7787 132.593 51.8936C132.593 52.3639 132.01 53.0366 130.863 53.8903C130.463 54.1941 129.481 54.7921 127.948 55.6699L127.924 55.6843V55.7109C127.867 56.0171 127.795 56.6754 127.708 57.6979C127.579 59.6607 127.514 60.8182 127.514 61.1389V62.2916C127.514 62.2916 127.514 62.3736 127.195 62.5665C127.07 62.6564 126.928 62.7188 126.778 62.7497Z" fill="white"/>
<path d="M128.083 50.4344C128.099 50.4344 128.15 50.4561 128.289 50.5115C128.402 50.5606 128.519 50.5994 128.639 50.6273C129.599 50.784 130.559 50.9311 131.518 51.0637C131.781 51.0977 132.03 51.2027 132.238 51.3676C132.329 51.4207 132.407 51.4947 132.464 51.5835C132.522 51.6723 132.558 51.7734 132.569 51.8788C132.569 52.1875 132.272 52.7782 130.863 53.8272C130.463 54.1286 129.484 54.7267 127.953 55.602L127.905 55.6309V55.684C127.845 55.9975 127.776 56.6485 127.687 57.6782C127.557 59.6435 127.492 60.813 127.492 61.1241V62.2502C127.492 62.2502 127.459 62.325 127.202 62.4914C127.081 62.5873 126.94 62.6556 126.789 62.6915C126.746 62.6866 126.705 62.6726 126.667 62.6505C126.655 62.3081 126.65 61.821 126.648 61.2037L126.96 56.704V56.6461L126.917 56.6075C126.838 56.5388 126.764 56.4646 126.696 56.3857C126.699 56.291 126.724 56.1984 126.769 56.1148C126.813 56.0313 126.876 55.959 126.953 55.9034L126.991 55.8745V55.8263C127.037 55.5104 127.106 55.0498 127.197 54.4566C127.289 53.8634 127.389 53.3063 127.488 52.8313C127.516 52.689 127.564 52.4286 127.636 52.0524C127.724 51.9528 127.83 51.8709 127.948 51.8113L128.38 51.5701L128.467 51.5243C128.477 51.6061 128.495 51.6867 128.519 51.7655C128.417 52.0711 128.337 52.3838 128.279 52.7011C128.118 53.4529 128.016 54.2166 127.975 54.9847V55.1776L128.147 55.0932C128.654 54.852 129.131 54.5892 129.558 54.3288C130.016 54.0757 130.449 53.7811 130.854 53.4486C131.65 52.812 131.744 52.5299 131.744 52.3755C131.744 52.0958 131.454 51.8716 130.856 51.6931C130.537 51.5886 130.205 51.5286 129.87 51.5147C129.808 51.5147 129.556 51.4906 128.726 51.3796H128.74H128.57L128.455 51.3628H128.339L127.874 51.2976C127.728 51.2739 127.59 51.2161 127.471 51.1288C127.521 50.97 127.602 50.8231 127.711 50.6972C127.752 50.6314 127.808 50.5756 127.873 50.5339C127.939 50.4922 128.013 50.4657 128.09 50.4561M128.102 50.3331C128.005 50.3417 127.911 50.3727 127.828 50.4238C127.744 50.4748 127.674 50.5444 127.622 50.6273C127.488 50.7869 127.394 50.9774 127.351 51.1819C127.5 51.3081 127.679 51.3914 127.872 51.423L128.351 51.4881L127.919 51.7293C127.778 51.8043 127.653 51.9077 127.552 52.0331C127.478 52.4262 127.428 52.6938 127.399 52.8385C127.298 53.3208 127.201 53.865 127.109 54.471C127.013 55.0787 126.945 55.5369 126.902 55.8407C126.807 55.9104 126.73 56.0019 126.678 56.1076C126.625 56.2134 126.598 56.3302 126.6 56.4484C126.6 56.4773 126.686 56.5738 126.859 56.7329L126.535 61.235C126.535 61.903 126.535 62.4094 126.557 62.759C126.629 62.8071 126.711 62.8368 126.797 62.8458C126.971 62.8101 127.135 62.7359 127.277 62.6288C127.516 62.4817 127.624 62.3732 127.624 62.3008V61.1482C127.624 60.8267 127.689 59.6813 127.819 57.712C127.905 56.696 127.977 56.036 128.035 55.7322C129.577 54.848 130.551 54.2532 130.957 53.9478C132.126 53.0781 132.711 52.3964 132.711 51.9029C132.7 51.7783 132.66 51.658 132.594 51.5519C132.528 51.4458 132.438 51.357 132.332 51.2928C132.109 51.1177 131.844 51.0053 131.564 50.9673C130.604 50.8371 129.645 50.6924 128.685 50.5332C128.573 50.5062 128.464 50.4699 128.359 50.4247C128.28 50.39 128.2 50.3602 128.119 50.3355L128.102 50.3331ZM128.102 55.0112C128.143 54.2504 128.244 53.494 128.404 52.7493C128.466 52.4215 128.554 52.099 128.666 51.7847C128.632 51.6938 128.611 51.599 128.601 51.5026C129.349 51.6039 129.776 51.6545 129.877 51.6545C130.204 51.6677 130.527 51.7261 130.837 51.8282C131.37 51.9873 131.638 52.1754 131.638 52.3948C131.638 52.6143 131.355 52.9229 130.794 53.3739C130.395 53.7023 129.967 53.993 129.515 54.242C129.083 54.504 128.614 54.758 128.109 55.004L128.102 55.0112ZM133.195 56.2C132.42 56.2 132.044 55.9082 132.044 55.303C132.044 54.4566 132.982 53.2798 134.834 51.8065C135.421 51.3521 136.048 50.9533 136.708 50.6152C137.562 50.1715 138.229 49.9473 138.692 49.9473C138.992 49.9473 139.131 50.0944 139.131 50.4103C139.131 50.6249 138.913 50.9166 138.481 51.2832C137.898 51.7655 136.561 52.525 134.488 53.5234L133.625 53.9164C133.241 54.1335 133.049 54.3794 133.049 54.6398C133.049 55.086 133.368 55.3102 133.997 55.3102C134.397 55.3102 135.086 55.1004 136.098 54.6664C137.514 54.0515 138.087 53.8489 138.303 53.8007C138.183 54.0683 137.667 54.5241 136.05 55.2475C134.664 55.8817 133.704 56.2 133.195 56.2ZM137.972 50.8708C137.568 50.9291 137.171 51.0326 136.789 51.1795C136.007 51.4874 135.299 51.9592 134.712 52.5636L134.563 52.7059L134.764 52.6649C135.362 52.5034 135.941 52.2761 136.489 51.9873C137.42 51.5557 137.929 51.2181 138.035 50.9552L138.073 50.8612L137.972 50.8708Z" fill="white"/>
<path d="M138.69 50.0075C138.957 50.0075 139.069 50.1281 139.069 50.4102C139.069 50.5452 138.959 50.796 138.441 51.2349C137.86 51.7172 136.522 52.4743 134.465 53.4678L134.108 53.6318L133.59 53.873C133.189 54.0996 132.988 54.3552 132.988 54.6567C132.988 54.9894 133.163 55.3801 133.995 55.3801C134.405 55.3801 135.099 55.1679 136.121 54.7314C137.32 54.2081 137.901 53.9911 138.175 53.9067C137.971 54.172 137.407 54.5795 136.015 55.1944C134.624 55.8093 133.686 56.1397 133.187 56.1397C132.208 56.1397 132.095 55.6574 132.095 55.3029C132.095 54.4758 133.026 53.3159 134.861 51.8522C135.446 51.4025 136.07 51.0063 136.725 50.6682C137.572 50.2293 138.23 50.0075 138.683 50.0075M134.365 52.8047L134.768 52.7251C135.37 52.5623 135.952 52.3335 136.505 52.0427C137.764 51.4591 138.009 51.1553 138.081 50.9769L138.158 50.7912L137.959 50.8105C137.549 50.8693 137.146 50.9736 136.759 51.1216C135.968 51.4319 135.252 51.9088 134.66 52.5202L134.362 52.8047M138.681 49.8869C138.201 49.8869 137.53 50.112 136.668 50.5621C136.005 50.9049 135.376 51.3085 134.787 51.7678C132.911 53.2597 131.973 54.4412 131.973 55.3126C131.973 55.9556 132.377 56.2771 133.184 56.2771C133.705 56.2771 134.662 55.9588 136.063 55.3126C137.533 54.6695 138.305 54.1479 138.379 53.7476C138.191 53.7476 137.42 54.0418 136.063 54.6301C135.068 55.0561 134.376 55.2692 133.986 55.2692C133.394 55.2692 133.098 55.0658 133.098 54.6591C133.098 54.4179 133.278 54.1768 133.638 53.9815L134.521 53.5691C136.6 52.5644 137.935 51.8144 138.525 51.3193C138.973 50.9399 139.197 50.6336 139.197 50.4005C139.197 50.0533 139.031 49.8773 138.698 49.8773L138.681 49.8869ZM137.961 50.9311C137.86 51.1722 137.354 51.5122 136.445 51.9318C135.909 52.2171 135.345 52.4427 134.761 52.6046C135.341 52.0051 136.042 51.5373 136.817 51.2325C137.193 51.0871 137.585 50.9852 137.985 50.9286L137.961 50.9311ZM140.559 56.2217C140.296 56.2203 140.037 56.1591 139.801 56.0426C139.565 55.9261 139.358 55.7573 139.197 55.5489C139.048 55.3728 138.974 55.0328 138.974 54.5433C138.992 53.5548 139.25 52.5858 139.724 51.7196C140.154 50.9328 140.79 50.279 141.562 49.829C141.721 49.7247 141.886 49.6313 142.056 49.5493C142.193 49.4959 142.337 49.4689 142.484 49.4697C142.57 49.4801 142.653 49.5125 142.723 49.5638C142.692 49.6361 142.563 49.9544 142.563 49.9544L142.635 49.9689C142.865 50.0367 143.085 50.1366 143.287 50.2655C143.566 50.4848 143.794 50.7635 143.953 51.0816C144.112 51.3997 144.2 51.7494 144.209 52.1054C144.175 52.5483 144.111 52.9882 144.017 53.422C143.884 53.8926 143.627 54.3183 143.273 54.6542C142.948 54.9927 142.596 55.3032 142.22 55.5826C141.745 55.9629 141.165 56.1862 140.559 56.2217ZM141.944 50.2631C141.693 50.3074 141.458 50.4153 141.26 50.5766C140.806 50.8732 140.418 51.423 140.113 52.2139C139.882 52.8038 139.756 53.4298 139.741 54.0635C139.73 54.2942 139.781 54.5237 139.889 54.7278C139.996 54.9319 140.157 55.1031 140.353 55.2233C140.63 55.3937 140.947 55.4877 141.272 55.4958C141.506 55.4938 141.737 55.4394 141.948 55.3367C142.483 55.0351 142.914 54.5788 143.186 54.0273C143.463 53.5568 143.615 53.023 143.628 52.4768C143.628 51.464 143.249 50.8322 142.503 50.591C142.426 50.529 142.34 50.4787 142.248 50.4415C142.076 50.2824 141.992 50.2631 141.944 50.2631Z" fill="white"/>
<path d="M142.49 49.5296C142.553 49.5343 142.613 49.5542 142.666 49.5875L142.553 49.8624L142.495 49.9974L142.639 50.0264C142.859 50.0912 143.069 50.1869 143.263 50.3109C143.536 50.524 143.759 50.7955 143.915 51.1058C144.071 51.4161 144.156 51.7574 144.165 52.105C144.131 52.5438 144.067 52.9798 143.973 53.4096C143.847 53.8699 143.598 54.2868 143.253 54.6153C142.933 54.952 142.583 55.2602 142.21 55.5364C141.741 55.9114 141.169 56.1313 140.571 56.1658C140.316 56.1665 140.065 56.1078 139.836 55.9944C139.608 55.881 139.408 55.716 139.254 55.5123C139.115 55.3483 139.045 55.03 139.045 54.5477C139.064 53.5701 139.319 52.6117 139.789 51.7553C140.214 50.9733 140.846 50.3247 141.615 49.8817C141.768 49.7802 141.928 49.69 142.094 49.6116C142.225 49.5604 142.364 49.5342 142.505 49.5345M141.291 55.5629C141.535 55.5608 141.776 55.5039 141.996 55.3966C142.54 55.089 142.98 54.6245 143.258 54.0631C143.54 53.5838 143.694 53.04 143.707 52.4836C143.707 51.4515 143.32 50.7956 142.56 50.5545C142.486 50.4966 142.405 50.4473 142.32 50.4074C142.23 50.3057 142.108 50.2383 141.975 50.2169C141.71 50.2586 141.462 50.3701 141.255 50.54C140.789 50.8414 140.393 51.4033 140.082 52.2087C139.849 52.8047 139.722 53.4373 139.707 54.0775C139.698 54.3181 139.753 54.5568 139.866 54.7689C139.98 54.9809 140.148 55.1585 140.353 55.2832C140.638 55.4567 140.964 55.5523 141.298 55.5605M142.512 49.4139C142.356 49.4131 142.201 49.4426 142.056 49.5007C141.884 49.5828 141.718 49.6771 141.559 49.7828C140.775 50.2362 140.131 50.8988 139.698 51.6975C139.212 52.565 138.945 53.5383 138.918 54.5333C138.918 55.0397 138.997 55.3893 139.158 55.5774C139.325 55.7932 139.538 55.9679 139.782 56.0882C140.026 56.2086 140.294 56.2714 140.566 56.2719C141.189 56.2393 141.787 56.0117 142.274 55.6208C142.654 55.3403 143.009 55.0273 143.335 54.6852C143.698 54.3427 143.96 53.9064 144.093 53.424C144.189 52.9864 144.254 52.5424 144.287 52.0954C144.279 51.7277 144.188 51.3668 144.022 51.0391C143.856 50.7115 143.618 50.4255 143.328 50.2024C143.12 50.07 142.895 49.9678 142.658 49.8986L142.809 49.5296C142.716 49.4564 142.604 49.4112 142.486 49.3994L142.512 49.4139ZM141.298 55.4424C140.984 55.434 140.678 55.3434 140.41 55.1795C140.222 55.0648 140.069 54.9011 139.966 54.7058C139.864 54.5105 139.816 54.2909 139.827 54.0703C139.842 53.4441 139.966 52.8254 140.194 52.2425C140.499 51.4612 140.873 50.9234 141.32 50.6341C141.509 50.4813 141.732 50.377 141.97 50.3302C142.027 50.3302 142.121 50.3881 142.25 50.5038C142.344 50.5432 142.432 50.5942 142.512 50.6558C143.232 50.8872 143.592 51.4965 143.594 52.4836C143.581 53.0198 143.432 53.5437 143.16 54.0052C142.897 54.5444 142.479 54.9915 141.96 55.288C141.758 55.3882 141.536 55.441 141.31 55.4424H141.298ZM144.657 62.7489C144.593 62.7417 144.531 62.7203 144.477 62.6862C144.465 62.339 144.458 61.8398 144.458 61.1984L144.784 56.6698L144.762 56.6505C144.673 56.5797 144.593 56.4988 144.522 56.4093C144.523 56.3021 144.549 56.1966 144.598 56.1014C144.648 56.0062 144.719 55.9242 144.806 55.862L144.825 55.8451V55.821C144.868 55.5171 144.937 55.0606 145.031 54.4513C145.125 53.846 145.223 53.2986 145.321 52.8236C145.35 52.6789 145.401 52.4161 145.47 52.0302C145.567 51.9179 145.683 51.824 145.813 51.7529L146.408 51.425V51.4925C146.419 51.586 146.439 51.6781 146.468 51.7674C146.361 52.0759 146.276 52.3918 146.214 52.7127C146.053 53.4613 145.952 54.2217 145.912 54.9866V55.0831L145.998 55.0421C146.502 54.8009 146.977 54.5381 147.409 54.2777C147.863 54.0263 148.292 53.7333 148.692 53.4023C149.275 52.9369 149.558 52.6018 149.558 52.3775C149.558 52.1532 149.282 51.9241 148.714 51.7529C148.404 51.6502 148.081 51.591 147.754 51.5769C147.656 51.5769 147.229 51.5263 146.485 51.425H146.425L146.451 51.4105H146.212L145.732 51.3454C145.562 51.318 145.403 51.2474 145.269 51.1404C145.314 50.9644 145.395 50.7999 145.509 50.6582C145.556 50.5814 145.621 50.5168 145.697 50.4694C145.774 50.4221 145.86 50.3935 145.95 50.3857L146.166 50.4701C146.274 50.5168 146.385 50.5539 146.499 50.581C147.459 50.7402 148.419 50.8872 149.378 51.0175C149.649 51.0534 149.904 51.1626 150.117 51.3334C150.217 51.3914 150.301 51.4724 150.363 51.5697C150.424 51.6671 150.462 51.7778 150.472 51.8928C150.472 52.363 149.892 53.0358 148.743 53.8894C148.342 54.1909 147.361 54.7913 145.828 55.669L145.804 55.6835V55.71C145.746 56.0163 145.672 56.6746 145.585 57.697C145.456 59.6599 145.391 60.8174 145.391 61.1381V62.2907C145.391 62.2907 145.391 62.3727 145.072 62.5656C144.948 62.6556 144.807 62.7181 144.657 62.7489Z" fill="white"/>
<path d="M145.965 50.4348C145.982 50.4348 146.032 50.4565 146.169 50.512C146.282 50.5611 146.399 50.5998 146.519 50.6278C147.479 50.7845 148.439 50.9316 149.398 51.0642C149.661 51.0977 149.91 51.2027 150.118 51.3681C150.21 51.4209 150.287 51.4948 150.345 51.5836C150.402 51.6725 150.438 51.7738 150.449 51.8793C150.449 52.1879 150.154 52.7787 148.743 53.8277C148.345 54.1291 147.366 54.7271 145.836 55.6025L145.788 55.6314V55.6845C145.73 55.9979 145.658 56.649 145.569 57.6787C145.44 59.644 145.375 60.8135 145.375 61.1246V62.2507C145.375 62.2507 145.341 62.3254 145.082 62.4918C144.787 62.6775 144.694 62.692 144.67 62.692C144.627 62.6868 144.586 62.6729 144.55 62.651C144.538 62.3086 144.53 61.8215 144.53 61.2041L144.84 56.7045V56.6466L144.797 56.608C144.718 56.5392 144.644 56.4651 144.576 56.3862C144.58 56.2915 144.605 56.1988 144.649 56.1153C144.693 56.0317 144.756 55.9594 144.833 55.9039L144.871 55.875V55.8267C144.917 55.5108 144.984 55.0503 145.075 54.4571C145.166 53.8639 145.267 53.3068 145.368 52.8318C145.397 52.6895 145.444 52.4291 145.514 52.0529C145.603 51.9543 145.708 51.8727 145.826 51.8118L146.26 51.5706L146.347 51.5248C146.356 51.6068 146.374 51.6876 146.399 51.7659C146.297 52.0716 146.217 52.3843 146.159 52.7016C145.997 53.4532 145.895 54.2169 145.855 54.9852V55.1781L146.025 55.0937C146.534 54.8525 147.009 54.5897 147.438 54.3293C147.895 54.0767 148.328 53.7821 148.731 53.4491C149.53 52.8125 149.621 52.5304 149.621 52.376C149.621 52.0963 149.331 51.872 148.734 51.6936C148.415 51.5889 148.083 51.5289 147.748 51.5152C147.685 51.5152 147.433 51.491 146.606 51.3801H146.62H146.447L146.335 51.3632H146.217L145.754 51.2981C145.608 51.2741 145.469 51.2163 145.349 51.1293C145.399 50.9709 145.481 50.8242 145.588 50.6977C145.63 50.6316 145.686 50.5756 145.752 50.5339C145.818 50.4922 145.893 50.4658 145.97 50.4565M145.97 50.3336C145.873 50.3418 145.779 50.3727 145.695 50.4238C145.612 50.4748 145.542 50.5447 145.49 50.6278C145.355 50.7868 145.262 50.9776 145.219 51.1824C145.367 51.3085 145.546 51.3918 145.737 51.4235L146.217 51.4886L145.783 51.7298C145.641 51.8047 145.516 51.9082 145.416 52.0336C145.344 52.4267 145.293 52.6943 145.265 52.839C145.164 53.3213 145.066 53.8655 144.972 54.4715C144.878 55.0792 144.809 55.5374 144.766 55.8412C144.671 55.9109 144.594 56.0024 144.541 56.1081C144.488 56.2138 144.462 56.3307 144.463 56.4489C144.463 56.4778 144.55 56.5743 144.722 56.7334L144.398 61.2355C144.398 61.9034 144.398 62.4098 144.42 62.7595C144.492 62.8075 144.574 62.8373 144.66 62.8463C144.834 62.8105 144.998 62.7364 145.14 62.6293C145.38 62.4822 145.485 62.3737 145.485 62.3013V61.1487C145.485 60.8272 145.55 59.6817 145.68 57.7124C145.766 56.6964 145.838 56.0365 145.896 55.7327C147.441 54.8485 148.415 54.2537 148.818 53.9482C149.989 53.0785 150.573 52.3969 150.572 51.9034C150.561 51.7788 150.521 51.6585 150.455 51.5524C150.389 51.4463 150.299 51.3575 150.192 51.2933C149.97 51.1177 149.705 51.0053 149.425 50.9678C148.465 50.8375 147.505 50.6929 146.546 50.5337C146.435 50.5066 146.327 50.4703 146.222 50.4252C146.144 50.3909 146.063 50.3612 145.982 50.336L145.97 50.3336ZM145.97 55.0117C146.011 54.2508 146.112 53.4945 146.272 52.7498C146.334 52.422 146.42 52.0995 146.531 51.7852C146.498 51.6943 146.476 51.5995 146.467 51.5031C147.217 51.6044 147.642 51.655 147.743 51.655C148.069 51.6679 148.392 51.7263 148.703 51.8286C149.238 51.9878 149.504 52.1759 149.504 52.3953C149.504 52.6147 149.223 52.9234 148.659 53.3743C148.262 53.7028 147.834 53.9934 147.383 54.2424C146.951 54.5053 146.481 54.7585 145.977 55.0044L145.97 55.0117ZM150.665 56.1571C150.495 56.1571 150.425 56.092 150.425 55.9352C150.425 55.3806 150.742 54.2979 151.361 52.7184C151.507 52.3085 151.994 51.0305 152.8 48.8891C153.28 47.599 153.556 46.5308 153.597 45.7157C153.638 45.6193 153.693 45.4505 153.762 45.2335C153.873 45.1635 154.002 45.0936 154.13 45.0188C154.208 44.9674 154.298 44.9352 154.391 44.9248H154.415C154.415 44.9248 154.475 44.9682 154.475 45.2118C154.408 45.8991 154.278 46.5788 154.086 47.2422C154.086 47.2807 153.933 47.6931 153.309 49.4341C152.98 50.295 152.515 51.6044 151.922 53.3502C151.807 53.8759 151.642 54.6307 151.428 55.6218L151.035 55.9811C150.937 56.0826 150.805 56.1452 150.665 56.1571Z" fill="white"/>
<path d="M154.384 44.9799C154.413 45.0566 154.425 45.1392 154.417 45.2211C154.349 45.9034 154.22 46.5782 154.031 47.237C154.019 47.2828 153.875 47.6976 153.256 49.4217C152.927 50.2826 152.46 51.592 151.869 53.3403V53.3547C151.757 53.8684 151.593 54.6183 151.39 55.5997L151.008 55.9446C150.921 56.0371 150.803 56.0953 150.677 56.1085C150.523 56.1085 150.492 56.0531 150.492 55.947C150.492 55.3996 150.807 54.3241 151.425 52.7495C151.569 52.3443 152.056 51.0615 152.865 48.9226C153.345 47.6349 153.618 46.5666 153.664 45.7492C153.705 45.6407 153.755 45.4863 153.82 45.2669C153.923 45.2042 154.038 45.1367 154.165 45.0668C154.233 45.0227 154.309 44.9932 154.389 44.9799M154.389 44.8594C154.285 44.8697 154.186 44.9044 154.098 44.9607C153.954 45.0402 153.825 45.115 153.71 45.2018C153.638 45.4333 153.58 45.6069 153.537 45.7227C153.495 46.5281 153.235 47.5762 152.755 48.8671C151.931 51.0165 151.451 52.2929 151.315 52.6964C150.675 54.2911 150.355 55.3707 150.355 55.9349C150.355 56.123 150.456 56.2171 150.66 56.2171C150.816 56.2051 150.962 56.1355 151.07 56.0217L151.483 55.6528C151.699 54.6529 151.865 53.8917 151.98 53.3692C152.573 51.6282 153.035 50.3228 153.364 49.4531C153.869 48.0448 154.129 47.3126 154.144 47.2563C154.337 46.5875 154.468 45.9021 154.535 45.209C154.535 45.0065 154.496 44.8907 154.424 44.8618L154.389 44.8594ZM154.002 56.2002C153.227 56.2002 152.851 55.9084 152.851 55.3031C152.851 54.4567 153.789 53.28 155.641 51.8066C156.227 51.3517 156.855 50.9529 157.515 50.6154C158.369 50.1717 159.036 49.9474 159.499 49.9474C159.799 49.9474 159.938 50.0945 159.938 50.4104C159.938 50.625 159.72 50.9168 159.288 51.2833C158.702 51.7656 157.368 52.5252 155.295 53.5235L154.432 53.9166C154.048 54.1336 153.856 54.3796 153.856 54.64C153.856 55.0861 154.175 55.3104 154.804 55.3104C155.204 55.3104 155.893 55.1006 156.903 54.6665C158.318 54.0516 158.894 53.8491 159.11 53.8008C158.988 54.0685 158.474 54.5243 156.857 55.2477C155.471 55.8819 154.511 56.2002 154.002 56.2002ZM158.779 50.871C158.375 50.9292 157.978 51.0328 157.596 51.1796C156.814 51.4876 156.105 51.9594 155.519 52.5638L155.37 52.7061L155.571 52.6651C156.169 52.5035 156.748 52.2763 157.296 51.9875C158.227 51.5558 158.736 51.2182 158.841 50.9554L158.88 50.8613L158.779 50.871Z" fill="white"/>
<path d="M159.499 50.0081C159.766 50.0081 159.878 50.1287 159.878 50.4108C159.878 50.5459 159.768 50.7967 159.25 51.2355C158.669 51.7178 157.33 52.475 155.274 53.4685L154.917 53.6325L154.399 53.8736C153.998 54.1003 153.796 54.3559 153.796 54.6573C153.796 54.9901 153.972 55.3807 154.804 55.3807C155.214 55.3807 155.908 55.1685 156.93 54.7321C158.129 54.2088 158.71 53.9918 158.983 53.9074C158.78 54.1726 158.216 54.5801 156.824 55.1951C155.433 55.81 154.495 56.1403 153.996 56.1403C153.017 56.1403 152.904 55.658 152.904 55.3036C152.904 54.4765 153.835 53.3166 155.67 51.8529C156.261 51.4041 156.892 51.0102 157.554 50.6761C158.398 50.2372 159.058 50.0154 159.511 50.0154M155.193 52.8126L155.596 52.733C156.198 52.5702 156.78 52.3414 157.333 52.0506C158.592 51.467 158.835 51.1632 158.909 50.9848L158.986 50.7991L158.787 50.8184C158.377 50.8769 157.974 50.9812 157.587 51.1294C156.796 51.4398 156.08 51.9167 155.488 52.5281L155.19 52.8126M159.509 49.8948C159.029 49.8948 158.358 50.1199 157.496 50.57C156.833 50.9134 156.203 51.3169 155.613 51.7757C153.738 53.2675 152.801 54.4491 152.801 55.3204C152.801 55.9635 153.205 56.285 154.012 56.285C154.531 56.285 155.49 55.9635 156.891 55.3204C158.361 54.6774 159.133 54.1557 159.207 53.7555C159.019 53.7555 158.248 54.0496 156.891 54.638C155.893 55.0512 155.198 55.2578 154.804 55.2578C154.212 55.2578 153.916 55.0544 153.916 54.6477C153.916 54.4065 154.096 54.1654 154.456 53.9701L155.322 53.5698C157.402 52.565 158.736 51.8151 159.327 51.3199C159.773 50.9414 159.998 50.6351 159.998 50.4012C159.998 50.054 159.833 49.8779 159.499 49.8779L159.509 49.8948ZM158.789 50.9389C158.686 51.1801 158.182 51.5201 157.273 51.9397C156.729 52.228 156.156 52.4544 155.562 52.6149C156.143 52.0165 156.844 51.5488 157.618 51.2428C157.996 51.0976 158.389 50.9957 158.789 50.9389Z" fill="white"/>
</svg>
