<svg width="120" height="80" viewBox="0 0 120 80" fill="none" xmlns="http://www.w3.org/2000/svg">
<path d="M12 76.4017H13.799V65.6492L24.6279 76.9949V61.9755H22.8295V72.6328L12 61.2871V76.4017ZM27.7688 76.4017H35.5171V74.7562H29.5671V69.3035H35.3482V67.658H29.5704V63.621H35.5204V61.9755H27.7688V76.4017ZM46.5852 63.621H43.1602V76.4017H41.3618V63.621H37.9374V61.9755H46.5839L46.5852 63.621ZM56.6628 69.1313V70.7768H60.3935C60.3164 73.1301 57.9061 75.0625 55.6674 75.0625C52.5486 75.0625 50.0619 72.1924 50.0619 69.1695C50.0619 65.9361 52.5868 63.3153 55.8202 63.3153C57.581 63.3153 59.3217 64.2537 60.3553 65.668L61.6174 64.4615C60.2018 62.6819 57.9825 61.6685 55.7438 61.6685C51.5922 61.6685 48.2629 65.0735 48.2629 69.2258C48.2629 73.2239 51.5157 76.7067 55.5528 76.7067C59.5898 76.7067 62.3828 73.6643 62.3828 69.7044V69.1299L56.6628 69.1313ZM76.0108 76.4017L74.3652 72.7822H67.7457L66.1002 76.4017H64.1698L71.0575 61.3635L77.9452 76.4017H76.0108ZM71.0555 65.3047L68.4917 71.1401H73.6206L71.0555 65.3047ZM87.837 76.708L92.1609 66.8738H92.1991L93.8828 76.4017H95.7395L92.7903 61.3635L87.835 72.7286L82.8797 61.3635L79.9305 76.4017H81.7865L83.4735 66.8738H83.5117L87.837 76.708ZM107 76.4017H99.2503V61.9755H107V63.621H101.049V67.658H106.828V69.3035H101.049V74.7562H107V76.4017Z" fill="white"/>
<path d="M50.0938 54.6585H59.9239H69.7534L59.9239 44.707L50.0938 54.6585Z" fill="white"/>
<path d="M76.521 27.6836L63.3281 41.0394L76.521 54.3952L89.714 41.0394L76.521 27.6836ZM67.7238 41.0387L76.521 32.2414L85.3183 41.0387L76.521 49.836L67.7238 41.0387Z" fill="white"/>
<path d="M42.4742 27.6836L29.2812 41.0394L42.4742 54.3952L55.6671 41.0394L42.4742 27.6836ZM33.6769 41.0387L42.4742 32.2414L51.2715 41.0387L42.4742 49.836L33.6769 41.0387Z" fill="white"/>
<path d="M59.7125 37.8976L76.9485 20.4525L59.7125 3L42.4766 20.4525L43.7983 21.793L59.7125 37.8976ZM59.7125 9.4547L70.705 20.4471L59.7125 31.4395L48.7201 20.4471L59.7125 9.4547Z" fill="white"/>
<path d="M76.5234 35.5039L70.9883 41.039L76.5234 46.5741L82.0585 41.039L76.5234 35.5039ZM77.8264 42.3407C76.8491 43.397 76.5234 44.2952 76.5234 44.2952C76.5234 44.2952 76.3605 43.6437 75.3839 42.5035C74.4073 41.3634 73.2665 41.0376 73.2665 41.0376C73.2665 41.0376 74.2438 40.7119 75.221 39.7346C76.1983 38.7574 76.524 37.7801 76.524 37.7801C76.8251 38.5113 77.2679 39.1755 77.827 39.7346C78.3861 40.2937 79.0504 40.7366 79.7816 41.0376C79.7816 41.0376 78.8036 41.2863 77.8264 42.3427V42.3407Z" fill="white"/>
<path d="M59.7114 12.7168L51.9805 20.4477L59.7114 28.1786L67.4422 20.4477L59.7114 12.7168ZM61.4138 22.1502C60.137 23.5303 59.7114 24.7039 59.7114 24.7039C59.7114 24.7039 59.4989 23.8527 58.222 22.3633C56.9452 20.874 55.4551 20.4517 55.4551 20.4517C55.4551 20.4517 56.7287 20.0261 58.0089 18.7492C59.2891 17.4724 59.7114 16.1955 59.7114 16.1955C60.1047 17.1508 60.6833 18.0187 61.4138 18.7492C62.1443 19.4798 63.0123 20.0584 63.9676 20.4517C63.9676 20.4517 62.6941 20.7708 61.4138 22.1502Z" fill="white"/>
<path d="M42.4765 35.5039L36.9414 41.039L42.4765 46.5741L48.0116 41.039L42.4765 35.5039ZM43.7795 42.3407C42.8022 43.397 42.4765 44.2952 42.4765 44.2952C42.4765 44.2952 42.3136 43.6437 41.337 42.5035C40.3604 41.3634 39.2197 41.0376 39.2197 41.0376C39.2197 41.0376 40.1969 40.7119 41.1742 39.7346C42.1514 38.7574 42.4772 37.7801 42.4772 37.7801C42.7782 38.5113 43.2211 39.1755 43.7802 39.7346C44.3393 40.2937 45.0035 40.7366 45.7347 41.0376C45.7347 41.0376 44.7568 41.2863 43.7795 42.3427V42.3407Z" fill="white"/>
</svg>
