<svg width="98" height="80" viewBox="0 0 98 80" fill="none" xmlns="http://www.w3.org/2000/svg">
<path d="M43.5992 24.5095L53.673 22.082L55.9722 16.3125L40.8945 19.009L43.5992 24.5095Z" fill="white"/>
<path d="M46.4375 26.9879L48.2847 30.5792L53.2617 29.2615L55.6024 24.3672L46.4375 26.9879Z" fill="white"/>
<path d="M46.9414 34.1274L48.9254 38.3884L51.1513 32.3281L46.9414 34.1274Z" fill="white"/>
<path d="M64.0935 2L31.3945 12.9839L33.9307 16.9883L63.9884 12.0647L64.0935 2Z" fill="white"/>
<path d="M17.4364 57.2515V65.3164H14.7756V57.2515H12V55.0586H20.2144V57.2515H17.4364Z" fill="white"/>
<path d="M35.5328 57.251V59.8595H36.8645C37.6585 59.8595 38.2669 59.4879 38.2669 58.5491C38.2669 57.6495 37.6438 57.251 36.8497 57.251H35.5328ZM36.7325 55.0508C39.2198 55.0508 40.9423 56.2316 40.9423 58.5418C40.9699 59.1729 40.8009 59.7969 40.4586 60.3277C40.1163 60.8585 39.6177 61.2698 39.0317 61.5048L41.1304 65.3184H38.3671L36.6837 61.9399H35.5328V65.3184H32.9453V55.0508H36.7325Z" fill="white"/>
<path d="M51.5825 65.4633L46.2561 60.8331L45.4156 60.1486V65.3215H42.8281V54.9219H42.9429L48.2352 59.5374C48.5259 59.7648 48.7996 60.0263 49.0903 60.2341V55.0539H51.6925V65.4536L51.5825 65.4633Z" fill="white"/>
<path d="M59.0293 61.9958C58.6677 61.1842 58.2498 60.1721 58.0519 59.5511C57.9078 59.891 57.3434 61.3455 57.0526 61.9958H59.0293ZM57.9738 54.9062H58.1033L63.2806 65.3181H60.5197L59.7867 63.751H56.283L55.55 65.3181H52.8086L57.9859 54.9185L57.9738 54.9062Z" fill="white"/>
<path d="M67.0172 57.251V63.1182H67.843C69.954 63.1182 71.0829 61.7785 71.0829 60.1846C71.0829 58.5907 69.954 57.251 67.8284 57.251H67.0172ZM64.3711 65.3184V55.0508H67.8577C71.5007 55.0508 73.7583 57.2168 73.7583 60.1846C73.7583 63.1525 71.5006 65.3184 67.8723 65.3184H64.3711Z" fill="white"/>
<path d="M80.539 63.1028C82.215 63.1028 83.3463 61.7607 83.3463 60.1692C83.3463 58.5777 82.215 57.2503 80.539 57.2503C78.8628 57.2503 77.7218 58.6119 77.7218 60.1839C77.7218 61.7557 78.8677 63.1174 80.5462 63.1174L80.539 63.1028ZM80.539 54.8984C83.7153 54.8984 85.9974 57.2576 85.9974 60.1789C85.9974 63.1003 83.7348 65.4619 80.539 65.4619C77.3431 65.4619 75.0781 63.1321 75.0781 60.1789C75.0781 57.2722 77.3553 54.8984 80.539 54.8984Z" fill="white"/>
<path d="M26.0116 63.1028C27.6878 63.1028 28.819 61.7607 28.819 60.1692C28.819 58.5777 27.6878 57.2503 26.0116 57.2503C24.3355 57.2503 23.1871 58.6119 23.1871 60.1839C23.1871 61.7557 24.3331 63.1174 26.0116 63.1174V63.1028ZM26.0116 54.8984C29.1879 54.8984 31.4724 57.2576 31.4724 60.1789C31.4724 63.1003 29.2075 65.4619 26.0116 65.4619C22.8158 65.4619 20.5508 63.1321 20.5508 60.1839C20.5508 57.2772 22.8304 54.9034 26.0116 54.9034V54.8984Z" fill="white"/>
<path d="M23.3787 77.9819C22.0642 77.9819 21.1211 77.0529 21.1211 75.8159C21.1211 74.5789 22.0764 73.6524 23.3836 73.6524C23.8321 73.6511 24.2752 73.7496 24.681 73.9409V74.6278C24.2853 74.431 23.8499 74.3272 23.4081 74.3246C23.2067 74.3148 23.0053 74.3457 22.8162 74.4155C22.627 74.4854 22.4539 74.5927 22.3072 74.7311C22.1605 74.8695 22.0432 75.0361 21.9624 75.2209C21.8816 75.4058 21.839 75.605 21.837 75.8068C21.835 76.0085 21.8737 76.2086 21.951 76.395C22.0281 76.5813 22.142 76.7502 22.286 76.8914C22.43 77.0327 22.601 77.1434 22.7888 77.2169C22.9765 77.2905 23.1772 77.3253 23.3787 77.3194C23.6171 77.3194 23.854 77.2805 24.0799 77.2045V76.0213H24.7983V77.6641C24.355 77.8753 23.8698 77.9841 23.3787 77.9819Z" fill="white"/>
<path d="M36.7843 76.5341C36.54 75.9987 36.3445 75.5294 36.1661 75.0527C35.9829 75.4878 35.7655 76.0306 35.5357 76.5341H36.7843ZM36.149 73.6641H36.1735L38.1819 77.908H37.4147L37.0359 77.0793H35.2939L34.9176 77.908H34.1406L36.149 73.6641Z" fill="white"/>
<path d="M48.6374 75.5L48.4713 75.3362V77.908H47.7578V73.6641H47.77L49.7443 75.8252L51.7184 73.6641V77.908H51.0099V75.3412L50.8389 75.5049C50.4748 75.9278 50.1059 76.3459 49.732 76.7639L48.6252 75.5049L48.6374 75.5Z" fill="white"/>
<path d="M61.8164 77.9069V73.7266H64.4845V74.3426H62.5568V75.494H64.1889V76.0905H62.5568V77.2933H64.5724V77.9069H61.8164Z" fill="white"/>
<path d="M74.1187 77.7462V77.0323C74.47 77.2122 74.8557 77.3147 75.2499 77.333C75.3922 77.3361 75.5344 77.3205 75.6726 77.2866C75.9732 77.2181 76.1613 77.0666 76.1613 76.8392C76.1613 76.5092 75.917 76.3283 75.272 76.1058C74.4949 75.832 74.082 75.5069 74.082 74.8272C74.082 74.0938 74.7002 73.6562 75.548 73.6562C75.9193 73.6577 76.2872 73.7282 76.6329 73.8641V74.5485C76.3124 74.3892 75.9597 74.3055 75.6018 74.3041C75.1131 74.3041 74.7955 74.5021 74.7955 74.8224C74.7955 75.1426 75.0179 75.3113 75.6653 75.5557C76.4447 75.8417 76.8674 76.1669 76.8674 76.8294C76.8674 77.5628 76.303 78.0008 75.355 78.0008C74.9288 77.9978 74.5069 77.9148 74.1113 77.756L74.1187 77.7462Z" fill="white"/>
</svg>
