<svg width="24" height="24" viewBox="0 0 24 24" fill="none" xmlns="http://www.w3.org/2000/svg">
<g clip-path="url(#clip0_24072_8330)">
<path d="M30.1598 24.0002V-0.000366211L-5.84024 -6.49373e-06V24.0006L30.1598 24.0002Z" fill="#03763F"/>
<g clip-path="url(#clip1_24072_8330)">
<path d="M26 2H-2V22H26V2Z" fill="#007A3D"/>
<path d="M18.3301 11.7217C18.166 11.9105 17.9427 12.0977 17.6602 12.2832C17.3776 12.4688 17.0267 12.638 16.6074 12.791C16.1881 12.944 15.7005 13.0726 15.1445 13.1768C14.5885 13.2809 13.9551 13.346 13.2442 13.3721C13.1773 13.5739 13.1089 13.7904 13.0391 14.0215C12.9692 14.2526 12.9008 14.5049 12.834 14.7783H12.7884C12.758 14.7458 12.7322 14.7051 12.7109 14.6562C12.6897 14.6074 12.6699 14.5374 12.6517 14.4463C12.6821 14.264 12.7155 14.085 12.752 13.9092C12.7884 13.7334 12.8279 13.5544 12.8705 13.3721C12.5605 13.3721 12.2689 13.3298 11.9955 13.2451C11.9772 14.5081 11.6947 15.667 11.1478 16.7217C10.5523 17.874 9.30968 18.4502 7.41993 18.4502C6.66038 18.4502 6.04059 18.2126 5.56056 17.7373C5.07445 17.2555 4.83139 16.6533 4.83139 15.9307C4.83139 15.1689 5.16559 14.2347 5.83399 13.1279L6.00717 13.1963C5.55752 14.0882 5.33269 14.8076 5.33269 15.3545C5.33269 15.641 5.39801 15.8965 5.52866 16.1211C5.6593 16.3457 5.84463 16.5378 6.08465 16.6973C6.32466 16.8568 6.61937 16.9788 6.96876 17.0635C7.31815 17.1481 7.7116 17.1904 8.1491 17.1904C8.8175 17.1904 9.43729 17.0667 10.0085 16.8193C10.5796 16.5784 10.9685 16.2692 11.1751 15.8916C11.3635 15.527 11.4577 14.9899 11.4577 14.2803C11.4577 13.8962 11.4015 13.5137 11.2891 13.1328C11.1767 12.752 11.0232 12.415 10.8288 12.1221L11.3301 10.9697C11.4334 11.126 11.5306 11.2969 11.6218 11.4824C11.7129 11.668 11.7828 11.8258 11.8314 11.9561C12.0076 12.0407 12.1838 12.0993 12.36 12.1318C12.5362 12.1644 12.7216 12.1807 12.916 12.1807C12.9829 12.1807 13.0527 12.1807 13.1257 12.1807C13.1986 12.1807 13.2745 12.1742 13.3535 12.1611C13.6877 11.5687 14.0477 11.0283 14.4336 10.54C14.8194 10.0518 15.222 9.62533 15.6413 9.26074C15.9998 8.94825 16.3461 8.70411 16.6803 8.52832C17.0145 8.35255 17.288 8.26465 17.5007 8.26465C17.7194 8.26465 17.929 8.3086 18.1296 8.39648C18.3301 8.48438 18.5078 8.5918 18.6628 8.71875C18.8177 8.84571 18.9408 8.97917 19.0319 9.11914C19.123 9.25912 19.1686 9.38445 19.1686 9.49512C19.1686 9.76205 19.1443 10.0062 19.0957 10.2275C19.0471 10.4489 18.9833 10.6491 18.9043 10.8281C18.8253 11.0072 18.7357 11.1699 18.6354 11.3164C18.5352 11.4629 18.4334 11.598 18.3301 11.7217ZM17.1725 9.56348C17.0024 9.56348 16.7882 9.62208 16.53 9.73926C16.2717 9.85645 15.9922 10.0241 15.6914 10.2422C15.3906 10.4603 15.0822 10.7305 14.7663 11.0527C14.4503 11.375 14.1495 11.7412 13.8639 12.1514C13.9672 12.1514 14.066 12.1481 14.1602 12.1416C14.2543 12.1351 14.3652 12.1253 14.4928 12.1123C14.9303 12.0798 15.3602 12.0098 15.7826 11.9023C16.2049 11.7949 16.6591 11.6403 17.1452 11.4385C17.528 11.2822 17.8379 11.1178 18.0749 10.9453C18.3118 10.7728 18.4638 10.6279 18.5306 10.5107C18.4577 10.4001 18.3696 10.2878 18.2663 10.1738C18.163 10.0599 18.0506 9.95736 17.929 9.86621C17.8075 9.77507 17.6814 9.70183 17.5508 9.64648C17.4201 9.59115 17.2941 9.56348 17.1725 9.56348ZM15.541 6.31152L14.8939 7.33691L14.028 6.55566L14.666 5.5498L15.541 6.31152Z" fill="white"/>
</g>
</g>
<defs>
<clipPath id="clip0_24072_8330">
<rect width="24" height="24" rx="5" fill="white"/>
</clipPath>
<clipPath id="clip1_24072_8330">
<rect width="28" height="20" fill="white" transform="translate(-2 2)"/>
</clipPath>
</defs>
</svg>
