<svg width="138" height="56" fill="none" xmlns="http://www.w3.org/2000/svg"><rect width="138" height="56" rx="8" fill="#fff" fill-opacity=".8"/><g clip-path="url(#clip0_16114_22244)"><mask id="a" style="mask-type:luminance" maskUnits="userSpaceOnUse" x="15" y="11" width="33" height="12"><path d="M15.451 11.17h31.835v11.302H15.451V11.169z" fill="#fff"/></mask><g mask="url(#a)"><path fill-rule="evenodd" clip-rule="evenodd" d="M31.316 11.169c5.336 2.236 10.622 4.606 15.953 6.857.028 1.481.014 2.962.014 4.445-10.6-.005-21.203-.002-31.806-.002-.017-1.47.006-2.937-.026-4.406 5.28-2.31 10.563-4.635 15.864-6.894z" fill="#006E90"/></g><path fill-rule="evenodd" clip-rule="evenodd" d="M73.61 21.343c.696 0 1.394-.002 2.093-.005 1.273 2.182 2.475 4.405 3.77 6.576-.015-2.194-.003-4.385-.012-6.576.59.002 1.177.005 1.763.005.014 3.124-.002 6.247.012 9.37-.676-.002-1.352-.008-2.024-.014-1.251-2.242-2.542-4.464-3.83-6.687.028 2.234.003 4.465.025 6.699h-1.809c.015-3.12-.003-6.244.012-9.367zm9.48 0l1.97-.002c-.008 1.312-.005 2.629-.005 3.941 1.199-1.327 2.438-2.617 3.658-3.927.84-.012 1.679-.017 2.519-.017-1.265 1.267-2.74 2.444-3.862 3.828 1.283 1.847 2.66 3.638 3.98 5.462-.81-.051-1.81.1-2.569-.13-1.007-1.288-1.878-2.695-2.822-4.028l-.988.95a166.448 166.448 0 00-.002 3.191c-.627-.003-1.254-.005-1.878-.005.003-3.087-.003-6.176 0-9.263z" fill="#00AFD8"/><path fill-rule="evenodd" clip-rule="evenodd" d="M17.284 23.643c2.307.022 4.614-.006 6.919.016.002.55.002 1.098.005 1.649l-1.22.026c-.01 4.16-.005 8.318-.002 12.479l1.213.017.009 1.543c-2.307.026-4.617-.003-6.924.017.003-.531.003-1.066.003-1.6.426.014.853.026 1.276.037.006-4.172.003-8.344.003-12.516l-1.28.017c0-.563 0-1.123-.003-1.685zm10.671.03c2.282-.067 4.572.01 6.856-.03l.003 1.682-1.17-.011c-.018 4.172.01 8.344-.018 12.516l1.188-.043v1.606a689.325 689.325 0 00-6.881-.003c0-.523 0-1.046-.004-1.569.393-.003.782-.005 1.174-.005.009-4.161-.009-8.325.009-12.486-.392-.002-.782-.008-1.174-.01-.006-.55-.023-1.1.017-1.646zm10.503-.022c2.33-.006 4.657.012 6.984-.011.003.563.003 1.125.003 1.688l-1.233-.011c0 4.169-.003 8.338 0 12.51l1.236-.034c-.003.534-.003 1.069-.006 1.6a572.611 572.611 0 00-6.984-.003l-.009-1.591 1.294.025c-.017-4.172-.003-8.341-.008-12.51-.427.003-.856.008-1.283.014 0-.56.003-1.117.006-1.677z" fill="#006E90"/><path fill-rule="evenodd" clip-rule="evenodd" d="M66.634 27.144c.326-.93.655-1.86.968-2.794.108-.326.22-.654.328-.98.418 1.253.793 2.52 1.211 3.774h-2.507zm2.376-5.804c-.73-.002-1.472-.034-2.196.037-1.193 3.03-2.201 6.173-3.326 9.234.67-.003 1.34-.011 2.01-.02.203-.622.406-1.245.606-1.867 1.182-.006 2.362-.006 3.544-.011.183.668.367 1.332.556 2 .698-.003 1.399-.005 2.1-.003-1.128-3.111-2.2-6.246-3.294-9.37zm-9.398 7.563c-1 .293-2.161.14-3.197.156-.006-.87-.009-1.736-.006-2.603 1.15.046 2.654-.165 3.693.395.564.611.32 1.754-.49 2.052zm.006-5.84c.81.27.732 1.58-.04 1.819-1.005.25-2.13.142-3.16.15-.006-.689-.01-1.377-.009-2.066 1.05.026 2.178-.12 3.209.097zm1.402 2.589c.857-.708 1.186-1.225 1.025-2.379-.166-1.307-1.46-1.904-2.65-2-1.612-.095-3.235-.01-4.853-.038.038 3.124.015 6.247.015 9.37 1.694-.02 3.395.049 5.086-.028.756-.031 1.438-.262 1.93-.853 1.076-1.19.982-3.29-.553-4.072zm36.495 7.514c.827.563 1.013 1.381 1.234 2.294-.61.003-1.22.003-1.83-.003-.289-.492-.432-1-1.019-1.214-.626-.184-1.39-.213-2.015-.002-.658.287-.97 1.028-.524 1.64 1.429.775 3.298.764 4.712 1.56.988.616 1.06 1.864.813 2.884-.306.992-1.162 1.575-2.13 1.839-1.534.4-3.377.239-4.663-.753-.736-.586-.822-1.364-.99-2.223a106.78 106.78 0 011.895.006c.226.475.303 1.103.853 1.319.81.207 1.823.292 2.622-.006.69-.333.95-1.247.263-1.722-1.308-.745-3.489-.554-4.726-1.577-1.242-1.095-.853-3.482.642-4.207 1.385-.761 3.56-.776 4.863.165zm-43.29-.506c2.579-.057 5.161-.014 7.743-.022 0 .55 0 1.102.003 1.654a238.72 238.72 0 00-2.857-.015c-.003 2.59.003 5.178 0 7.767h-2.052c-.003-2.589 0-5.178 0-7.77-.957.006-1.913.006-2.869.006.012-.54.02-1.08.032-1.62zm27.9-.023c.697-.002 1.392-.002 2.085-.005 1.245 2.18 2.456 4.38 3.739 6.536.034-2.176.003-4.356.017-6.533h1.775c.005 3.137.005 6.272.002 9.41-.664 0-1.325 0-1.986.002-1.286-2.23-2.543-4.476-3.848-6.696a288.834 288.834 0 00-.008 6.693h-1.783c.02-3.134.002-6.269.008-9.406m18.32 0c2.219-.01 4.434 0 6.653-.006.009.551.014 1.102.023 1.654-1.595-.011-3.189-.006-4.781-.009-.003.72-.003 1.436-.005 2.152 1.379.003 2.759.003 4.139-.003 0 .531-.003 1.06-.003 1.591a110.628 110.628 0 00-4.122-.008 302.038 302.038 0 00-.009 3.925c-.635 0-1.268 0-1.901.003.015-3.101 0-6.199.006-9.3m8.084 0c2.287-.005 4.577 0 6.864-.005l.006 1.651a745.24 745.24 0 00-5.004 0c.003.682.003 1.361.003 2.043 1.53-.012 3.06-.015 4.589-.008V37.9c-1.532 0-3.063-.006-4.595.003.003.813.003 1.628 0 2.441 1.744-.008 3.487-.006 5.23-.006.003.569.003 1.137.006 1.705h-7.108c.012-3.134 0-6.272.009-9.407zm-40.405 4.15c-.99.179-2.058.054-3.066.077.003-.859.006-1.72.006-2.578.95.008 1.95-.088 2.886.077.856.448 1.116 1.927.174 2.424zm2.082 1.623c-.232-.327-.62-.557-.934-.805 1.469-.676 1.83-2.486.956-3.774-.575-.898-1.531-1.114-2.536-1.174-1.506-.065-3.017-.002-4.525-.025-.05 3.138.01 6.275-.035 9.412h1.946c-.02-1.236-.02-2.472-.011-3.708.881.102 2.722-.341 3.25.534.305.972.148 2.154.251 3.174.755-.002 1.511 0 2.267.018-.627-1.211-.072-2.467-.63-3.652zm52.029-1.597c-.982.127-2.001.04-2.992.05-.002-.858-.002-1.716 0-2.575.976.012 2.096-.13 3.032.18.778.415.913 2.046-.04 2.345zm2.167 1.761c-.143-.505-.644-.755-1.025-1.074.418-.306.873-.542 1.119-1.014.587-1.117.195-2.666-.876-3.357-.836-.503-1.737-.566-2.693-.571-1.26 0-2.516.011-3.776.005 0 3.124.014 6.25-.009 9.374l1.899-.009a201.512 201.512 0 01-.007-3.729c.925.074 2.359-.221 3.129.356.519.935.249 2.319.456 3.376.758 0 1.514.006 2.272.028-.503-1.117-.171-2.25-.489-3.385zm-49.244-.11c.443-1.177.772-2.396 1.262-3.556.621 1.049.79 2.419 1.24 3.558-.836-.002-1.67-.002-2.503-.002m2.322-5.84c-.687.002-1.383-.024-2.067.042-.24.261-.34.662-.472.99a398.695 398.695 0 01-2.957 8.391c.673-.003 1.345-.003 2.018-.003.215-.639.432-1.276.653-1.915 1.173-.003 2.347-.003 3.52 0l.542 1.913c.701.002 1.402.002 2.104.005-1.151-3.129-2.182-6.298-3.341-9.424" fill="#00AFD8"/><path fill-rule="evenodd" clip-rule="evenodd" d="M15.469 40.664c10.606.014 21.211.002 31.817.005 0 .529 0 1.06.003 1.589-10.606-.009-21.212-.003-31.817-.003-.003-.532-.003-1.06-.003-1.591z" fill="#006E90"/><mask id="b" style="mask-type:luminance" maskUnits="userSpaceOnUse" x="13" y="43" width="37" height="2"><path d="M13.225 43.43H49.51v1.567H13.225v-1.566z" fill="#fff"/></mask><g mask="url(#b)"><path fill-rule="evenodd" clip-rule="evenodd" d="M13.23 43.434c12.095-.002 24.189-.005 36.28 0v1.56c-12.094 0-24.191-.01-36.285.004.002-.52.005-1.044.005-1.564z" fill="#006E90"/></g></g><defs><clipPath id="clip0_16114_22244"><path fill="#fff" transform="translate(13 11)" d="M0 0h112v34H0z"/></clipPath></defs></svg>