<svg width="118" height="48" viewBox="0 0 118 48" fill="none" xmlns="http://www.w3.org/2000/svg">
<rect width="118" height="48" rx="6.86486" fill="white" fill-opacity="0.8"/>
<path fill-rule="evenodd" clip-rule="evenodd" d="M24 14.3985C24 11.4187 26.4337 9 29.4284 9H88.5716C91.5663 9 94 11.4187 94 14.3985V33.7004C94 36.6803 91.5742 39.099 88.5716 39.099H29.4284C26.4337 39.099 24 36.6803 24 33.7004V14.3985Z" fill="#000268"/>
<path fill-rule="evenodd" clip-rule="evenodd" d="M26.2283 14.5806V33.519C26.2283 35.3843 27.7454 36.894 29.618 36.894H60.608V11.2056H29.618C27.7454 11.2056 26.2283 12.7153 26.2283 14.5806ZM68.6123 23.9549C68.6123 25.1643 68.0197 25.9863 67.032 25.9863C66.1628 25.9863 65.4359 25.1564 65.4359 24.0498C65.4359 22.9195 66.0759 22.0738 67.032 22.0738C68.0434 22.0817 68.6123 22.9511 68.6123 23.9549ZM62.8204 30.8711H65.428V26.7609H65.4596C65.9574 27.662 66.9451 27.994 67.8537 27.994C70.1057 27.994 71.3067 26.1365 71.3067 23.8996C71.3067 22.0659 70.161 20.0819 68.0671 20.0819C66.8739 20.0819 65.7756 20.5641 65.2462 21.6232H65.2146V20.2558H62.8204V30.8711ZM74.8861 25.4251C74.8861 24.6979 75.5815 24.4213 76.4664 24.4213C76.8615 24.4213 77.2329 24.445 77.5727 24.4608C77.5727 25.3461 76.9484 26.2471 75.9607 26.2471C75.3444 26.2551 74.8861 25.9468 74.8861 25.4251ZM80.1565 27.8201C80.038 27.2273 80.0143 26.6265 80.0143 26.0337V23.212C80.0143 20.9039 78.347 20.074 76.4111 20.074C75.297 20.074 74.3172 20.2321 73.3927 20.6115L73.4401 22.382C74.1671 21.971 75.0047 21.8129 75.8501 21.8129C76.7904 21.8129 77.5648 22.0896 77.5806 23.125C77.2487 23.0697 76.7825 23.0223 76.3637 23.0223C74.9731 23.0223 72.4604 23.2989 72.4604 25.6069C72.4604 27.251 73.7957 27.9861 75.2891 27.9861C76.3637 27.9861 77.0907 27.5671 77.6833 26.6186H77.7149C77.7149 27.0139 77.7544 27.4012 77.7702 27.8122H80.1565V27.8201ZM81.3338 30.8711C81.8711 30.9896 82.4084 31.045 82.9615 31.045C85.3557 31.045 85.9246 29.1954 86.6674 27.2984L89.4408 20.2558H86.8254L85.2688 25.188H85.2372L83.6095 20.2479H80.7965L83.8623 27.994C83.6727 28.6658 83.1828 29.0373 82.5428 29.0373C82.1793 29.0373 81.8632 28.9899 81.5076 28.8792L81.3338 30.8711Z" fill="white"/>
<path fill-rule="evenodd" clip-rule="evenodd" d="M32.6126 23.9703C32.6126 22.9348 33.1183 22.0812 34.0981 22.0812C35.2755 22.0812 35.7654 23.0218 35.7654 23.8675C35.7654 25.0294 35.0226 25.8119 34.0981 25.8119C33.308 25.8119 32.6126 25.148 32.6126 23.9703ZM38.2939 20.2553H35.9234V21.6227H35.8997C35.3466 20.69 34.4458 20.0814 33.3317 20.0814C30.977 20.0814 29.9182 21.765 29.9182 24.0177C29.9182 26.2546 31.2141 27.8275 33.2843 27.8275C34.3352 27.8275 35.2044 27.4165 35.8286 26.5312H35.8602V26.9422C35.8602 28.4203 35.0463 29.1317 33.5371 29.1317C32.4467 29.1317 31.7751 28.9024 30.977 28.5072L30.8427 30.5702C31.4511 30.7915 32.4862 31.0524 33.7347 31.0524C36.7847 31.0524 38.2939 30.0485 38.2939 26.9422V20.2553ZM42.7109 17.1016H40.0954V19.0223H42.7109V17.1016ZM40.0954 27.8196H42.7109V20.2474H40.0954V27.8196ZM49.9882 20.1605C49.7274 20.1209 49.4035 20.0735 49.1032 20.0735C47.9733 20.0735 47.3175 20.6821 46.8671 21.6464H46.8355V20.2553H44.4571V27.8275H47.0725V24.6342C47.0725 23.1482 47.76 22.263 48.9768 22.263C49.285 22.263 49.5694 22.263 49.8618 22.3499L49.9882 20.1605ZM54.4921 26.1676C53.2832 26.1676 52.7933 25.1638 52.7933 24.0493C52.7933 22.919 53.2832 21.9152 54.4921 21.9152C55.701 21.9152 56.1909 22.919 56.1909 24.0493C56.1909 25.1638 55.6931 26.1676 54.4921 26.1676ZM54.4921 27.9935C56.989 27.9935 58.8933 26.5391 58.8933 24.0414C58.8933 21.5279 56.989 20.0735 54.4921 20.0735C51.9952 20.0735 50.0909 21.5279 50.0909 24.0414C50.0909 26.5391 51.9952 27.9935 54.4921 27.9935Z" fill="#FF0007"/>
</svg>
