<svg width="40" height="40" fill="none" xmlns="http://www.w3.org/2000/svg"><path d="M30 7.083H10c-4.03 0-6.25 2.22-6.25 6.25v13.334c0 4.03 2.22 6.25 6.25 6.25h20c4.03 0 6.25-2.22 6.25-6.25V13.333c0-4.03-2.22-6.25-6.25-6.25zm3.75 19.584c0 2.628-1.122 3.75-3.75 3.75H10c-2.628 0-3.75-1.122-3.75-3.75v-8.75h27.5v8.75zm0-11.25H6.25v-2.083c0-2.629 1.122-3.75 3.75-3.75h20c2.628 0 3.75 1.121 3.75 3.75v2.083zM10.417 25c0-.69.56-1.25 1.25-1.25h5a1.25 1.25 0 010 2.5h-5c-.69 0-1.25-.56-1.25-1.25z" fill="#0BDEDE"/></svg>