<svg width="40" height="40" fill="none" xmlns="http://www.w3.org/2000/svg"><path fill-rule="evenodd" clip-rule="evenodd" d="M20 37.5c9.665 0 17.5-7.835 17.5-17.5S29.665 2.5 20 2.5 2.5 10.335 2.5 20 10.335 37.5 20 37.5zm-1-2.533v-5.351a9.622 9.622 0 01-5.092-2.11l-3.784 3.784A14.937 14.937 0 0019 34.967zM8.71 29.876l3.784-3.784A9.622 9.622 0 0110.384 21H5.033a14.937 14.937 0 003.677 8.876zM5.033 19h5.351a9.622 9.622 0 012.11-5.092L8.71 10.124A14.937 14.937 0 005.033 19zm5.091-10.29l3.784 3.784A9.622 9.622 0 0119 10.384V5.033a14.937 14.937 0 00-8.876 3.677zm19.752 22.58A14.937 14.937 0 0121 34.967v-5.351a9.622 9.622 0 005.092-2.11l3.784 3.784zm1.414-1.414l-3.784-3.784A9.622 9.622 0 0029.616 21h5.351a14.937 14.937 0 01-3.677 8.876zM34.967 19h-5.351a9.622 9.622 0 00-2.11-5.092l3.784-3.784A14.937 14.937 0 0134.967 19zM29.876 8.71l-3.784 3.784A9.622 9.622 0 0021 10.384V5.033a14.937 14.937 0 018.876 3.677zM20 26.667a6.667 6.667 0 100-13.334 6.667 6.667 0 000 13.334z" fill="#0BDEDE"/></svg>