<svg width="40" height="40" fill="none" xmlns="http://www.w3.org/2000/svg"><path d="M32.5 10.417h-1.775c.323-.629.525-1.33.525-2.084a4.588 4.588 0 00-4.583-4.583c-1.37 0-2.659.61-3.544 1.685-.045.057-1.918 2.547-3.123 4.15a1653.15 1653.15 0 00-3.135-4.163 4.556 4.556 0 00-3.532-1.672A4.588 4.588 0 008.75 8.333c0 .754.2 1.455.525 2.084H7.5a3.755 3.755 0 00-3.75 3.75V20c0 .69.56 1.25 1.25 1.25h.417V30c0 4.03 2.22 6.25 6.25 6.25h16.666c4.03 0 6.25-2.22 6.25-6.25v-8.75H35c.69 0 1.25-.56 1.25-1.25v-5.833a3.755 3.755 0 00-3.75-3.75zm1.25 3.75v4.583h-12.5v-5.833H32.5c.688 0 1.25.56 1.25 1.25zm-8.685-7.155c.403-.49.972-.762 1.602-.762 1.148 0 2.083.935 2.083 2.083a2.086 2.086 0 01-2.083 2.084h-4.164c1.125-1.497 2.484-3.304 2.562-3.405zM11.25 8.333c0-1.148.935-2.083 2.083-2.083.63 0 1.199.27 1.58.735.092.118 1.455 1.932 2.584 3.432h-4.164a2.086 2.086 0 01-2.083-2.084zm-5 5.834c0-.69.562-1.25 1.25-1.25h11.25v5.833H6.25v-4.583zM7.917 30v-8.75H18.75v12.5h-7.083c-2.629 0-3.75-1.122-3.75-3.75zm24.166 0c0 2.628-1.121 3.75-3.75 3.75H21.25v-12.5h10.833V30z" fill="#0BDEDE"/></svg>