<svg width="40" height="40" fill="none" xmlns="http://www.w3.org/2000/svg"><path d="M35.007 11.583a2.876 2.876 0 00-3.175-.107l-4.155 2.514a.39.39 0 01-.529-.119l-4.733-7.156A2.888 2.888 0 0020 5.417c-.975 0-1.877.484-2.415 1.298l-4.728 7.152a.395.395 0 01-.537.12l-4.15-2.51a2.876 2.876 0 00-3.175.106c-.958.67-1.413 1.8-1.18 2.979l2.707 12.106-.924 5.487a2.082 2.082 0 002.055 2.43H32.35a2.08 2.08 0 002.055-2.43l-.924-5.487 2.707-12.106a2.876 2.876 0 00-1.18-2.978zm-26.862 20.5l.702-4.166h22.308l.702 4.166H8.145zm23.053-6.666H8.803L6.26 14.046a.388.388 0 01.168-.415.391.391 0 01.449-.015l4.148 2.51a2.89 2.89 0 003.917-.88l4.728-7.152c.205-.31.455-.31.66 0l4.732 7.155a2.884 2.884 0 003.908.88l4.155-2.513a.392.392 0 01.448.014c.08.057.209.184.17.405l-2.545 11.38z" fill="#0BDEDE"/></svg>