<svg width="40" height="40" fill="none" xmlns="http://www.w3.org/2000/svg"><path d="M6.675 36.248c-.762 0-1.501-.3-2.061-.86a2.904 2.904 0 01-.712-2.986l1.401-4.169c.164-.511.149-1.025-.043-1.43a16.233 16.233 0 01-1.503-6.805c0-8.958 7.288-16.248 16.246-16.248 8.96 0 16.249 7.288 16.249 16.248s-7.289 16.249-16.249 16.249c-2.331 0-4.681-.519-6.791-1.5-.414-.199-.929-.212-1.459-.044l-4.148 1.394a2.968 2.968 0 01-.93.151zM20.002 6.25c-7.58 0-13.747 6.167-13.747 13.748 0 1.972.438 3.957 1.267 5.74.46.969.52 2.134.158 3.272l-1.407 4.185a.403.403 0 00.107.427c.07.07.22.176.428.106l4.164-1.398c1.157-.368 2.323-.312 3.303.157a13.685 13.685 0 005.727 1.261c7.581 0 13.748-6.166 13.748-13.748 0-7.582-6.167-13.75-13.748-13.75zm.006 15.417c-.92 0-1.675-.747-1.675-1.667s.739-1.667 1.659-1.667h.016a1.666 1.666 0 110 3.334zM28.342 20c0-.92-.745-1.667-1.667-1.667h-.016A1.66 1.66 0 0025 20c0 .92.755 1.667 1.675 1.667.922 0 1.667-.747 1.667-1.667zm-13.334 0c0-.92-.745-1.667-1.666-1.667h-.017A1.66 1.66 0 0011.667 20c0 .92.755 1.667 1.675 1.667.921 0 1.666-.747 1.666-1.667z" fill="#0BDEDE"/></svg>