<svg width="138" height="56" fill="none" xmlns="http://www.w3.org/2000/svg"><rect width="138" height="56" rx="8" fill="#fff" fill-opacity=".8"/><path d="M32.265 18.452c-.078-.083-.234-.083-.312-.083-.858-.247-2.886-.33-3.588.248-.078.082-.234.247-.234.412a85.17 85.17 0 00-5.382 8.491l-4.991-8.491v-.082c-.078-.165-.156-.248-.234-.413-.546-.494-2.34-.494-3.276-.33-.234 0-.468.083-.624.165-.39.165-.624.578-.624.99v17.89c0 .33.156.989 1.17 1.154.312.082.702.082 1.014.082.702 0 2.262 0 2.262-1.237V27.026c.312.577.936 1.649 1.638 2.968.936 1.896 1.56 3.05 1.95 3.627l.155.412c.156.248.39.495.624.742.546.33 1.17.412 1.794.33.156-.082.312-.082.39-.247.312-.165.546-.413.702-.742l.468-.825c.234-.412.702-1.319 1.482-2.885.78-1.566 1.404-2.638 1.794-3.38.624-1.072 0 1.896 0 2.06v8.327c0 1.237 1.482 1.237 2.262 1.237.702 0 2.262 0 2.262-1.237V19.441a2.244 2.244 0 00-.702-.99zM37.724 25.543c-1.481 0-1.637.247-1.637.577v11.376c0 .33.233.578 1.637.578s1.638-.248 1.638-.578V26.12c0-.248-.234-.578-1.638-.578z" fill="#2D9DD3"/><path d="M37.724 38.815c-.702 0-2.262 0-2.262-1.237v-11.46c0-1.236 1.482-1.236 2.262-1.236.702 0 2.262 0 2.262 1.237v11.377c-.078 1.319-1.56 1.319-2.262 1.319zm-1.014-1.402a8.349 8.349 0 002.028 0v-11.13a8.349 8.349 0 00-2.028 0v11.13zM54.103 19.112h-9.438c-1.014 0-1.482.165-1.482.577v17.89c0 .33.234.577 1.638.577s1.638-.247 1.638-.577v-7.337h6.708c.546 0 .858-.66.858-1.567 0-.989-.312-1.566-.858-1.566h-6.708v-4.7h7.644c.546 0 .858-.659.858-1.565 0-1.072-.312-1.732-.858-1.732z" fill="#2D9DD3"/><path d="M44.9 38.815c-.702 0-2.262 0-2.262-1.236v-17.89c0-1.154 1.248-1.154 2.105-1.237h9.438c.702 0 1.482.577 1.482 2.226s-.78 2.226-1.482 2.226h-7.02v3.38h6.084c.702 0 1.482.577 1.482 2.226s-.78 2.226-1.482 2.226h-6.084v6.76c-.078 1.32-1.56 1.32-2.261 1.32zm-1.014-1.401a8.349 8.349 0 002.027 0v-7.832h7.332c.078 0 .234-.33.234-.907s-.156-.907-.234-.907h-7.331V21.75h8.267c.078 0 .234-.247.234-.907s-.234-.907-.234-.907h-9.438c-.311 0-.623 0-.857.082v17.396zM78.671 19.111c-1.404 0-1.638.33-1.638.577v11.79L69.312 19.44v-.083c-.39-.412-2.34-.33-2.808-.082-.156.082-.312.247-.312.412v17.807c0 .165 0 .578 1.638.578s1.638-.413 1.638-.578V25.706l7.721 12.037c.156.247.858.33 1.482.33.39 0 .858 0 1.248-.165a.494.494 0 00.39-.495V19.688c0-.247-.156-.577-1.638-.577z" fill="#2D9DD3"/><path d="M78.67 38.815c-1.403 0-1.793-.33-2.027-.66L70.091 27.85v9.646c0 1.237-1.481 1.237-2.261 1.237-.702 0-2.262 0-2.262-1.237V19.689c0-.495.312-.825.702-.99.468-.164 2.808-.412 3.51.248l.078.165 6.551 10.305v-9.728c0-1.237 1.56-1.237 2.262-1.237s2.262 0 2.262 1.237v17.807c0 .495-.39.99-.858 1.072-.39.165-.936.247-1.404.247zm-1.013-1.484c.312.083.702.165 1.014.165.39 0 .702 0 1.014-.082v-17.56a8.349 8.349 0 00-2.028 0V33.62l-8.813-13.767a4.546 4.546 0 00-2.106 0v17.56a8.348 8.348 0 002.028 0V23.646l8.891 13.685zM86.237 19.112c-1.404 0-1.638.248-1.638.577v17.89c0 .33.234.577 1.638.577s1.638-.247 1.638-.577V19.69c0-.33-.156-.577-1.638-.577z" fill="#2D9DD3"/><path d="M86.237 38.815c-.702 0-2.262 0-2.262-1.236v-17.89c0-1.237 1.482-1.237 2.262-1.237.702 0 2.262 0 2.262 1.237v17.89c0 1.236-1.482 1.236-2.262 1.236zm-1.014-1.401a8.349 8.349 0 002.028 0v-17.56c-.312-.083-.702-.083-1.014-.083-.312 0-.702 0-1.014.083v17.56zM60.265 19.112c-1.404 0-1.638.248-1.638.577v17.89c0 .33.234.577 1.638.577s1.638-.247 1.638-.577V19.69c0-.33-.234-.577-1.638-.577z" fill="#2D9DD3"/><path d="M60.265 38.815c-.702 0-2.262 0-2.262-1.236v-17.89c0-1.237 1.482-1.237 2.262-1.237.702 0 2.261 0 2.261 1.237v17.89c-.078 1.236-1.56 1.236-2.261 1.236zm-1.014-1.401a8.348 8.348 0 002.028 0v-17.56a8.348 8.348 0 00-2.028 0v17.56zM105.267 19.112H92.086c-.312 0-.546.248-.546 1.732 0 1.483.234 1.73.546 1.73h4.992V37.58c0 .33.234.577 1.638.577 1.403 0 1.637-.247 1.637-.577V22.575h4.992c.312 0 .546-.247.546-1.731-.078-1.484-.39-1.732-.624-1.732z" fill="#2D9DD3"/><path d="M98.638 38.815c-.702 0-2.262 0-2.262-1.236V23.233h-4.368c-1.17 0-1.17-1.567-1.17-2.391 0-.825 0-2.39 1.17-2.39h13.181c1.17 0 1.17 1.566 1.17 2.39 0 .824 0 2.39-1.17 2.39h-4.367v14.345c.078 1.237-1.404 1.237-2.184 1.237zm-.936-1.401a8.349 8.349 0 002.028 0v-15.5h5.381a9.847 9.847 0 000-2.143H92.242a9.847 9.847 0 000 2.144h5.382v15.499h.078zM124.064 19.277c-.624-.247-2.886-.247-3.276.247l-4.133 6.76-4.134-6.76c-.39-.577-2.652-.494-3.276-.33a.494.494 0 00-.39.495v.083l6.162 10.14v7.42c0 .165 0 .66 1.638.66 1.637 0 1.637-.495 1.637-.66v-7.42l6.162-10.14v-.083c0-.082-.078-.247-.39-.412z" fill="#2D9DD3"/><path d="M116.654 38.815c-.546 0-2.261 0-2.261-1.32v-7.254l-6.162-10.14v-.247c0-.495.39-.99.858-1.072.624-.247 3.276-.412 3.978.494l3.587 5.854 3.588-5.936c.702-.907 3.432-.742 3.978-.495.468.165.78.577.78 1.072v.247l-6.162 10.14v7.255c.078 1.402-1.638 1.402-2.184 1.402zm-1.013-1.484a4.215 4.215 0 002.027 0v-7.502l6.084-9.976c-.624-.164-2.106-.082-2.496.165l-4.602 7.585-4.601-7.502c-.312-.247-1.794-.247-2.496-.165l6.006 9.975.078 7.42zM37.022 18.619h1.17c1.014 0 1.794.824 1.794 1.896v1.319c0 1.072-.78 1.896-1.794 1.896h-1.17c-1.014 0-1.794-.824-1.794-1.896v-1.32c0-1.07.78-1.895 1.794-1.895z" fill="#2D9DD3"/></svg>