<svg width="118" height="48" viewBox="0 0 118 48" fill="none" xmlns="http://www.w3.org/2000/svg">
<rect width="118" height="48" rx="6.86486" fill="white" fill-opacity="0.8"/>
<path d="M14.7333 39.1098C14.2197 39.1098 13.7553 39.0218 13.3403 38.8459C12.9322 38.67 12.6085 38.4167 12.3694 38.0861C12.1301 37.7554 12.007 37.365 12 36.9147H13.583C13.6041 37.2172 13.7096 37.4564 13.8996 37.6323C14.0965 37.8082 14.3639 37.8962 14.7016 37.8962C15.0463 37.8962 15.3172 37.8152 15.5142 37.6534C15.7112 37.4846 15.8097 37.2665 15.8097 36.9991C15.8097 36.781 15.7428 36.6016 15.6092 36.4609C15.4755 36.3202 15.3066 36.2111 15.1026 36.1338C14.9056 36.0494 14.6312 35.9579 14.2795 35.8594C13.8011 35.7187 13.4106 35.5815 13.1081 35.4478C12.8126 35.3071 12.5558 35.0996 12.3377 34.8252C12.1266 34.5437 12.0211 34.1709 12.0211 33.7065C12.0211 33.2703 12.1301 32.8904 12.3483 32.5668C12.5663 32.2431 12.8724 31.9969 13.2664 31.8281C13.6603 31.6522 14.1106 31.5642 14.6172 31.5642C15.377 31.5642 15.9926 31.7507 16.464 32.1236C16.9424 32.4894 17.2062 33.003 17.2555 33.6643H15.6303C15.6162 33.4111 15.5071 33.2035 15.3031 33.0417C15.1061 32.8728 14.8423 32.7884 14.5117 32.7884C14.2232 32.7884 13.991 32.8623 13.8151 33.01C13.6463 33.1578 13.5619 33.3723 13.5619 33.6538C13.5619 33.8508 13.6252 34.0161 13.7518 34.1498C13.8855 34.2764 14.0473 34.3819 14.2373 34.4664C14.4343 34.5437 14.7086 34.6352 15.0604 34.7408C15.5388 34.8814 15.9293 35.0222 16.2318 35.1629C16.5343 35.3036 16.7946 35.5146 17.0128 35.7961C17.2308 36.0775 17.3399 36.4468 17.3399 36.9042C17.3399 37.2981 17.2379 37.664 17.0339 38.0017C16.8298 38.3394 16.5308 38.6102 16.1369 38.8143C15.7428 39.0113 15.275 39.1098 14.7333 39.1098ZM20.7948 39.1309C20.2319 39.1309 19.7254 39.0077 19.2751 38.7615C18.8248 38.5082 18.4695 38.1529 18.2092 37.6957C17.956 37.2383 17.8293 36.7107 17.8293 36.1127C17.8293 35.5146 17.9594 34.987 18.2198 34.5297C18.4871 34.0724 18.8494 33.7206 19.3068 33.4744C19.764 33.2211 20.2741 33.0945 20.837 33.0945C21.3998 33.0945 21.9099 33.2211 22.3672 33.4744C22.8245 33.7206 23.1833 34.0724 23.4436 34.5297C23.7109 34.987 23.8446 35.5146 23.8446 36.1127C23.8446 36.7107 23.7074 37.2383 23.4331 37.6957C23.1657 38.1529 22.7999 38.5082 22.3355 38.7615C21.8782 39.0077 21.3646 39.1309 20.7948 39.1309ZM20.7948 37.8434C21.0621 37.8434 21.3119 37.7801 21.544 37.6534C21.7832 37.5197 21.9732 37.3228 22.1139 37.0625C22.2546 36.8021 22.325 36.4855 22.325 36.1127C22.325 35.5568 22.1772 35.1312 21.8817 34.8357C21.5933 34.5332 21.238 34.382 20.8159 34.382C20.3937 34.382 20.0384 34.5332 19.75 34.8357C19.4685 35.1312 19.3279 35.5568 19.3279 36.1127C19.3279 36.6685 19.4651 37.0976 19.7394 37.4002C20.0208 37.6957 20.3726 37.8434 20.7948 37.8434ZM27.1868 34.4031H26.1631V39.0359H24.6646V34.4031H23.9997V33.1894H24.6646V32.894C24.6646 32.1763 24.8686 31.6487 25.2767 31.311C25.6847 30.9733 26.3003 30.815 27.1235 30.8361V32.0814C26.7646 32.0743 26.5149 32.1341 26.3742 32.2608C26.2335 32.3874 26.1631 32.616 26.1631 32.9467V33.1894H27.1868V34.4031ZM30.3182 39.1309C29.7553 39.1309 29.2488 39.0077 28.7985 38.7615C28.3483 38.5082 27.9929 38.1529 27.7326 37.6957C27.4794 37.2383 27.3527 36.7107 27.3527 36.1127C27.3527 35.5146 27.4829 34.987 27.7432 34.5297C28.0106 34.0724 28.3729 33.7206 28.8302 33.4744C29.2875 33.2211 29.7975 33.0945 30.3604 33.0945C30.9232 33.0945 31.4333 33.2211 31.8906 33.4744C32.3479 33.7206 32.7067 34.0724 32.967 34.5297C33.2344 34.987 33.368 35.5146 33.368 36.1127C33.368 36.7107 33.2309 37.2383 32.9565 37.6957C32.6891 38.1529 32.3233 38.5082 31.8589 38.7615C31.4016 39.0077 30.888 39.1309 30.3182 39.1309ZM30.3182 37.8434C30.5855 37.8434 30.8353 37.7801 31.0675 37.6534C31.3066 37.5197 31.4966 37.3228 31.6373 37.0625C31.778 36.8021 31.8484 36.4855 31.8484 36.1127C31.8484 35.5568 31.7006 35.1312 31.4052 34.8357C31.1167 34.5332 30.7614 34.382 30.3393 34.382C29.9172 34.382 29.5619 34.5332 29.2734 34.8357C28.992 35.1312 28.8513 35.5568 28.8513 36.1127C28.8513 36.6685 28.9885 37.0976 29.2629 37.4002C29.5443 37.6957 29.896 37.8434 30.3182 37.8434ZM35.5071 34.097C35.6971 33.7874 35.9433 33.5447 36.2458 33.3688C36.5554 33.1929 36.9072 33.105 37.3012 33.105V34.6563H36.9107C36.4464 34.6563 36.0946 34.7653 35.8554 34.9835C35.6232 35.2016 35.5071 35.5815 35.5071 36.1232V39.0359H34.0297V33.1894H35.5071V34.097ZM39.5944 34.4031V37.2313C39.5944 37.4283 39.6401 37.5725 39.7316 37.664C39.83 37.7484 39.9919 37.7906 40.217 37.7906H40.903V39.0359H39.9743C38.729 39.0359 38.1064 38.4308 38.1064 37.2208V34.4031H37.4099V33.1894H38.1064V31.7437H39.5944V33.1894H40.903V34.4031H39.5944ZM47.0628 33.1894V39.0359H45.5748V38.2972C45.3849 38.5505 45.1351 38.751 44.8255 38.8987C44.523 39.0394 44.1923 39.1098 43.8335 39.1098C43.3762 39.1098 42.9717 39.0148 42.6199 38.8248C42.2681 38.6278 41.9902 38.3429 41.7862 37.97C41.5892 37.5901 41.4907 37.1398 41.4907 36.6192V33.1894H42.9682V36.4082C42.9682 36.8725 43.0843 37.2313 43.3164 37.4846C43.5486 37.7308 43.8652 37.854 44.2662 37.854C44.6743 37.854 44.9944 37.7308 45.2266 37.4846C45.4587 37.2313 45.5748 36.8725 45.5748 36.4082V33.1894H47.0628ZM43.327 32.4929C43.13 32.4929 42.9646 32.4261 42.831 32.2924C42.6973 32.1587 42.6305 31.9934 42.6305 31.7964C42.6305 31.5994 42.6973 31.4341 42.831 31.3004C42.9646 31.1597 43.13 31.0894 43.327 31.0894C43.524 31.0894 43.6893 31.1597 43.823 31.3004C43.9637 31.4341 44.034 31.5994 44.034 31.7964C44.034 31.9934 43.9637 32.1587 43.823 32.2924C43.6893 32.4261 43.524 32.4929 43.327 32.4929ZM45.2793 32.4929C45.0823 32.4929 44.917 32.4261 44.7833 32.2924C44.6496 32.1587 44.5828 31.9934 44.5828 31.7964C44.5828 31.5994 44.6496 31.4341 44.7833 31.3004C44.917 31.1597 45.0823 31.0894 45.2793 31.0894C45.4763 31.0894 45.6416 31.1597 45.7753 31.3004C45.916 31.4341 45.9864 31.5994 45.9864 31.7964C45.9864 31.9934 45.916 32.1587 45.7753 32.2924C45.6416 32.4261 45.4763 32.4929 45.2793 32.4929ZM49.5758 34.0442C49.7658 33.7628 50.0261 33.5342 50.3568 33.3583C50.6945 33.1824 51.0779 33.0945 51.5071 33.0945C52.0066 33.0945 52.4569 33.2176 52.8579 33.4638C53.266 33.71 53.5861 34.0618 53.8182 34.5191C54.0575 34.9694 54.177 35.4935 54.177 36.0916C54.177 36.6896 54.0575 37.2208 53.8182 37.6851C53.5861 38.1424 53.266 38.4977 52.8579 38.751C52.4569 39.0042 52.0066 39.1309 51.5071 39.1309C51.0709 39.1309 50.6875 39.0465 50.3568 38.8776C50.0332 38.7017 49.7729 38.4766 49.5758 38.2022V39.0359H48.0984V31.2265H49.5758V34.0442ZM52.6679 36.0916C52.6679 35.7398 52.5941 35.4373 52.4463 35.184C52.3056 34.9236 52.1157 34.7267 51.8764 34.593C51.6443 34.4593 51.391 34.3925 51.1166 34.3925C50.8493 34.3925 50.596 34.4628 50.3568 34.6036C50.1246 34.7372 49.9347 34.9342 49.7869 35.1945C49.6462 35.4548 49.5758 35.7609 49.5758 36.1127C49.5758 36.4644 49.6462 36.7705 49.7869 37.0308C49.9347 37.2911 50.1246 37.4916 50.3568 37.6323C50.596 37.766 50.8493 37.8328 51.1166 37.8328C51.391 37.8328 51.6443 37.7625 51.8764 37.6218C52.1157 37.4811 52.3056 37.2805 52.4463 37.0202C52.5941 36.7599 52.6679 36.4504 52.6679 36.0916ZM60.2635 35.986C60.2635 36.1971 60.2493 36.3871 60.2213 36.5559H55.9472C55.9824 36.978 56.1301 37.3087 56.3904 37.5479C56.6507 37.7871 56.9708 37.9067 57.3507 37.9067C57.8995 37.9067 58.29 37.671 58.5222 37.1997H60.1158C59.9469 37.7625 59.623 38.2268 59.1448 38.5927C58.6664 38.9515 58.0789 39.1309 57.3824 39.1309C56.8196 39.1309 56.313 39.0077 55.8627 38.7615C55.4195 38.5082 55.0713 38.1529 54.818 37.6957C54.5717 37.2383 54.4486 36.7107 54.4486 36.1127C54.4486 35.5076 54.5717 34.9764 54.818 34.5191C55.0642 34.0618 55.409 33.71 55.8522 33.4638C56.2954 33.2176 56.8055 33.0945 57.3824 33.0945C57.9382 33.0945 58.4342 33.214 58.8704 33.4533C59.3137 33.6925 59.6546 34.0337 59.8942 34.4769C60.1401 34.9131 60.2635 35.4162 60.2635 35.986ZM58.7332 35.5639C58.7262 35.184 58.589 34.8814 58.3216 34.6563C58.0543 34.4242 57.7271 34.3081 57.3402 34.3081C56.9744 34.3081 56.6648 34.4206 56.4115 34.6458C56.1653 34.8639 56.014 35.1699 55.9577 35.5639H58.7332ZM62.3974 34.097C62.5873 33.7874 62.8332 33.5447 63.1361 33.3688C63.4453 33.1929 63.7973 33.105 64.1914 33.105V34.6563H63.801C63.3366 34.6563 62.9847 34.7653 62.7456 34.9835C62.5135 35.2016 62.3974 35.5815 62.3974 36.1232V39.0359H60.9199V33.1894H62.3974V34.097ZM72.8688 33.1894L71.1592 39.0359H69.5656L68.4998 34.9518L67.4339 39.0359H65.8298L64.1096 33.1894H65.6082L66.6424 37.6429L67.761 33.1894H69.3229L70.4204 37.6323L71.4547 33.1894H72.8688ZM78.681 35.986C78.681 36.1971 78.6672 36.3871 78.6387 36.5559H74.3647C74.4001 36.978 74.5478 37.3087 74.8079 37.5479C75.0686 37.7871 75.3884 37.9067 75.7683 37.9067C76.317 37.9067 76.7075 37.671 76.9397 37.1997H78.5332C78.3644 37.7625 78.0409 38.2268 77.5623 38.5927C77.0843 38.9515 76.4964 39.1309 75.7999 39.1309C75.2375 39.1309 74.7309 39.0077 74.2803 38.7615C73.837 38.5082 73.4888 38.1529 73.2355 37.6957C72.9896 37.2383 72.8661 36.7107 72.8661 36.1127C72.8661 35.5076 72.9896 34.9764 73.2355 34.5191C73.4819 34.0618 73.8265 33.71 74.2697 33.4638C74.713 33.2176 75.2232 33.0945 75.7999 33.0945C76.3561 33.0945 76.8521 33.214 77.2879 33.4533C77.7312 33.6925 78.0726 34.0337 78.3116 34.4769C78.558 34.9131 78.681 35.4162 78.681 35.986ZM77.1507 35.5639C77.1439 35.184 77.0067 34.8814 76.7392 34.6563C76.4722 34.4242 76.145 34.3081 75.7577 34.3081C75.3921 34.3081 75.0823 34.4206 74.829 34.6458C74.5832 34.8639 74.4317 35.1699 74.3753 35.5639H77.1507ZM80.0866 32.4929C79.8265 32.4929 79.6086 32.412 79.4324 32.2502C79.2635 32.0814 79.1791 31.8738 79.1791 31.6276C79.1791 31.3813 79.2635 31.1773 79.4324 31.0155C79.6086 30.8466 79.8265 30.7622 80.0866 30.7622C80.3473 30.7622 80.5615 30.8466 80.7304 31.0155C80.9066 31.1773 80.9942 31.3813 80.9942 31.6276C80.9942 31.8738 80.9066 32.0814 80.7304 32.2502C80.5615 32.412 80.3473 32.4929 80.0866 32.4929ZM80.8148 33.1894V39.0359H79.3374V33.1894H80.8148ZM84.09 39.1309C83.6114 39.1309 83.1824 39.0465 82.8025 38.8776C82.4226 38.7017 82.1197 38.466 81.8949 38.1705C81.6765 37.8751 81.5572 37.5479 81.5361 37.1891H83.0241C83.0521 37.4142 83.1613 37.6007 83.3513 37.7484C83.5481 37.8962 83.7908 37.97 84.0794 37.97C84.3607 37.97 84.5786 37.9137 84.7337 37.8012C84.8952 37.6886 84.9765 37.5444 84.9765 37.3685C84.9765 37.1785 84.8778 37.0378 84.681 36.9464C84.491 36.8479 84.185 36.7423 83.7628 36.6298C83.3265 36.5242 82.9677 36.4152 82.6864 36.3026C82.412 36.19 82.1725 36.0177 81.9688 35.7855C81.7715 35.5534 81.6733 35.2402 81.6733 34.8463C81.6733 34.5226 81.7646 34.2271 81.9477 33.9598C82.1377 33.6925 82.4047 33.4814 82.7497 33.3266C83.1012 33.1718 83.5127 33.0945 83.9845 33.0945C84.681 33.0945 85.2366 33.2703 85.6519 33.6221C86.0666 33.9668 86.2956 34.4347 86.3378 35.0257H84.9237C84.9026 34.7935 84.8039 34.6106 84.6282 34.4769C84.4594 34.3362 84.2304 34.2659 83.9423 34.2659C83.6747 34.2659 83.4674 34.3151 83.3196 34.4136C83.1787 34.5121 83.1086 34.6493 83.1086 34.8252C83.1086 35.0222 83.2067 35.1734 83.404 35.279C83.6009 35.3774 83.9069 35.4795 84.3222 35.585C84.7443 35.6905 85.0925 35.7996 85.3669 35.9122C85.6413 36.0247 85.8767 36.2006 86.074 36.4398C86.2777 36.672 86.3832 36.9815 86.3906 37.3685C86.3906 37.7062 86.2956 38.0087 86.1057 38.2761C85.9226 38.5434 85.655 38.7545 85.3036 38.9093C84.9585 39.057 84.5543 39.1309 84.09 39.1309ZM92.7003 33.1894V39.0359H91.2123V38.2972C91.0224 38.5505 90.7728 38.751 90.4631 38.8987C90.1607 39.0394 89.8299 39.1098 89.4711 39.1098C89.0136 39.1098 88.6094 39.0148 88.2575 38.8248C87.9055 38.6278 87.628 38.3429 87.4238 37.97C87.2269 37.5901 87.1283 37.1398 87.1283 36.6192V33.1894H88.6057V36.4082C88.6057 36.8725 88.7218 37.2313 88.954 37.4846C89.1861 37.7308 89.5027 37.854 89.9037 37.854C90.3116 37.854 90.6319 37.7308 90.8641 37.4846C91.0963 37.2313 91.2123 36.8725 91.2123 36.4082V33.1894H92.7003ZM96.976 33.105C97.6725 33.105 98.235 33.3266 98.6645 33.7699C99.0935 34.206 99.3082 34.8181 99.3082 35.6061V39.0359H97.8308V35.8066C97.8308 35.3423 97.7147 34.987 97.4825 34.7408C97.2504 34.4875 96.9338 34.3608 96.5327 34.3608C96.1243 34.3608 95.8009 34.4875 95.5618 34.7408C95.3297 34.987 95.2136 35.3423 95.2136 35.8066V39.0359H93.7361V33.1894H95.2136V33.9176C95.4104 33.6643 95.66 33.4673 95.9629 33.3266C96.2721 33.1789 96.6098 33.105 96.976 33.105ZM102.581 33.0945C103.017 33.0945 103.401 33.1824 103.731 33.3583C104.062 33.5271 104.322 33.7488 104.512 34.0231V33.1894H106V39.0781C106 39.6198 105.891 40.1018 105.673 40.5239C105.455 40.9531 105.128 41.2908 104.691 41.537C104.256 41.7903 103.728 41.9169 103.108 41.9169C102.278 41.9169 101.596 41.7234 101.061 41.3365C100.533 40.9495 100.235 40.4219 100.164 39.7535H101.631C101.709 40.0208 101.874 40.2319 102.127 40.3867C102.388 40.5485 102.701 40.6294 103.066 40.6294C103.496 40.6294 103.844 40.4993 104.111 40.239C104.379 39.9857 104.512 39.5987 104.512 39.0781V38.1705C104.322 38.4449 104.058 38.6736 103.721 38.8565C103.39 39.0394 103.01 39.1309 102.581 39.1309C102.088 39.1309 101.638 39.0042 101.23 38.751C100.822 38.4977 100.499 38.1424 100.259 37.6851C100.027 37.2208 99.9108 36.6896 99.9108 36.0916C99.9108 35.5006 100.027 34.9764 100.259 34.5191C100.499 34.0618 100.818 33.71 101.219 33.4638C101.628 33.2176 102.082 33.0945 102.581 33.0945ZM104.512 36.1127C104.512 35.7539 104.442 35.4478 104.301 35.1945C104.161 34.9342 103.971 34.7372 103.731 34.6036C103.492 34.4628 103.235 34.3925 102.961 34.3925C102.686 34.3925 102.433 34.4593 102.201 34.593C101.969 34.7267 101.779 34.9236 101.631 35.184C101.491 35.4373 101.42 35.7398 101.42 36.0916C101.42 36.4433 101.491 36.7529 101.631 37.0202C101.779 37.2805 101.969 37.4811 102.201 37.6218C102.44 37.7625 102.694 37.8328 102.961 37.8328C103.235 37.8328 103.492 37.766 103.731 37.6323C103.971 37.4916 104.161 37.2946 104.301 37.0414C104.442 36.781 104.512 36.4715 104.512 36.1127Z" fill="#29304D"/>
<g filter="url(#filter0_d_18385_95212)">
<path d="M89.8889 28.0552C95.427 28.0552 99.9165 23.5657 99.9165 18.0276C99.9165 12.4895 95.427 8 89.8889 8C84.3508 8 79.8613 12.4895 79.8613 18.0276C79.8613 23.5657 84.3508 28.0552 89.8889 28.0552Z" fill="#FFCC01"/>
<path d="M88.2787 12.8535L94.4286 12.6904C89.6569 15.5405 88.0497 19.9109 87.6497 22.6019H82.3621C82.7499 19.6522 85.1439 14.7671 88.2787 12.8535Z" fill="#010166"/>
<path d="M95.1387 16.7708C95.1514 16.7613 97.2235 16.7319 97.2235 16.7319C94.7894 18.2579 94.076 20.6593 93.9278 21.5771H92.3474C92.6213 19.9616 93.6375 17.8688 95.1387 16.7708Z" fill="#010166"/>
<path d="M92.5058 15.222L96.1097 15.1211C93.1511 16.6828 91.6769 19.9611 91.4294 21.9856H88.6887C88.9204 20.3257 90.0564 17.0586 92.5058 15.222Z" fill="#FF0000"/>
</g>
<g filter="url(#filter1_d_18385_95212)">
<mask id="mask0_18385_95212" style="mask-type:luminance" maskUnits="userSpaceOnUse" x="64" y="8" width="21" height="21">
<path d="M84.6104 18.0734C84.6104 12.5364 80.1218 8.04785 74.5849 8.04785C69.0479 8.04785 64.5593 12.5364 64.5593 18.0734C64.5593 23.6103 69.0479 28.0989 74.5849 28.0989C80.1218 28.0989 84.6104 23.6103 84.6104 18.0734Z" fill="white"/>
</mask>
<g mask="url(#mask0_18385_95212)">
<path d="M74.5849 28.0989C80.1218 28.0989 84.6104 23.6103 84.6104 18.0734C84.6104 12.5364 80.1218 8.04785 74.5849 8.04785C69.0479 8.04785 64.5593 12.5364 64.5593 18.0734C64.5593 23.6103 69.0479 28.0989 74.5849 28.0989Z" fill="white"/>
<path d="M71.0773 11.5723C71.0747 11.5723 71.0715 11.5732 71.0694 11.5765L68.1246 16.6774L67.2012 18.2769L67.094 18.4625L67.0803 18.4863C67.0793 18.4881 67.0793 18.4914 67.0809 18.4951L69.8864 23.3541V23.3341C69.8257 23.2225 69.7819 23.1363 69.7587 23.0824C69.6411 22.8167 69.5746 22.4492 69.592 22.0919C69.6395 21.1512 70.1397 20.223 70.3914 19.7876C70.9813 18.7659 72.1216 16.79 72.1216 16.79C72.1216 16.79 73.2624 14.8141 73.8523 13.792C74.1035 13.357 74.6575 12.4595 75.449 11.9482C75.7492 11.7542 76.1017 11.6286 76.3893 11.597C76.5998 11.5732 77.2995 11.5723 78.0926 11.5723H71.0773Z" fill="url(#paint0_radial_18385_95212)"/>
<path d="M67.1042 18.5337C67.1486 18.6109 67.1924 18.6872 67.2356 18.7616L67.1042 18.5337ZM81.216 19.9573C81.0445 20.1909 80.7595 20.4333 80.4414 20.5961C79.6029 21.0255 78.5492 21.0567 78.0469 21.0567H74.5849H71.1234C70.6211 21.0567 69.5663 21.0255 68.7289 20.5961C68.4102 20.4333 68.1258 20.1909 67.9538 19.9573C67.8451 19.8089 67.566 19.3334 67.2356 18.7616L67.9395 19.9815L70.5884 24.5702C70.59 24.5725 70.5931 24.5744 70.5963 24.5744H78.5745C78.5766 24.5744 78.5803 24.5721 78.5814 24.5697L82.0576 18.549C81.6745 19.2129 81.3384 19.7912 81.216 19.9573Z" fill="url(#paint1_radial_18385_95212)"/>
<path d="M76.389 11.5965C76.102 11.6281 75.749 11.7537 75.4487 11.9477C75.1179 12.1617 74.8282 12.4432 74.585 12.7303C74.9232 13.129 75.1717 13.5379 75.3179 13.7914C75.9078 14.8136 77.0491 16.7895 77.0491 16.7895C77.0491 16.7895 78.1894 18.7654 78.7799 19.7871C79.0305 20.2225 79.5312 21.1507 79.5777 22.0914C79.5951 22.4487 79.5275 22.8163 79.412 23.0819C79.3307 23.2675 79.0073 23.8318 78.6316 24.4823L82.0899 18.4932L82.0904 18.4913V18.4876L82.0893 18.4853L78.0997 11.5764C78.0986 11.5732 78.0955 11.5718 78.0923 11.5718C77.2998 11.5718 76.6001 11.5727 76.389 11.5965Z" fill="url(#paint2_radial_18385_95212)"/>
</g>
</g>
<g filter="url(#filter2_d_18385_95212)">
<mask id="mask1_18385_95212" style="mask-type:luminance" maskUnits="userSpaceOnUse" x="49" y="8" width="21" height="21">
<path d="M69.3084 18.0734C69.3084 12.5364 64.8198 8.04785 59.2829 8.04785C53.7459 8.04785 49.2573 12.5364 49.2573 18.0734C49.2573 23.6103 53.7459 28.0989 59.2829 28.0989C64.8198 28.0989 69.3084 23.6103 69.3084 18.0734Z" fill="white"/>
</mask>
<g mask="url(#mask1_18385_95212)">
<path d="M69.3084 18.0734C69.3084 12.5364 64.8198 8.04785 59.2829 8.04785C53.7459 8.04785 49.2573 12.5364 49.2573 18.0734C49.2573 23.6103 53.7459 28.0989 59.2829 28.0989C64.8198 28.0989 69.3084 23.6103 69.3084 18.0734Z" fill="#E05F0C"/>
<path d="M49.2573 11.188V24.9585H69.3083V11.188H49.2573Z" fill="white"/>
<path d="M61.4673 22.0098C61.2694 23.0484 61.1016 23.9303 61.0367 24.2729H68.7326V22.0098H61.4673ZM49.6726 22.0303V24.2935H57.314L56.804 22.0303H49.6726Z" fill="#E05F0C"/>
<path d="M53.4269 16.8414L52.8707 14.5002H57.616L59.1528 21.2207H59.2184L60.1866 16.9157C60.6741 14.9609 60.8588 14.5002 63.6079 14.5002H65.5856C65.5856 14.5002 65.1862 16.302 64.6891 18.2572C64.4997 19.0031 62.8486 18.9148 62.9309 18.2182C62.9399 18.1456 63.0175 17.6214 63.0797 17.2484C63.1694 16.7118 62.5436 16.6446 62.4307 17.1758C62.3505 17.5563 61.988 19.4449 61.6487 21.2207H69.7879V7.34961H48.6167V21.2207H56.5893L55.6039 16.8446L53.4269 16.8414Z" fill="#0A438A"/>
</g>
</g>
<g filter="url(#filter3_d_18385_95212)">
<path d="M43.9806 28.0989C49.5176 28.0989 54.0061 23.6103 54.0061 18.0734C54.0061 12.5364 49.5176 8.04785 43.9806 8.04785C38.4437 8.04785 33.9551 12.5364 33.9551 18.0734C33.9551 23.6103 38.4437 28.0989 43.9806 28.0989Z" fill="#1C62B7"/>
<mask id="mask2_18385_95212" style="mask-type:luminance" maskUnits="userSpaceOnUse" x="38" y="12" width="12" height="12">
<path d="M49.8573 12.8877H38.7947V23.9503H49.8573V12.8877Z" fill="white"/>
</mask>
<g mask="url(#mask2_18385_95212)">
<path d="M38.8318 12.9028H49.8196V23.9352H38.8318V12.9028ZM45.5086 15.5159L41.2165 21.2763H43.1562L47.4645 15.5159H45.5086ZM40.3614 22.4072H48.29V14.4311H40.3614V22.4072Z" fill="white"/>
</g>
</g>
<g filter="url(#filter4_d_18385_95212)">
<path d="M28.6784 28.0989C34.2153 28.0989 38.7039 23.6103 38.7039 18.0734C38.7039 12.5364 34.2153 8.04785 28.6784 8.04785C23.1414 8.04785 18.6528 12.5364 18.6528 18.0734C18.6528 23.6103 23.1414 28.0989 28.6784 28.0989Z" fill="#FF0000"/>
<path d="M26.7055 11.5883C26.7055 11.3177 26.7579 11.064 26.8595 10.8255C26.9626 10.5887 27.1031 10.3806 27.2807 10.2031C27.4599 10.0272 27.6679 9.88679 27.9081 9.78532C28.1466 9.68216 28.402 9.63135 28.6726 9.63135C28.9449 9.63135 29.1987 9.68216 29.4371 9.78532C29.674 9.88679 29.8821 10.0272 30.0579 10.2031C30.2355 10.3806 30.3742 10.5887 30.4774 10.8255C30.5788 11.064 30.6313 11.3177 30.6313 11.5883C30.6313 11.859 30.5788 12.1144 30.4774 12.3529C30.3742 12.5896 30.2355 12.7977 30.0579 12.9736C29.8821 13.1512 29.674 13.2899 29.4371 13.393C29.1987 13.4946 28.9449 13.547 28.6726 13.547C28.402 13.547 28.1466 13.4946 27.9081 13.393C27.6679 13.2899 27.4599 13.1512 27.2807 12.9736C27.1031 12.7977 26.9626 12.5896 26.8595 12.3529C26.7579 12.1144 26.7055 11.859 26.7055 11.5883ZM24.7436 24.9335C24.4729 24.9335 24.2192 24.8826 23.9808 24.7797C23.7422 24.6781 23.5359 24.5377 23.3583 24.3618C23.1824 24.1841 23.042 23.9779 22.9405 23.7392C22.8373 23.5007 22.7866 23.2472 22.7866 22.9764V22.1933H31.8102V21.0144H22.7866V16.693C22.7866 16.4223 22.8373 16.1669 22.9405 15.9302C23.042 15.6916 23.1824 15.4853 23.3583 15.3077C23.5359 15.1318 23.7422 14.9914 23.9808 14.89C24.2192 14.7867 24.4729 14.736 24.7436 14.736H32.6085C32.8791 14.736 33.1346 14.7867 33.373 14.89C33.6132 14.9914 33.8212 15.1318 33.9971 15.3077C34.1747 15.4853 34.3134 15.6916 34.4166 15.9302C34.5198 16.1669 34.5705 16.4223 34.5705 16.693V17.4761H25.5267V18.65H34.5705V22.9764C34.5705 23.2472 34.5198 23.5007 34.4166 23.7392C34.3134 23.9779 34.1747 24.1841 33.9971 24.3618C33.8212 24.5377 33.6132 24.6781 33.373 24.7797C33.1346 24.8826 32.8791 24.9335 32.6085 24.9335H24.7436Z" fill="white"/>
</g>
<defs>
<filter id="filter0_d_18385_95212" x="77.7507" y="5.88936" width="24.2765" height="24.2765" filterUnits="userSpaceOnUse" color-interpolation-filters="sRGB">
<feFlood flood-opacity="0" result="BackgroundImageFix"/>
<feColorMatrix in="SourceAlpha" type="matrix" values="0 0 0 0 0 0 0 0 0 0 0 0 0 0 0 0 0 0 127 0" result="hardAlpha"/>
<feOffset/>
<feGaussianBlur stdDeviation="1.05532"/>
<feComposite in2="hardAlpha" operator="out"/>
<feColorMatrix type="matrix" values="0 0 0 0 0 0 0 0 0 0 0 0 0 0 0 0 0 0 0.1 0"/>
<feBlend mode="normal" in2="BackgroundImageFix" result="effect1_dropShadow_18385_95212"/>
<feBlend mode="normal" in="SourceGraphic" in2="effect1_dropShadow_18385_95212" result="shape"/>
</filter>
<filter id="filter1_d_18385_95212" x="62.4487" y="5.93721" width="24.2723" height="24.2725" filterUnits="userSpaceOnUse" color-interpolation-filters="sRGB">
<feFlood flood-opacity="0" result="BackgroundImageFix"/>
<feColorMatrix in="SourceAlpha" type="matrix" values="0 0 0 0 0 0 0 0 0 0 0 0 0 0 0 0 0 0 127 0" result="hardAlpha"/>
<feOffset/>
<feGaussianBlur stdDeviation="1.05532"/>
<feComposite in2="hardAlpha" operator="out"/>
<feColorMatrix type="matrix" values="0 0 0 0 0 0 0 0 0 0 0 0 0 0 0 0 0 0 0.1 0"/>
<feBlend mode="normal" in2="BackgroundImageFix" result="effect1_dropShadow_18385_95212"/>
<feBlend mode="normal" in="SourceGraphic" in2="effect1_dropShadow_18385_95212" result="shape"/>
</filter>
<filter id="filter2_d_18385_95212" x="46.619" y="5.40955" width="25.3276" height="25.3279" filterUnits="userSpaceOnUse" color-interpolation-filters="sRGB">
<feFlood flood-opacity="0" result="BackgroundImageFix"/>
<feColorMatrix in="SourceAlpha" type="matrix" values="0 0 0 0 0 0 0 0 0 0 0 0 0 0 0 0 0 0 127 0" result="hardAlpha"/>
<feOffset/>
<feGaussianBlur stdDeviation="1.31915"/>
<feColorMatrix type="matrix" values="0 0 0 0 0.160784 0 0 0 0 0.188235 0 0 0 0 0.301961 0 0 0 0.15 0"/>
<feBlend mode="normal" in2="BackgroundImageFix" result="effect1_dropShadow_18385_95212"/>
<feBlend mode="normal" in="SourceGraphic" in2="effect1_dropShadow_18385_95212" result="shape"/>
</filter>
<filter id="filter3_d_18385_95212" x="31.4755" y="5.56823" width="25.0103" height="25.0105" filterUnits="userSpaceOnUse" color-interpolation-filters="sRGB">
<feFlood flood-opacity="0" result="BackgroundImageFix"/>
<feColorMatrix in="SourceAlpha" type="matrix" values="0 0 0 0 0 0 0 0 0 0 0 0 0 0 0 0 0 0 127 0" result="hardAlpha"/>
<feOffset/>
<feGaussianBlur stdDeviation="1.23981"/>
<feColorMatrix type="matrix" values="0 0 0 0 0 0 0 0 0 0 0 0 0 0 0 0 0 0 0.25 0"/>
<feBlend mode="normal" in2="BackgroundImageFix" result="effect1_dropShadow_18385_95212"/>
<feBlend mode="normal" in="SourceGraphic" in2="effect1_dropShadow_18385_95212" result="shape"/>
</filter>
<filter id="filter4_d_18385_95212" x="16.1732" y="5.56823" width="25.0103" height="25.0105" filterUnits="userSpaceOnUse" color-interpolation-filters="sRGB">
<feFlood flood-opacity="0" result="BackgroundImageFix"/>
<feColorMatrix in="SourceAlpha" type="matrix" values="0 0 0 0 0 0 0 0 0 0 0 0 0 0 0 0 0 0 127 0" result="hardAlpha"/>
<feOffset/>
<feGaussianBlur stdDeviation="1.23981"/>
<feColorMatrix type="matrix" values="0 0 0 0 0 0 0 0 0 0 0 0 0 0 0 0 0 0 0.25 0"/>
<feBlend mode="normal" in2="BackgroundImageFix" result="effect1_dropShadow_18385_95212"/>
<feBlend mode="normal" in="SourceGraphic" in2="effect1_dropShadow_18385_95212" result="shape"/>
</filter>
<radialGradient id="paint0_radial_18385_95212" cx="0" cy="0" r="1" gradientUnits="userSpaceOnUse" gradientTransform="translate(76.3867 11.572) scale(11.5938 11.5939)">
<stop stop-color="#FEDF33"/>
<stop offset="0.440002" stop-color="#FBB809"/>
<stop offset="0.899994" stop-color="#EE960D"/>
<stop offset="1" stop-color="#E17A10"/>
</radialGradient>
<radialGradient id="paint1_radial_18385_95212" cx="0" cy="0" r="1" gradientUnits="userSpaceOnUse" gradientTransform="translate(67.9395 19.9814) scale(11.5893 11.5892)">
<stop stop-color="#FEDF33"/>
<stop offset="0.440002" stop-color="#FBB809"/>
<stop offset="0.899994" stop-color="#EE960D"/>
<stop offset="1" stop-color="#E17A10"/>
</radialGradient>
<radialGradient id="paint2_radial_18385_95212" cx="0" cy="0" r="1" gradientUnits="userSpaceOnUse" gradientTransform="translate(79.4041 23.119) scale(11.6217)">
<stop stop-color="#FEDF33"/>
<stop offset="0.440002" stop-color="#FBB809"/>
<stop offset="0.899994" stop-color="#EE960D"/>
<stop offset="1" stop-color="#D87301"/>
</radialGradient>
</defs>
</svg>
