<?xml version="1.0" encoding="UTF-8"?>
<svg xmlns="http://www.w3.org/2000/svg" xmlns:xlink="http://www.w3.org/1999/xlink" width="139px" height="40px" viewBox="0 0 139 40" version="1.1">
<defs>
<filter id="alpha" filterUnits="objectBoundingBox" x="0%" y="0%" width="100%" height="100%">
  <feColorMatrix type="matrix" in="SourceGraphic" values="0 0 0 0 1 0 0 0 0 1 0 0 0 0 1 0 0 0 1 0"/>
</filter>
<mask id="mask0">
  <g filter="url(#alpha)">
<rect x="0" y="0" width="139" height="40" style="fill:rgb(0%,0%,0%);fill-opacity:0.4;stroke:none;"/>
  </g>
</mask>
<clipPath id="clip1">
  <rect x="0" y="0" width="139" height="40"/>
</clipPath>
<g id="surface5" clip-path="url(#clip1)">
<path style=" stroke:none;fill-rule:nonzero;fill:rgb(100%,100%,100%);fill-opacity:1;" d="M 10.210938 25.703125 C 10.210938 23.488281 11.96875 21.695312 14.140625 21.695312 L 18.066406 21.695312 L 18.066406 29.707031 L 14.140625 29.707031 C 11.96875 29.707031 10.210938 27.914062 10.210938 25.703125 Z M 10.210938 25.703125 "/>
</g>
<mask id="mask1">
  <g filter="url(#alpha)">
<rect x="0" y="0" width="139" height="40" style="fill:rgb(0%,0%,0%);fill-opacity:0.4;stroke:none;"/>
  </g>
</mask>
<clipPath id="clip2">
  <rect x="0" y="0" width="139" height="40"/>
</clipPath>
<g id="surface8" clip-path="url(#clip2)">
<path style=" stroke:none;fill-rule:nonzero;fill:rgb(100%,100%,100%);fill-opacity:1;" d="M 10.210938 10.316406 L 14.757812 10.316406 C 16.585938 10.316406 18.066406 11.824219 18.066406 13.6875 L 18.066406 18.324219 L 10.210938 18.324219 Z M 10.210938 10.316406 "/>
</g>
</defs>
<g id="surface1">
<path style=" stroke:none;fill-rule:nonzero;fill:rgb(100%,100%,100%);fill-opacity:1;" d="M 49.261719 8.066406 C 48.761719 8.066406 48.3125 7.957031 47.910156 7.730469 C 47.515625 7.5 47.199219 7.191406 46.960938 6.804688 C 46.726562 6.410156 46.613281 5.972656 46.613281 5.492188 C 46.613281 5.011719 46.726562 4.582031 46.960938 4.199219 C 47.191406 3.8125 47.507812 3.507812 47.910156 3.285156 C 48.3125 3.054688 48.757812 2.9375 49.25 2.9375 C 49.753906 2.9375 50.203125 3.054688 50.601562 3.285156 C 51 3.507812 51.320312 3.8125 51.550781 4.199219 C 51.78125 4.582031 51.898438 5.011719 51.898438 5.492188 C 51.898438 5.972656 51.78125 6.410156 51.550781 6.804688 C 51.320312 7.191406 51 7.5 50.601562 7.730469 C 50.203125 7.957031 49.757812 8.066406 49.261719 8.066406 Z M 49.25 6.824219 C 49.503906 6.824219 49.722656 6.773438 49.914062 6.664062 C 50.113281 6.546875 50.261719 6.390625 50.363281 6.195312 C 50.472656 5.992188 50.527344 5.761719 50.527344 5.503906 C 50.527344 5.246094 50.472656 5.019531 50.363281 4.820312 C 50.253906 4.625 50.105469 4.472656 49.914062 4.363281 C 49.722656 4.246094 49.503906 4.191406 49.25 4.191406 C 49.003906 4.191406 48.785156 4.246094 48.597656 4.363281 C 48.40625 4.472656 48.253906 4.625 48.144531 4.820312 C 48.035156 5.019531 47.980469 5.246094 47.980469 5.503906 C 47.980469 5.761719 48.035156 5.992188 48.144531 6.195312 C 48.253906 6.390625 48.40625 6.546875 48.597656 6.664062 C 48.785156 6.773438 49.003906 6.824219 49.25 6.824219 Z M 49.25 6.824219 "/>
<path style=" stroke:none;fill-rule:evenodd;fill:rgb(100%,100%,100%);fill-opacity:1;" d="M 57.585938 7.964844 L 56.257812 7.964844 L 56.257812 7.519531 C 56.128906 7.644531 55.976562 7.753906 55.808594 7.84375 C 55.519531 7.992188 55.199219 8.066406 54.847656 8.066406 C 54.390625 8.066406 53.980469 7.957031 53.621094 7.730469 C 53.257812 7.507812 52.972656 7.203125 52.761719 6.816406 C 52.554688 6.429688 52.453125 5.996094 52.453125 5.511719 C 52.453125 5.023438 52.554688 4.585938 52.761719 4.199219 C 52.972656 3.8125 53.253906 3.507812 53.609375 3.285156 C 53.96875 3.0625 54.382812 2.949219 54.847656 2.949219 C 55.199219 2.949219 55.515625 3.019531 55.796875 3.164062 C 55.96875 3.246094 56.117188 3.351562 56.246094 3.476562 L 56.246094 2.441406 C 56.246094 1.707031 56.847656 1.109375 57.585938 1.109375 C 57.585938 3.5625 57.585938 5.511719 57.585938 7.964844 Z M 55.726562 6.671875 C 55.542969 6.78125 55.324219 6.835938 55.070312 6.835938 C 54.832031 6.835938 54.617188 6.78125 54.425781 6.671875 C 54.234375 6.558594 54.085938 6.402344 53.976562 6.203125 C 53.875 6 53.824219 5.765625 53.824219 5.503906 C 53.824219 5.246094 53.875 5.019531 53.976562 4.820312 C 54.085938 4.625 54.234375 4.46875 54.417969 4.351562 C 54.609375 4.238281 54.828125 4.179688 55.082031 4.179688 C 55.328125 4.179688 55.542969 4.238281 55.726562 4.351562 C 55.917969 4.460938 56.0625 4.617188 56.164062 4.820312 C 56.273438 5.019531 56.328125 5.246094 56.328125 5.503906 C 56.328125 5.765625 56.273438 6 56.164062 6.203125 C 56.0625 6.402344 55.917969 6.558594 55.726562 6.671875 Z M 55.726562 6.671875 "/>
<path style=" stroke:none;fill-rule:evenodd;fill:rgb(100%,100%,100%);fill-opacity:1;" d="M 59.621094 7.730469 C 59.980469 7.957031 60.386719 8.066406 60.835938 8.066406 C 61.191406 8.066406 61.507812 7.996094 61.785156 7.855469 C 61.972656 7.753906 62.132812 7.632812 62.265625 7.488281 L 62.265625 7.964844 L 63.597656 7.964844 L 63.597656 3.050781 L 62.265625 3.050781 L 62.265625 3.523438 C 62.132812 3.378906 61.972656 3.257812 61.785156 3.164062 C 61.507812 3.019531 61.191406 2.949219 60.835938 2.949219 C 60.386719 2.949219 59.980469 3.0625 59.621094 3.285156 C 59.257812 3.507812 58.976562 3.8125 58.769531 4.199219 C 58.566406 4.585938 58.464844 5.023438 58.464844 5.511719 C 58.464844 5.996094 58.566406 6.429688 58.769531 6.816406 C 58.976562 7.203125 59.257812 7.507812 59.621094 7.730469 Z M 61.992188 6.46875 C 61.757812 6.714844 61.457031 6.835938 61.082031 6.835938 C 60.835938 6.835938 60.617188 6.78125 60.425781 6.671875 C 60.242188 6.558594 60.097656 6.402344 59.988281 6.203125 C 59.886719 6 59.835938 5.765625 59.835938 5.503906 C 59.835938 5.246094 59.886719 5.019531 59.988281 4.820312 C 60.097656 4.617188 60.242188 4.460938 60.425781 4.351562 C 60.617188 4.238281 60.835938 4.179688 61.082031 4.179688 C 61.332031 4.179688 61.550781 4.238281 61.734375 4.351562 C 61.925781 4.460938 62.074219 4.617188 62.175781 4.820312 C 62.285156 5.019531 62.339844 5.246094 62.339844 5.503906 C 62.339844 5.894531 62.222656 6.21875 61.992188 6.46875 Z M 61.992188 6.46875 "/>
<path style=" stroke:none;fill-rule:nonzero;fill:rgb(100%,100%,100%);fill-opacity:1;" d="M 44.519531 6.632812 C 44.519531 7.367188 45.121094 7.964844 45.859375 7.964844 L 45.859375 4.851562 C 45.859375 4.519531 45.777344 4.210938 45.617188 3.925781 C 45.453125 3.632812 45.226562 3.398438 44.941406 3.222656 C 44.65625 3.039062 44.332031 2.949219 43.96875 2.949219 C 43.59375 2.949219 43.257812 3.03125 42.957031 3.191406 C 42.800781 3.28125 42.660156 3.386719 42.539062 3.511719 L 42.539062 3.050781 L 41.199219 3.050781 L 41.199219 6.632812 C 41.199219 7.367188 41.796875 7.964844 42.539062 7.964844 L 42.539062 5.148438 C 42.539062 4.949219 42.578125 4.777344 42.660156 4.628906 C 42.75 4.476562 42.867188 4.363281 43.019531 4.28125 C 43.167969 4.199219 43.339844 4.160156 43.53125 4.160156 C 43.824219 4.160156 44.0625 4.25 44.246094 4.433594 C 44.429688 4.617188 44.519531 4.855469 44.519531 5.148438 Z M 44.519531 6.632812 "/>
<path style=" stroke:none;fill-rule:evenodd;fill:rgb(100%,100%,100%);fill-opacity:1;" d="M 12.503906 2.929688 L 9.683594 2.929688 C 9.640625 2.929688 9.601562 2.929688 9.558594 2.929688 L 9.554688 2.929688 C 8.988281 2.929688 8.238281 2.925781 7.582031 3.019531 C 6.769531 3.132812 5.566406 3.445312 4.542969 4.5 C 3.515625 5.558594 3.210938 6.796875 3.101562 7.636719 C 3.015625 8.3125 3.015625 9.082031 3.015625 9.671875 C 3.015625 9.714844 3.015625 9.757812 3.015625 9.800781 L 3.015625 12.746094 L 6.765625 12.746094 L 6.765625 9.800781 C 6.765625 8.382812 6.765625 7.675781 7.191406 7.234375 C 7.621094 6.792969 8.308594 6.792969 9.683594 6.792969 L 12.503906 6.792969 Z M 32.65625 12.746094 L 32.65625 9.800781 C 32.65625 8.382812 32.65625 7.675781 32.226562 7.234375 C 31.800781 6.792969 31.113281 6.792969 29.738281 6.792969 L 26.875 6.792969 L 26.875 2.929688 L 29.738281 2.929688 C 29.777344 2.929688 29.820312 2.929688 29.863281 2.929688 C 30.433594 2.929688 31.183594 2.925781 31.839844 3.019531 C 32.652344 3.132812 33.851562 3.445312 34.878906 4.5 C 35.90625 5.558594 36.207031 6.796875 36.316406 7.636719 C 36.40625 8.3125 36.40625 9.082031 36.402344 9.671875 L 36.402344 12.746094 Z M 26.875 33.105469 L 29.738281 33.105469 C 31.113281 33.105469 31.800781 33.105469 32.226562 32.664062 C 32.65625 32.222656 32.65625 31.515625 32.65625 30.097656 L 32.65625 27.136719 L 36.402344 27.136719 L 36.402344 30.226562 C 36.40625 30.8125 36.40625 31.585938 36.316406 32.261719 C 36.207031 33.101562 35.90625 34.339844 34.878906 35.394531 C 33.851562 36.453125 32.652344 36.765625 31.839844 36.878906 C 31.183594 36.96875 30.4375 36.96875 29.867188 36.96875 L 29.863281 36.96875 C 29.820312 36.96875 29.777344 36.96875 29.738281 36.96875 L 26.875 36.96875 Z M 6.765625 27.136719 L 6.765625 30.097656 C 6.765625 31.515625 6.765625 32.222656 7.191406 32.664062 C 7.621094 33.105469 8.308594 33.105469 9.683594 33.105469 L 12.503906 33.105469 L 12.503906 36.96875 L 9.628906 36.96875 C 9.605469 36.96875 9.582031 36.96875 9.554688 36.96875 C 8.984375 36.96875 8.238281 36.96875 7.582031 36.878906 C 6.769531 36.765625 5.566406 36.453125 4.542969 35.394531 C 3.515625 34.339844 3.210938 33.101562 3.101562 32.261719 C 3.015625 31.585938 3.015625 30.8125 3.015625 30.226562 C 3.015625 30.183594 3.015625 30.140625 3.015625 30.097656 L 3.015625 27.136719 Z M 6.765625 27.136719 "/>
<path style=" stroke:none;fill-rule:nonzero;fill:rgb(100%,100%,100%);fill-opacity:1;" d="M 29.207031 14.40625 C 29.207031 16.734375 27.355469 18.621094 25.074219 18.621094 C 22.789062 18.621094 20.9375 16.734375 20.9375 14.40625 C 20.9375 12.078125 22.789062 10.191406 25.074219 10.191406 C 27.355469 10.191406 29.207031 12.078125 29.207031 14.40625 Z M 29.207031 14.40625 "/>
<path style=" stroke:none;fill-rule:nonzero;fill:rgb(100%,100%,100%);fill-opacity:1;" d="M 25.074219 21.574219 C 22.789062 21.574219 20.9375 23.460938 20.9375 25.789062 L 20.9375 29.582031 L 29.207031 29.582031 L 29.207031 25.789062 C 29.207031 23.460938 27.355469 21.574219 25.074219 21.574219 Z M 25.074219 21.574219 "/>
<use xlink:href="#surface5" mask="url(#mask0)"/>
<use xlink:href="#surface8" mask="url(#mask1)"/>
<path style=" stroke:none;fill-rule:nonzero;fill:rgb(100%,100%,100%);fill-opacity:1;" d="M 131.992188 28.5 C 132.960938 28.5 133.6875 28.769531 134.171875 29.304688 C 134.65625 29.84375 134.898438 30.617188 134.898438 31.632812 L 134.898438 37.039062 L 131.757812 37.039062 L 131.757812 32.011719 C 131.757812 31.652344 131.660156 31.367188 131.472656 31.15625 C 131.292969 30.933594 131.035156 30.824219 130.699219 30.824219 C 130.308594 30.824219 129.992188 30.949219 129.75 31.203125 C 129.507812 31.457031 129.386719 31.769531 129.386719 32.136719 L 129.386719 37.039062 L 126.246094 37.039062 L 126.246094 28.691406 L 128.820312 28.691406 L 129.023438 29.953125 C 129.351562 29.511719 129.777344 29.160156 130.304688 28.894531 C 130.839844 28.632812 131.402344 28.5 131.992188 28.5 Z M 131.992188 28.5 "/>
<path style=" stroke:none;fill-rule:nonzero;fill:rgb(100%,100%,100%);fill-opacity:1;" d="M 120.339844 28.5 C 121.800781 28.5 122.949219 28.875 123.78125 29.621094 C 124.625 30.359375 125.042969 31.441406 125.042969 32.863281 C 125.042969 34.289062 124.625 35.375 123.78125 36.121094 C 122.949219 36.859375 121.800781 37.230469 120.339844 37.230469 C 118.875 37.230469 117.726562 36.859375 116.898438 36.121094 C 116.066406 35.382812 115.648438 34.296875 115.648438 32.863281 C 115.648438 31.429688 116.066406 30.34375 116.898438 29.605469 C 117.726562 28.867188 118.875 28.5 120.339844 28.5 Z M 120.339844 30.636719 C 119.308594 30.636719 118.792969 31.230469 118.792969 32.421875 L 118.792969 33.324219 C 118.792969 34.503906 119.308594 35.09375 120.339844 35.09375 C 121.382812 35.09375 121.902344 34.503906 121.902344 33.324219 L 121.902344 32.421875 C 121.902344 31.230469 121.382812 30.636719 120.339844 30.636719 Z M 120.339844 30.636719 "/>
<path style=" stroke:none;fill-rule:nonzero;fill:rgb(100%,100%,100%);fill-opacity:1;" d="M 111.195312 27.710938 L 111.195312 25.574219 L 114.339844 25.574219 L 114.339844 27.710938 Z M 111.195312 37.039062 L 111.195312 28.691406 L 114.339844 28.691406 L 114.339844 37.039062 Z M 111.195312 37.039062 "/>
<path style=" stroke:none;fill-rule:nonzero;fill:rgb(100%,100%,100%);fill-opacity:1;" d="M 109.945312 28.691406 L 109.945312 30.824219 L 108.175781 30.824219 L 108.175781 34.003906 C 108.175781 34.382812 108.238281 34.660156 108.363281 34.839844 C 108.492188 35.011719 108.722656 35.09375 109.058594 35.09375 L 109.945312 35.09375 L 109.945312 36.945312 C 109.691406 37.027344 109.363281 37.097656 108.964844 37.148438 C 108.566406 37.203125 108.21875 37.230469 107.921875 37.230469 C 106.996094 37.230469 106.28125 37.058594 105.773438 36.722656 C 105.28125 36.386719 105.03125 35.8125 105.03125 35 L 105.03125 30.824219 L 103.863281 30.824219 L 103.863281 28.691406 L 105.160156 28.691406 L 105.835938 26.160156 L 108.175781 26.160156 L 108.175781 28.691406 Z M 109.945312 28.691406 "/>
<path style=" stroke:none;fill-rule:nonzero;fill:rgb(100%,100%,100%);fill-opacity:1;" d="M 98.550781 28.5 C 99.824219 28.5 100.863281 28.714844 101.664062 29.148438 C 102.464844 29.570312 102.863281 30.261719 102.863281 31.21875 L 102.863281 34.476562 C 102.863281 34.65625 102.90625 34.804688 102.988281 34.921875 C 103.074219 35.035156 103.199219 35.09375 103.367188 35.09375 L 103.9375 35.09375 L 103.9375 36.914062 C 103.90625 36.933594 103.820312 36.972656 103.683594 37.023438 C 103.558594 37.066406 103.375 37.109375 103.132812 37.148438 C 102.890625 37.203125 102.609375 37.230469 102.292969 37.230469 C 101.683594 37.230469 101.179688 37.140625 100.777344 36.960938 C 100.390625 36.769531 100.121094 36.511719 99.972656 36.183594 C 99.574219 36.5 99.125 36.753906 98.632812 36.945312 C 98.136719 37.132812 97.558594 37.230469 96.894531 37.230469 C 94.933594 37.230469 93.957031 36.449219 93.957031 34.890625 C 93.957031 34.078125 94.171875 33.460938 94.605469 33.039062 C 95.046875 32.605469 95.675781 32.3125 96.5 32.152344 C 97.320312 31.996094 98.394531 31.914062 99.71875 31.914062 L 99.71875 31.503906 C 99.71875 31.179688 99.605469 30.929688 99.371094 30.761719 C 99.152344 30.59375 98.863281 30.507812 98.503906 30.507812 C 98.179688 30.507812 97.894531 30.566406 97.652344 30.683594 C 97.417969 30.796875 97.304688 30.984375 97.304688 31.234375 L 97.304688 31.300781 L 94.210938 31.300781 C 94.199219 31.246094 94.191406 31.171875 94.191406 31.078125 C 94.191406 30.285156 94.566406 29.660156 95.316406 29.195312 C 96.074219 28.730469 97.152344 28.5 98.550781 28.5 Z M 99.71875 33.402344 C 98.824219 33.402344 98.160156 33.503906 97.730469 33.703125 C 97.308594 33.890625 97.097656 34.152344 97.097656 34.476562 C 97.097656 35.003906 97.457031 35.269531 98.171875 35.269531 C 98.582031 35.269531 98.941406 35.15625 99.246094 34.9375 C 99.5625 34.714844 99.71875 34.441406 99.71875 34.113281 Z M 99.71875 33.402344 "/>
<path style=" stroke:none;fill-rule:nonzero;fill:rgb(100%,100%,100%);fill-opacity:1;" d="M 88.523438 28.5 C 89.894531 28.5 91 28.796875 91.839844 29.386719 C 92.695312 29.964844 93.121094 30.855469 93.121094 32.058594 L 90.070312 32.058594 C 90.070312 31.109375 89.558594 30.636719 88.523438 30.636719 C 87.492188 30.636719 86.976562 31.230469 86.976562 32.421875 L 86.976562 33.324219 C 86.976562 34.503906 87.515625 35.09375 88.585938 35.09375 C 89.660156 35.09375 90.199219 34.609375 90.199219 33.640625 L 93.121094 33.640625 C 93.121094 34.851562 92.695312 35.753906 91.839844 36.34375 C 91 36.933594 89.894531 37.230469 88.523438 37.230469 C 87.0625 37.230469 85.914062 36.859375 85.082031 36.121094 C 84.25 35.382812 83.835938 34.296875 83.835938 32.863281 C 83.835938 31.429688 84.25 30.34375 85.082031 29.605469 C 85.914062 28.867188 87.0625 28.5 88.523438 28.5 Z M 88.523438 28.5 "/>
<path style=" stroke:none;fill-rule:nonzero;fill:rgb(100%,100%,100%);fill-opacity:1;" d="M 77.296875 25.382812 C 77.507812 25.382812 77.765625 25.417969 78.070312 25.480469 C 78.375 25.53125 78.625 25.59375 78.8125 25.667969 L 78.8125 27.519531 L 78.246094 27.519531 C 77.90625 27.519531 77.679688 27.582031 77.566406 27.710938 C 77.449219 27.835938 77.390625 28.050781 77.390625 28.359375 L 77.390625 28.691406 L 78.8125 28.691406 L 78.8125 30.824219 L 77.390625 30.824219 L 77.390625 37.039062 L 74.25 37.039062 L 74.25 30.824219 L 73.175781 30.824219 L 73.175781 28.691406 L 74.25 28.691406 L 74.25 28.34375 C 74.25 27.265625 74.511719 26.507812 75.039062 26.066406 C 75.566406 25.613281 76.316406 25.382812 77.296875 25.382812 Z M 79.476562 27.710938 L 79.476562 25.574219 L 82.617188 25.574219 L 82.617188 27.710938 Z M 79.476562 37.039062 L 79.476562 28.691406 L 82.617188 28.691406 L 82.617188 37.039062 Z M 79.476562 37.039062 "/>
<path style=" stroke:none;fill-rule:nonzero;fill:rgb(100%,100%,100%);fill-opacity:1;" d="M 69.164062 27.710938 L 69.164062 25.574219 L 72.308594 25.574219 L 72.308594 27.710938 Z M 69.164062 37.039062 L 69.164062 28.691406 L 72.308594 28.691406 L 72.308594 37.039062 Z M 69.164062 37.039062 "/>
<path style=" stroke:none;fill-rule:nonzero;fill:rgb(100%,100%,100%);fill-opacity:1;" d="M 67.421875 28.484375 C 67.664062 28.484375 67.878906 28.515625 68.070312 28.578125 C 68.257812 28.632812 68.355469 28.664062 68.355469 28.675781 L 68.355469 31.316406 L 67.34375 31.316406 C 66.691406 31.316406 66.21875 31.484375 65.921875 31.820312 C 65.636719 32.160156 65.496094 32.660156 65.496094 33.324219 L 65.496094 37.039062 L 62.355469 37.039062 L 62.355469 28.691406 L 64.925781 28.691406 L 65.132812 29.953125 C 65.324219 29.46875 65.621094 29.105469 66.03125 28.863281 C 66.445312 28.609375 66.90625 28.484375 67.421875 28.484375 Z M 67.421875 28.484375 "/>
<path style=" stroke:none;fill-rule:nonzero;fill:rgb(100%,100%,100%);fill-opacity:1;" d="M 56.449219 28.5 C 57.972656 28.5 59.136719 28.859375 59.9375 29.574219 C 60.75 30.292969 61.152344 31.386719 61.152344 32.863281 L 61.152344 33.402344 L 54.898438 33.402344 C 54.898438 34.003906 55.03125 34.457031 55.296875 34.761719 C 55.570312 35.066406 55.996094 35.222656 56.574219 35.222656 C 57.101562 35.222656 57.484375 35.109375 57.726562 34.890625 C 57.980469 34.667969 58.105469 34.371094 58.105469 34.003906 L 61.152344 34.003906 C 61.152344 35.015625 60.769531 35.804688 60 36.375 C 59.230469 36.945312 58.109375 37.230469 56.636719 37.230469 C 55.089844 37.230469 53.890625 36.871094 53.035156 36.152344 C 52.183594 35.425781 51.757812 34.328125 51.757812 32.863281 C 51.757812 31.429688 52.171875 30.34375 53.003906 29.605469 C 53.835938 28.867188 54.984375 28.5 56.449219 28.5 Z M 56.574219 30.507812 C 55.585938 30.507812 55.03125 30.976562 54.917969 31.914062 L 57.980469 31.914062 C 57.980469 31.484375 57.851562 31.140625 57.601562 30.886719 C 57.359375 30.636719 57.015625 30.507812 56.574219 30.507812 Z M 56.574219 30.507812 "/>
<path style=" stroke:none;fill-rule:nonzero;fill:rgb(100%,100%,100%);fill-opacity:1;" d="M 44.136719 37.039062 L 40.285156 26.160156 L 44.011719 26.160156 L 46.191406 33.433594 L 46.253906 33.433594 L 48.449219 26.160156 L 52.019531 26.160156 L 48.179688 37.039062 Z M 44.136719 37.039062 "/>
<path style=" stroke:none;fill-rule:nonzero;fill:rgb(100%,100%,100%);fill-opacity:1;" d="M 101.511719 22.164062 C 101.082031 23.332031 100.550781 24.21875 99.917969 24.820312 C 99.296875 25.429688 98.421875 25.738281 97.296875 25.738281 C 96.613281 25.738281 96.007812 25.640625 95.480469 25.453125 L 95.480469 23.570312 L 96.742188 23.570312 C 97.53125 23.570312 98 23.183594 98.148438 22.414062 L 94.832031 14.066406 L 98.210938 14.066406 L 99.808594 19.617188 L 99.917969 19.617188 L 101.386719 14.066406 L 104.480469 14.066406 Z M 101.511719 22.164062 "/>
<path style=" stroke:none;fill-rule:nonzero;fill:rgb(100%,100%,100%);fill-opacity:1;" d="M 94.636719 14.066406 L 94.636719 16.199219 L 92.867188 16.199219 L 92.867188 19.378906 C 92.867188 19.757812 92.933594 20.039062 93.058594 20.21875 C 93.183594 20.386719 93.417969 20.46875 93.753906 20.46875 L 94.636719 20.46875 L 94.636719 22.320312 C 94.386719 22.40625 94.058594 22.472656 93.660156 22.527344 C 93.257812 22.578125 92.910156 22.605469 92.617188 22.605469 C 91.691406 22.605469 90.972656 22.4375 90.46875 22.097656 C 89.972656 21.761719 89.726562 21.1875 89.726562 20.375 L 89.726562 16.199219 L 88.558594 16.199219 L 88.558594 14.066406 L 89.851562 14.066406 L 90.53125 11.535156 L 92.867188 11.535156 L 92.867188 14.066406 Z M 94.636719 14.066406 "/>
<path style=" stroke:none;fill-rule:nonzero;fill:rgb(100%,100%,100%);fill-opacity:1;" d="M 84.246094 13.085938 L 84.246094 10.949219 L 87.390625 10.949219 L 87.390625 13.085938 Z M 84.246094 22.414062 L 84.246094 14.066406 L 87.390625 14.066406 L 87.390625 22.414062 Z M 84.246094 22.414062 "/>
<path style=" stroke:none;fill-rule:nonzero;fill:rgb(100%,100%,100%);fill-opacity:1;" d="M 82.996094 14.066406 L 82.996094 16.199219 L 81.226562 16.199219 L 81.226562 19.378906 C 81.226562 19.757812 81.289062 20.039062 81.414062 20.21875 C 81.542969 20.386719 81.773438 20.46875 82.109375 20.46875 L 82.996094 20.46875 L 82.996094 22.320312 C 82.742188 22.40625 82.414062 22.472656 82.015625 22.527344 C 81.617188 22.578125 81.269531 22.605469 80.972656 22.605469 C 80.046875 22.605469 79.332031 22.4375 78.824219 22.097656 C 78.332031 21.761719 78.082031 21.1875 78.082031 20.375 L 78.082031 16.199219 L 76.914062 16.199219 L 76.914062 14.066406 L 78.210938 14.066406 L 78.886719 11.535156 L 81.226562 11.535156 L 81.226562 14.066406 Z M 82.996094 14.066406 "/>
<path style=" stroke:none;fill-rule:nonzero;fill:rgb(100%,100%,100%);fill-opacity:1;" d="M 72.96875 13.875 C 73.9375 13.875 74.660156 14.144531 75.144531 14.683594 C 75.628906 15.21875 75.871094 15.996094 75.871094 17.007812 L 75.871094 22.414062 L 72.730469 22.414062 L 72.730469 17.386719 C 72.730469 17.027344 72.636719 16.742188 72.445312 16.53125 C 72.265625 16.3125 72.007812 16.199219 71.671875 16.199219 C 71.28125 16.199219 70.96875 16.328125 70.726562 16.582031 C 70.484375 16.832031 70.363281 17.144531 70.363281 17.511719 L 70.363281 22.414062 L 67.21875 22.414062 L 67.21875 14.066406 L 69.792969 14.066406 L 70 15.332031 C 70.324219 14.886719 70.75 14.535156 71.277344 14.273438 C 71.8125 14.007812 72.378906 13.875 72.96875 13.875 Z M 72.96875 13.875 "/>
<path style=" stroke:none;fill-rule:nonzero;fill:rgb(100%,100%,100%);fill-opacity:1;" d="M 61.3125 13.875 C 62.839844 13.875 64.003906 14.234375 64.804688 14.953125 C 65.613281 15.667969 66.019531 16.765625 66.019531 18.242188 L 66.019531 18.777344 L 59.765625 18.777344 C 59.765625 19.378906 59.898438 19.832031 60.160156 20.136719 C 60.433594 20.445312 60.859375 20.597656 61.441406 20.597656 C 61.964844 20.597656 62.351562 20.488281 62.59375 20.265625 C 62.84375 20.042969 62.972656 19.75 62.972656 19.378906 L 66.019531 19.378906 C 66.019531 20.390625 65.636719 21.183594 64.867188 21.75 C 64.097656 22.320312 62.976562 22.605469 61.503906 22.605469 C 59.957031 22.605469 58.753906 22.246094 57.902344 21.53125 C 57.050781 20.800781 56.625 19.707031 56.625 18.242188 C 56.625 16.808594 57.039062 15.722656 57.871094 14.984375 C 58.703125 14.246094 59.851562 13.875 61.3125 13.875 Z M 61.441406 15.882812 C 60.449219 15.882812 59.898438 16.355469 59.78125 17.292969 L 62.84375 17.292969 C 62.84375 16.859375 62.71875 16.515625 62.464844 16.265625 C 62.222656 16.011719 61.882812 15.882812 61.441406 15.882812 Z M 61.441406 15.882812 "/>
<path style=" stroke:none;fill-rule:nonzero;fill:rgb(100%,100%,100%);fill-opacity:1;" d="M 52.851562 22.414062 L 52.582031 21.230469 C 51.96875 22.148438 51.085938 22.605469 49.929688 22.605469 C 48.800781 22.605469 47.933594 22.238281 47.324219 21.5 C 46.710938 20.761719 46.40625 19.667969 46.40625 18.226562 C 46.40625 16.792969 46.710938 15.710938 47.324219 14.984375 C 47.933594 14.246094 48.800781 13.875 49.929688 13.875 C 50.886719 13.875 51.664062 14.199219 52.265625 14.839844 L 52.265625 10.949219 L 55.40625 10.949219 L 55.40625 22.414062 Z M 50.90625 16.199219 C 50.003906 16.199219 49.550781 16.742188 49.550781 17.828125 L 49.550781 18.667969 C 49.550781 19.742188 50.003906 20.28125 50.90625 20.28125 C 51.371094 20.28125 51.71875 20.117188 51.949219 19.789062 C 52.179688 19.464844 52.296875 19.035156 52.296875 18.507812 L 52.296875 17.988281 C 52.296875 17.460938 52.179688 17.035156 51.949219 16.707031 C 51.71875 16.371094 51.371094 16.199219 50.90625 16.199219 Z M 50.90625 16.199219 "/>
<path style=" stroke:none;fill-rule:nonzero;fill:rgb(100%,100%,100%);fill-opacity:1;" d="M 41.34375 22.414062 L 41.34375 11.535156 L 44.832031 11.535156 L 44.832031 22.414062 Z M 41.34375 22.414062 "/>
</g>
</svg>
