<svg width="56" height="34" fill="none" xmlns="http://www.w3.org/2000/svg"><g clip-path="url(#clip0_20414_54786)"><path d="M56 .5H0v33h56V.5z" fill="#006838"/><path d="M19.548 10.373c.216 0 .403.194.403.392v8.89a.938.938 0 01-.321.672c-1.613 1.425-4.084 2.263-6.668 2.263-5.805 0-9.677-4.026-9.677-10.063 0-6.037 3.872-10.067 9.677-10.067 1.99 0 4.085.614 5.645 1.623.216.113.295.334.243.505l-1.344 4.108c-.082.194-.27.279-.512.225-1.101-.614-2.527-.979-3.871-.979-2.472 0-4.14 1.844-4.14 4.585 0 2.741 1.665 4.64 4.14 4.64.993 0 1.665-.194 1.963-.532v-1.623h-2.471c-.243 0-.403-.113-.43-.307l-.35-3.859c-.026-.28.134-.473.43-.473h7.283zM36.43 20.494c.082.198-.026.392-.243.505-1.56 1.005-3.655 1.623-5.645 1.623-5.536 0-9.247-4.026-9.247-10.063 0-6.037 3.71-10.063 9.247-10.063 1.99 0 4.085.613 5.645 1.622.217.113.321.307.243.505L34.657 8.51c-.109.253-.295.334-.512.226-.993-.587-1.964-.785-3.117-.785-2.42 0-4.032 1.844-4.032 4.612 0 2.769 1.613 4.613 4.032 4.613 1.157 0 2.124-.194 3.117-.785.217-.112.403-.027.511.226l1.774 3.886v-.008zM46.428 2.91c3.52 0 5.861 2.183 5.861 5.451 0 2.011-.94 3.495-2.393 3.941 1.695.447 2.796 2.124 2.796 4.445 0 3.27-2.337 5.451-5.831 5.451h-8.523c-.213 0-.377-.194-.377-.392V3.33c0-.194.16-.42.377-.42h8.094-.004zm-1.236 7.575c.807 0 1.344-.505 1.344-1.285 0-.78-.537-1.285-1.344-1.285h-1.695v2.57h1.695zm.482 6.709c.78 0 1.318-.532 1.318-1.343 0-.812-.538-1.344-1.318-1.344h-2.177v2.683h2.177v.004zM12.888 30.313c.018.035 0 .085-.041.12-.363.237-.863.4-1.244.4-1.217 0-2.023-.811-2.023-2.027 0-1.215.806-2.026 2.023-2.026.385 0 .881.159 1.244.4.04.035.06.085.04.12l-.388.854c-.026.055-.074.078-.12.043a1.16 1.16 0 00-.645-.21c-.49 0-.814.33-.814.823 0 .493.321.823.814.823.22 0 .478-.085.646-.21.048-.034.093-.015.12.043l.388.854v-.007zm3.494.015c.015.05 0 .078-.049.105-.358.245-.873.392-1.392.392-1.191 0-1.982-.811-1.982-2.019 0-1.207.78-2.026 1.948-2.026 1.169 0 1.774.75 1.774 2.019 0 .104-.008.21-.027.314-.007.054-.04.085-.1.085h-2.158s0 .44.564.44c.343 0 .724-.086 1.03-.23.048-.02.086.008.1.054l.288.866h.004zm-1.034-1.867c0-.307-.183-.509-.452-.509-.302 0-.504.202-.504.509h.956zm3.842-1.588c.052 0 .093.043.093.097v.909a.094.094 0 01-.094.097h-.175c-.254 0-.485.12-.571.295v2.34c0 .055-.049.106-.101.106h-1.184c-.052 0-.1-.05-.1-.105v-3.634c0-.05.048-.097.1-.097h.758c.053 0 .086.05.109.105l.1.306c.202-.26.53-.419.889-.419h.175zm2.661 0c.06 0 .101.042.101.097l-.075.68c-.007.053-.048.104-.1.104h-.43v2.857c0 .055-.048.105-.1.105h-1.184c-.052 0-.1-.05-.1-.105v-2.857h-.385a.097.097 0 01-.094-.097v-.68c0-.062.049-.104.094-.104h.384v-.761c0-.05.049-.09.101-.097l1.184-.12c.052-.008.1.05.1.096v.882h.504zm.915 3.941c-.355 0-.59-.23-.59-.575 0-.346.235-.586.59-.586s.59.237.59.586c0 .35-.235.575-.59.575zm3.319-.598c-.108.225-.43.368-.806.368-.982 0-1.636-.733-1.636-1.84 0-1.238.605-1.972 1.636-1.972.518 0 .93.148 1.1.4l.12-.194c.041-.062.101-.105.157-.105h.713c.06 0 .101.043.101.105v3.381c0 1.056-.922 1.763-2.065 1.763-.664 0-1.258-.16-1.586-.439-.041-.035-.052-.085-.041-.12l.343-.866c.019-.05.06-.07.101-.043.287.245.732.392 1.183.392.422 0 .68-.232.68-.628v-.202zm0-1.817s-.1-.315-.463-.315c-.336 0-.53.245-.53.664 0 .42.194.672.53.672.362 0 .463-.315.463-.315V28.4zm5.07 1.914c.018.035 0 .085-.041.12-.363.237-.863.4-1.244.4-1.217 0-2.023-.811-2.023-2.027 0-1.215.806-2.026 2.023-2.026.385 0 .881.159 1.244.4.04.035.06.085.04.12l-.388.854c-.026.055-.074.078-.12.043a1.17 1.17 0 00-.645-.21c-.489 0-.814.33-.814.823 0 .493.321.823.814.823.22 0 .478-.085.646-.21.049-.034.093-.015.12.043l.388.854v-.007zm1.765-3.273c.202-.167.505-.264.822-.264 1.064 0 1.773.811 1.773 2.019 0 1.207-.713 2.026-1.773 2.026-.452 0-.881-.182-1.135-.462l-.1.252c-.027.063-.06.105-.109.105h-.762c-.052 0-.1-.05-.1-.105v-4.864c0-.05.048-.097.1-.097h1.184c.052 0 .1.05.1.097v1.293zm0 2.201a.57.57 0 00.53.384c.37 0 .62-.333.62-.838 0-.505-.25-.812-.62-.812a.567.567 0 00-.53.385v.881zm3.473 1.573c-.355 0-.59-.23-.59-.575 0-.346.235-.586.59-.586.354 0 .59.237.59.586 0 .35-.236.575-.59.575zm4.188-.501c.02.035 0 .085-.04.12-.363.237-.863.4-1.244.4-1.217 0-2.023-.811-2.023-2.027 0-1.215.806-2.026 2.023-2.026.385 0 .881.159 1.243.4.041.035.06.085.041.12l-.388.854c-.026.055-.075.078-.12.043a1.16 1.16 0 00-.645-.21c-.49 0-.814.33-.814.823 0 .493.321.823.814.823.224 0 .478-.085.646-.21.048-.034.093-.015.12.043l.387.854v-.007zm5.899-3.44a.07.07 0 01.067.097l-1.093 3.65c-.016.05-.068.097-.12.097h-1.042c-.052 0-.115-.05-.134-.098l-.519-1.86-.519 1.86c-.018.051-.082.098-.134.098h-1.042c-.052 0-.108-.05-.12-.098l-1.093-3.649a.07.07 0 01.067-.097h1.359c.06 0 .116.043.127.097l.35 1.53.363-1.53a.121.121 0 01.12-.097h1.049c.1 0 .108.027.119.097l.362 1.53.351-1.53a.134.134 0 01.127-.097h1.359-.004z" fill="#fff"/></g><defs><clipPath id="clip0_20414_54786"><path fill="#fff" transform="translate(0 .5)" d="M0 0h56v33H0z"/></clipPath></defs></svg>