<svg width="36" height="37" fill="none" xmlns="http://www.w3.org/2000/svg"><mask id="a" style="mask-type:alpha" maskUnits="userSpaceOnUse" x="2" y="2" width="32" height="33"><rect x="2" y="2.326" width="32" height="32" rx="6" fill="#D9D9D9"/></mask><g mask="url(#a)"><path fill="url(#paint0_linear_16174_25739)" d="M.933 3.56h34.133v29.665H.933z"/><path fill="url(#paint1_linear_16174_25739)" d="M10.562 3.56h7.467v25.744h-7.467z"/><path fill="url(#paint2_linear_16174_25739)" d="M17.975 3.56h7.463v25.744h-7.463z"/><path d="M11.748 25.047H5.65a.775.775 0 01-.552-1.32l6.175-6.26a.775.775 0 01.552-.231h3.049a.775.775 0 01.693 1.121l-3.126 6.26a.775.775 0 01-.694.43z" fill="url(#paint3_linear_16174_25739)"/><path d="M30.35 25.047h-6.097a.775.775 0 01-.694-.43l-3.126-6.26a.775.775 0 01.693-1.121h3.05c.207 0 .405.083.551.23l6.175 6.261a.775.775 0 01-.552 1.32z" fill="url(#paint4_linear_16174_25739)"/><path d="M10.88 24.252l3.994-7.016h6.253l3.98 7.015H10.881z" fill="url(#paint5_linear_16174_25739)"/><path d="M23.414 24.252l-6.123 13.833a.775.775 0 001.293.824l12.35-14.127c.13-.15.196-.34.19-.53h-7.71z" fill="url(#paint6_linear_16174_25739)"/><path d="M12.586 24.252h-7.71c-.005.19.06.38.19.53l12.35 14.127a.774.774 0 001.293-.824L12.586 24.25z" fill="url(#paint7_linear_16174_25739)"/><path d="M10.88 24.252l6.411 14.46a.775.775 0 001.418 0l6.398-14.46H10.881z" fill="url(#paint8_linear_16174_25739)"/><path d="M17.994 24.252h7.113l-3.98-7.016h-3.133v7.015z" fill="url(#paint9_linear_16174_25739)"/><path opacity=".6" d="M18 39.173c.307 0 .585-.18.709-.46l6.398-14.462H18v14.922z" fill="url(#paint10_linear_16174_25739)"/><path d="M12.565 13.419a2.017 2.017 0 00-2.017 2.017A2.017 2.017 0 008.53 13.42a2.018 2.018 0 002.018-2.018 2.018 2.018 0 002.017 2.018z" fill="url(#paint11_linear_16174_25739)"/><path d="M27.468 13.419a2.018 2.018 0 00-2.017 2.017 2.017 2.017 0 00-2.018-2.017 2.017 2.017 0 002.018-2.018 2.017 2.017 0 002.017 2.018z" fill="url(#paint12_linear_16174_25739)"/><path d="M20.883 8.71a2.86 2.86 0 00-2.861 2.86 2.86 2.86 0 00-2.86-2.86 2.86 2.86 0 002.86-2.861 2.86 2.86 0 002.86 2.86z" fill="url(#paint13_linear_16174_25739)"/><rect x="2.75" y="3.076" width="30.5" height="30.5" rx="5.25" stroke="url(#paint14_linear_16174_25739)" stroke-width="1.5"/></g><defs><linearGradient id="paint0_linear_16174_25739" x1="18" y1="30.02" x2="18" y2="11.004" gradientUnits="userSpaceOnUse"><stop offset=".008" stop-color="#4257E3"/><stop offset="1" stop-color="#190947"/></linearGradient><linearGradient id="paint1_linear_16174_25739" x1="14.296" y1="20.058" x2="14.296" y2="-.028" gradientUnits="userSpaceOnUse"><stop offset=".008" stop-color="#427AE3"/><stop offset="1" stop-color="#190947"/></linearGradient><linearGradient id="paint2_linear_16174_25739" x1="21.706" y1="16.432" x2="21.706" y2="-1.912" gradientUnits="userSpaceOnUse"><stop offset=".008" stop-color="#428EE3"/><stop offset="1" stop-color="#190947"/></linearGradient><linearGradient id="paint3_linear_16174_25739" x1="10.262" y1="17.236" x2="7.367" y2="25.047" gradientUnits="userSpaceOnUse"><stop stop-color="#9FFFEE"/><stop offset="1" stop-color="#7EF7F0"/></linearGradient><linearGradient id="paint4_linear_16174_25739" x1="25.738" y1="17.236" x2="25.738" y2="25.047" gradientUnits="userSpaceOnUse"><stop stop-color="#3FFCBB"/><stop offset="1" stop-color="#32F8F8"/></linearGradient><linearGradient id="paint5_linear_16174_25739" x1="17.994" y1="17.236" x2="17.994" y2="24.252" gradientUnits="userSpaceOnUse"><stop stop-color="#38FCD9"/><stop offset="1" stop-color="#B4FFED"/></linearGradient><linearGradient id="paint6_linear_16174_25739" x1="27.185" y1="24.252" x2="18.625" y2="37.933" gradientUnits="userSpaceOnUse"><stop offset=".008" stop-color="#42CFE2"/><stop offset="1" stop-color="#3A4BE8"/></linearGradient><linearGradient id="paint7_linear_16174_25739" x1="8.949" y1="24.252" x2="17.735" y2="39.174" gradientUnits="userSpaceOnUse"><stop stop-color="#4FF2E8"/><stop offset="1" stop-color="#184FB9"/></linearGradient><linearGradient id="paint8_linear_16174_25739" x1="17.994" y1="28.677" x2="17.994" y2="39.728" gradientUnits="userSpaceOnUse"><stop offset=".008" stop-color="#1CECEC"/><stop offset="1" stop-color="#4C3ADE"/></linearGradient><linearGradient id="paint9_linear_16174_25739" x1="22.803" y1="19.627" x2="17.994" y2="22.802" gradientUnits="userSpaceOnUse"><stop stop-color="#5FFFE2"/><stop offset="1" stop-color="#BCFFEF"/></linearGradient><linearGradient id="paint10_linear_16174_25739" x1="21.554" y1="28.677" x2="21.554" y2="39.728" gradientUnits="userSpaceOnUse"><stop offset=".008" stop-color="#0BDEDE"/><stop offset="1" stop-color="#19099D"/></linearGradient><linearGradient id="paint11_linear_16174_25739" x1="10.548" y1="11.401" x2="10.548" y2="15.436" gradientUnits="userSpaceOnUse"><stop stop-color="#FFF493"/><stop offset="1" stop-color="#F59626"/></linearGradient><linearGradient id="paint12_linear_16174_25739" x1="25.451" y1="11.401" x2="25.451" y2="15.436" gradientUnits="userSpaceOnUse"><stop stop-color="#FFF493"/><stop offset="1" stop-color="#F59626"/></linearGradient><linearGradient id="paint13_linear_16174_25739" x1="18.022" y1="5.849" x2="18.022" y2="11.57" gradientUnits="userSpaceOnUse"><stop stop-color="#FFF493"/><stop offset="1" stop-color="#F59626"/></linearGradient><linearGradient id="paint14_linear_16174_25739" x1="18" y1="2.326" x2="18" y2="34.326" gradientUnits="userSpaceOnUse"><stop stop-color="#0BDEDE"/><stop offset="1" stop-color="#2586F6"/></linearGradient></defs></svg>